<svg xmlns="http://www.w3.org/2000/svg" width="119.648" height="87.739" viewBox="0 0 119.648 87.739">
  <g id="Grupo_9148" data-name="Grupo 9148" transform="translate(-294.816 -4891.063)">
    <path id="Trazado_9170" data-name="Trazado 9170" d="M400.844,4950.066v1.683l.506,7.379-6.167,6.026s-29.282-33.2-28.829-33.277,12.075-3.471,12.075-3.471Zm0,0" transform="translate(-16.016 -8.361)" fill="#ffdfcf"/>
    <path id="Trazado_9171" data-name="Trazado 9171" d="M383.7,4952.954l-22.472-22.473-15.389-15.852a10.58,10.58,0,0,0-3.71-2.4l-5.233-1.993-3.447-3.447-5.394-7.019-24.034,24.1,7.413,7.852,7.375,7.375v4.764a6.507,6.507,0,0,0,1.9,4.6l8.585,8.091,22.171,17.035,5.8,5.8a4.672,4.672,0,0,0,6.606-6.609,4.672,4.672,0,0,0,6.608-6.605,4.673,4.673,0,0,0,6.607-6.609,4.671,4.671,0,1,0,6.608-6.6Zm0,0" transform="translate(-2.061 -1.948)" fill="#ffeee6"/>
    <path id="Trazado_9172" data-name="Trazado 9172" d="M361.693,4985.835a4.594,4.594,0,0,1,0,6.5l-4.908,4.909a4.6,4.6,0,0,1-6.5,0l-.109-.11a4.6,4.6,0,0,1,0-6.5l4.359-4.358.553-.55a4.59,4.59,0,0,1,6.5,0Zm0,0" transform="translate(-12.094 -20.894)" fill="#ffdfcf"/>
    <path id="Trazado_9173" data-name="Trazado 9173" d="M352.66,4978.065a4.591,4.591,0,0,1,0,6.5l-4.359,4.358a4.594,4.594,0,1,1-6.5-6.5l4.357-4.357a4.59,4.59,0,0,1,6.5,0Zm0,0" transform="translate(-10.219 -19.178)" fill="#ffdfcf"/>
    <path id="Trazado_9174" data-name="Trazado 9174" d="M346.335,4967.058a4.6,4.6,0,0,1,0,6.5l-6.4,6.4a4.595,4.595,0,0,1-6.5-6.5l3.949-3.948,2.455-2.454a4.593,4.593,0,0,1,6.5,0Zm0,0" transform="translate(-8.345 -16.713)" fill="#ffdfcf"/>
    <path id="Trazado_9175" data-name="Trazado 9175" d="M335.507,4961.849a4.592,4.592,0,0,1,0,6.5l-3.949,3.949a4.594,4.594,0,1,1-6.5-6.5l3.949-3.948a4.591,4.591,0,0,1,6.5,0Zm0,0" transform="translate(-6.471 -15.547)" fill="#ffdfcf"/>
    <path id="Trazado_9176" data-name="Trazado 9176" d="M353.267,4993.726l4.359-4.358.553-.55a4.592,4.592,0,0,1,4.646-1.123,4.589,4.589,0,0,0-1.132-1.859l-.109-.109a4.59,4.59,0,0,0-6.5,0l-.553.55-4.359,4.358a4.6,4.6,0,0,0,0,6.5l.109.11a4.6,4.6,0,0,0,1.857,1.129,4.6,4.6,0,0,1,1.125-4.646Zm0,0" transform="translate(-12.094 -20.894)" fill="#ffcebf"/>
    <path id="Trazado_9177" data-name="Trazado 9177" d="M344.9,4985.514l4.357-4.357a4.588,4.588,0,0,1,4.56-1.155,4.593,4.593,0,0,0-7.652-1.936l-4.357,4.357a4.6,4.6,0,0,0,1.936,7.654,4.592,4.592,0,0,1,1.156-4.562Zm0,0" transform="translate(-10.219 -19.178)" fill="#ffcebf"/>
    <path id="Trazado_9178" data-name="Trazado 9178" d="M336.525,4976.552l3.948-3.949,2.455-2.453a4.594,4.594,0,0,1,4.562-1.155,4.594,4.594,0,0,0-7.653-1.937l-2.455,2.454-3.949,3.948a4.594,4.594,0,0,0,1.936,7.652,4.594,4.594,0,0,1,1.156-4.56Zm0,0" transform="translate(-8.345 -16.713)" fill="#ffcebf"/>
    <path id="Trazado_9179" data-name="Trazado 9179" d="M328.153,4968.888l3.949-3.948a4.6,4.6,0,0,1,4.56-1.157,4.594,4.594,0,0,0-7.652-1.935l-3.949,3.948a4.6,4.6,0,0,0,1.936,7.652,4.6,4.6,0,0,1,1.156-4.561Zm0,0" transform="translate(-6.471 -15.547)" fill="#ffcebf"/>
    <path id="Trazado_9180" data-name="Trazado 9180" d="M397.279,4911.066l21.64,21.867-3.026,3.3-19.014,19.014L370,4930.281h-8.913l-5.763,4.737a5.473,5.473,0,0,1-7.345-8.1l6.946-6.948a3.207,3.207,0,0,1,2.265-.939h18.345a3.62,3.62,0,0,1,1.764.459l6.843,3.816a.824.824,0,0,0,.976-.128l6.816-6.655Zm0,0" transform="translate(-11.545 -4.479)" fill="#ffdfcf"/>
    <path id="Trazado_9181" data-name="Trazado 9181" d="M351.948,4935.042a5.449,5.449,0,0,1,1.6-3.87l4.844-4.846a10.389,10.389,0,0,1,7.345-3.042h14.241l-2.68-1.495a3.62,3.62,0,0,0-1.764-.459H357.195a3.194,3.194,0,0,0-2.261.937l-6.95,6.95a5.474,5.474,0,0,0,5.135,9.2,5.461,5.461,0,0,1-1.17-3.372Zm0,0" transform="translate(-11.545 -6.777)" fill="#ffcebf"/>
    <path id="Trazado_9182" data-name="Trazado 9182" d="M438.519,4927.73l-5.648,5.65a2.076,2.076,0,0,1-2.9.033l-24.2-23.119a2.075,2.075,0,0,1-.034-2.967l12.346-12.346a2.193,2.193,0,0,1,3.444.443l17.338,29.649a2.191,2.191,0,0,1-.342,2.656Zm0,0" transform="translate(-24.698 -0.733)" fill="#ff97a4"/>
    <path id="Trazado_9183" data-name="Trazado 9183" d="M295.247,4917.09a1.432,1.432,0,0,0-.011,2.037l8.376,8.376a3.249,3.249,0,0,0,4.593,0l23.341-23.341a3.248,3.248,0,0,0,0-4.593l-8.088-8.087a1.433,1.433,0,0,0-2.016-.011Zm0,0" transform="translate(0 0)" fill="#8ac9fe"/>
  </g>
</svg>
