<svg xmlns="http://www.w3.org/2000/svg" width="102.522" height="126.188" viewBox="0 0 102.522 126.188">
  <g id="Grupo_9157" data-name="Grupo 9157" transform="translate(-231 -12278.998)">
    <path id="Trazado_9168" data-name="Trazado 9168" d="M356.527,5201.286a45.348,45.348,0,1,0-75.144-34.185c0,.522.01,1.058.03,1.623a1.956,1.956,0,0,0-.03.349v5.45l-11.622,23.244a1.991,1.991,0,0,0,1.14,2.752l10.482,3.495v20.268a1.973,1.973,0,0,0,1.972,1.971h25.958l3.649,20.069a1.972,1.972,0,0,0,1.94,1.619h50.524a1.991,1.991,0,0,0,1.915-2.44Zm0,0" transform="translate(-38.557 7157.246)" fill="#ffdfcf"/>
    <path id="Trazado_9169" data-name="Trazado 9169" d="M367.056,5244.886H322.793a1.972,1.972,0,0,1-1.939-1.618l-3.65-20.07H291.246a1.973,1.973,0,0,1-1.972-1.972v-20.267l-10.482-3.5a1.992,1.992,0,0,1-1.14-2.752l11.622-23.244v-5.448a1.9,1.9,0,0,1,.031-.351c-.021-.564-.031-1.1-.031-1.622A45.362,45.362,0,0,1,312,5124.77a45.415,45.415,0,0,0-30.62,42.879c0,.522.01,1.059.03,1.623a1.951,1.951,0,0,0-.03.349v5.449l-11.622,23.244a1.992,1.992,0,0,0,1.139,2.752l10.483,3.5v20.268a1.972,1.972,0,0,0,1.971,1.971h25.959l3.649,20.069a1.972,1.972,0,0,0,1.94,1.619h50.524a1.991,1.991,0,0,0,1.915-2.439Z" transform="translate(-38.557 7156.698)" fill="#ffcebf"/>
    <path id="Trazado_9243" data-name="Trazado 9243" d="M363.079,5136.01H316.432a8.356,8.356,0,0,0-8.355,8.355v38.9a8.354,8.354,0,0,0,8.355,8.354h2.026l3.628,6.064a1.892,1.892,0,0,0,3.247,0l3.628-6.064h34.116a8.354,8.354,0,0,0,8.355-8.354v-38.9a8.354,8.354,0,0,0-8.355-8.355Zm0,0" transform="translate(-45.548 7154.658)" fill="#8ac9fe"/>
    <path id="Trazado_9244" data-name="Trazado 9244" d="M324.926,5179.143h12.9l1.835,1.085a4.605,4.605,0,0,0,2.332.636h17.737a3.02,3.02,0,0,0,3.029-2.633,2.969,2.969,0,0,0-1.518-2.938.206.206,0,0,1-.11-.18v-.007a.2.2,0,0,1,.159-.2,2.97,2.97,0,0,0,1.36-5.095,3.194,3.194,0,0,0,.71-5.58,3.44,3.44,0,0,0-1.536-6.519h-7.094a.69.69,0,0,1-.628-.977l.842-1.843a8.19,8.19,0,0,0,.742-3.406v-3.833a4.233,4.233,0,0,0-.318-1.612,3.53,3.53,0,0,0-3.264-2.187h-.007a2.432,2.432,0,0,0-2.235,1.478l-1.48,3.474-5.577,3.248-.915.389a5.587,5.587,0,0,0-2.861,2.744l-1.2,2.528h-12.9a2.346,2.346,0,0,0-2.347,2.347V5176.8a2.346,2.346,0,0,0,2.347,2.347Zm0,0" transform="translate(-48.18 7153.234)" fill="#f9f7f8"/>
  </g>
</svg>
