<svg xmlns="http://www.w3.org/2000/svg" width="122.477" height="122.479" viewBox="0 0 122.477 122.479">
  <g id="Grupo_9151" data-name="Grupo 9151" transform="translate(-472.926 -5106.875)">
    <path id="Trazado_9229" data-name="Trazado 9229" d="M574.781,5124.315a17.443,17.443,0,0,0-32.893-8.095.593.593,0,0,1-1.053,0,17.443,17.443,0,0,0-32.893,8.095c0,19.026,29.756,37.574,33.113,39.606a.592.592,0,0,0,.613,0c3.356-2.032,33.113-20.58,33.113-39.606Zm0,0" transform="translate(-7.197)" fill="#ff97a4"/>
    <path id="Trazado_9230" data-name="Trazado 9230" d="M566.247,5107.093a17.386,17.386,0,0,1,5.113,12.338c0,17.75-25.9,35.083-32.1,38.979,4.053,2.982,7.254,4.966,8.229,5.556a.592.592,0,0,0,.613,0c3.356-2.032,33.113-20.579,33.113-39.606a17.444,17.444,0,0,0-14.971-17.267Zm0,0" transform="translate(-13.634 -0.045)" fill="#ff7d8d"/>
    <path id="Trazado_9231" data-name="Trazado 9231" d="M489.772,5138.79h-6.954a3.307,3.307,0,1,1,0-6.614h6.954a3.307,3.307,0,0,1,0,6.614Zm0,0" transform="translate(-1.354 -5.2)" fill="#ffd064"/>
    <path id="Trazado_9232" data-name="Trazado 9232" d="M493.923,5156.652l-6.534,2.379a3.308,3.308,0,1,1-2.263-6.216l6.535-2.379a3.308,3.308,0,0,1,2.262,6.216Zm0,0" transform="translate(-2.06 -8.912)" fill="#ffd064"/>
    <path id="Trazado_9233" data-name="Trazado 9233" d="M493.923,5113.7l-6.534-2.379a3.307,3.307,0,1,0-2.263,6.216l6.535,2.379a3.307,3.307,0,0,0,2.262-6.216Zm0,0" transform="translate(-2.06 -0.872)" fill="#ffd064"/>
    <path id="Trazado_9234" data-name="Trazado 9234" d="M606.731,5138.79h6.953a3.307,3.307,0,1,0,0-6.614h-6.953a3.307,3.307,0,1,0,0,6.614Zm0,0" transform="translate(-26.821 -5.2)" fill="#ffd064"/>
    <path id="Trazado_9235" data-name="Trazado 9235" d="M602.689,5156.652l6.534,2.379a3.308,3.308,0,1,0,2.263-6.216l-6.535-2.379a3.308,3.308,0,0,0-2.262,6.216Zm0,0" transform="translate(-26.223 -8.912)" fill="#ffd064"/>
    <path id="Trazado_9236" data-name="Trazado 9236" d="M602.689,5113.7l6.534-2.379a3.307,3.307,0,1,1,2.263,6.216l-6.535,2.379a3.307,3.307,0,1,1-2.262-6.216Zm0,0" transform="translate(-26.223 -0.872)" fill="#ffd064"/>
    <path id="Trazado_9237" data-name="Trazado 9237" d="M595.676,5202.1s2.43-17.483,2.458-17.568a6.545,6.545,0,0,0-7.756,4.692l-3.654,13.633a5.632,5.632,0,0,1-2.623,3.42Zm0,0" transform="translate(-22.85 -15.927)" fill="#df9380"/>
    <path id="Trazado_9238" data-name="Trazado 9238" d="M608.116,5179.026a6.546,6.546,0,0,0-8.073,4.613l-3.653,13.634a5.633,5.633,0,0,1-2.625,3.42l11.829-3.049Zm0,0" transform="translate(-24.836 -14.78)" fill="#eaac9d"/>
    <path id="Trazado_9239" data-name="Trazado 9239" d="M612,5176.825a2.067,2.067,0,0,0-1.207-2.456,8.778,8.778,0,0,0-11.791,5.854l-3.1,11.574a5.624,5.624,0,0,1-2.625,3.419l-21.2,12.242a1.967,1.967,0,0,1-2.884-2.212l1.6-5.983a8.825,8.825,0,0,0-6.223-10.8,2.718,2.718,0,0,0-3.334,1.912l-5.4,20.15a52.775,52.775,0,0,0-1.8,13.657v18.646a.268.268,0,0,0,.269.268h20.5a.268.268,0,0,0,.269-.268v-7.753a15.108,15.108,0,0,1,4.466-10.725l24.656-24.473a11.541,11.541,0,0,0,3.018-5.2Zm0,0" transform="translate(-16.673 -13.739)" fill="#ffdfcf"/>
    <path id="Trazado_9240" data-name="Trazado 9240" d="M500.708,5202.1s-2.431-17.483-2.458-17.568a6.545,6.545,0,0,1,7.756,4.692l3.654,13.633a5.628,5.628,0,0,0,2.623,3.42Zm0,0" transform="translate(-5.205 -15.927)" fill="#df9380"/>
    <path id="Trazado_9241" data-name="Trazado 9241" d="M488.185,5179.026a6.544,6.544,0,0,1,8.072,4.613l3.654,13.634a5.63,5.63,0,0,0,2.625,3.42l-11.829-3.049Zm0,0" transform="translate(-3.136 -14.78)" fill="#eaac9d"/>
    <path id="Trazado_9242" data-name="Trazado 9242" d="M473,5176.825a2.069,2.069,0,0,1,1.208-2.456,8.777,8.777,0,0,1,11.79,5.854l3.1,11.574a5.621,5.621,0,0,0,2.625,3.419l21.2,12.242a1.967,1.967,0,0,0,2.883-2.212l-1.6-5.983a8.825,8.825,0,0,1,6.223-10.8,2.718,2.718,0,0,1,3.334,1.912l5.4,20.15a52.773,52.773,0,0,1,1.8,13.657v18.646a.269.269,0,0,1-.269.268h-20.5a.267.267,0,0,1-.268-.268v-7.753a15.109,15.109,0,0,0-4.467-10.725L480.8,5199.875a11.534,11.534,0,0,1-3.018-5.2Zm0,0" transform="translate(0 -13.739)" fill="#ffdfcf"/>
  </g>
</svg>
