<svg xmlns="http://www.w3.org/2000/svg" width="426.332" height="321.601" viewBox="0 0 426.332 321.601">
  <g id="Grupo_9164" data-name="Grupo 9164" transform="translate(-773.45 -6021.971)">
    <path id="Trazado_9359" data-name="Trazado 9359" d="M934.25,6021.971l-40.2,80.4h80.4Z" fill="#a5d130"/>
    <path id="Trazado_9360" data-name="Trazado 9360" d="M853.85,6182.771h160.8l-40.2-80.4h-80.4Z" fill="#f45d6f"/>
    <path id="Trazado_9361" data-name="Trazado 9361" d="M813.65,6263.171h241.2l-40.2-80.4H853.85Z" fill="#ffc82e"/>
    <path id="Trazado_9362" data-name="Trazado 9362" d="M813.65,6263.171l-40.2,80.4h321.6l-40.2-80.4Z" fill="#3ca8e4"/>
    <g id="Grupo_9160" data-name="Grupo 9160">
      <path id="Trazado_9363" data-name="Trazado 9363" d="M986.349,6056.46a3.733,3.733,0,0,0-2.972,1.254,5.057,5.057,0,0,0-1.09,3.434,5.161,5.161,0,0,0,1.05,3.465,3.736,3.736,0,0,0,3,1.222,10.243,10.243,0,0,0,2.726-.429v1.164a8.409,8.409,0,0,1-2.93.445,4.955,4.955,0,0,1-3.894-1.531,6.308,6.308,0,0,1-1.371-4.352,6.871,6.871,0,0,1,.66-3.094,4.742,4.742,0,0,1,1.906-2.047,5.773,5.773,0,0,1,2.934-.718,7.066,7.066,0,0,1,3.14.656l-.562,1.141A6.048,6.048,0,0,0,986.349,6056.46Z"/>
      <path id="Trazado_9364" data-name="Trazado 9364" d="M998.748,6062.57a4.722,4.722,0,0,1-1.055,3.269,3.714,3.714,0,0,1-2.914,1.176,3.864,3.864,0,0,1-2.039-.539,3.559,3.559,0,0,1-1.375-1.547,5.39,5.39,0,0,1-.485-2.359,4.716,4.716,0,0,1,1.047-3.262,3.7,3.7,0,0,1,2.907-1.168,3.623,3.623,0,0,1,2.855,1.195A4.7,4.7,0,0,1,998.748,6062.57Zm-6.524,0a4.068,4.068,0,0,0,.656,2.5,2.6,2.6,0,0,0,3.864,0,4.042,4.042,0,0,0,.66-2.5,3.982,3.982,0,0,0-.66-2.481,2.32,2.32,0,0,0-1.949-.848,2.283,2.283,0,0,0-1.922.836A4.021,4.021,0,0,0,992.224,6062.57Z"/>
      <path id="Trazado_9365" data-name="Trazado 9365" d="M1006.88,6066.859v-5.539a2.236,2.236,0,0,0-.476-1.563,1.942,1.942,0,0,0-1.492-.516,2.463,2.463,0,0,0-1.969.727,3.667,3.667,0,0,0-.625,2.4v4.493h-1.3V6058.3h1.055l.211,1.172h.062a2.647,2.647,0,0,1,1.117-.98,3.631,3.631,0,0,1,1.6-.348,3.254,3.254,0,0,1,2.328.746,3.175,3.175,0,0,1,.781,2.387v5.586Z"/>
      <path id="Trazado_9366" data-name="Trazado 9366" d="M1016.365,6064.523a2.143,2.143,0,0,1-.891,1.843,4.184,4.184,0,0,1-2.5.649,5.441,5.441,0,0,1-2.656-.539v-1.2a6.458,6.458,0,0,0,1.324.492,5.536,5.536,0,0,0,1.363.18,3.088,3.088,0,0,0,1.563-.325,1.115,1.115,0,0,0,.113-1.843,6.825,6.825,0,0,0-1.691-.84,9.138,9.138,0,0,1-1.7-.778,2.317,2.317,0,0,1-.75-.753,1.969,1.969,0,0,1-.246-1.008,1.921,1.921,0,0,1,.851-1.653,3.97,3.97,0,0,1,2.336-.6,6.832,6.832,0,0,1,2.7.562l-.461,1.055a6.2,6.2,0,0,0-2.336-.531,2.693,2.693,0,0,0-1.39.289.893.893,0,0,0-.469.8.965.965,0,0,0,.176.586,1.741,1.741,0,0,0,.566.461,12.479,12.479,0,0,0,1.5.632,5.617,5.617,0,0,1,2.059,1.118A1.973,1.973,0,0,1,1016.365,6064.523Z"/>
      <path id="Trazado_9367" data-name="Trazado 9367" d="M1021.24,6065.945a4.2,4.2,0,0,0,.664-.051,4.246,4.246,0,0,0,.508-.106v.993a2.4,2.4,0,0,1-.621.167,4.72,4.72,0,0,1-.739.067q-2.484,0-2.484-2.617V6059.3h-1.227v-.625l1.227-.539.547-1.828h.75v1.984h2.484v1.008h-2.484v5.039a1.733,1.733,0,0,0,.367,1.188A1.278,1.278,0,0,0,1021.24,6065.945Z"/>
      <path id="Trazado_9368" data-name="Trazado 9368" d="M1024.013,6055.976a.863.863,0,0,1,.219-.653.81.81,0,0,1,1.086,0,.847.847,0,0,1,.227.649.857.857,0,0,1-.227.652.794.794,0,0,1-1.086,0A.875.875,0,0,1,1024.013,6055.976Zm1.407,10.883h-1.3V6058.3h1.3Z"/>
      <path id="Trazado_9369" data-name="Trazado 9369" d="M1030.935,6065.945a4.586,4.586,0,0,0,1.172-.157v.993a2.4,2.4,0,0,1-.621.167,4.718,4.718,0,0,1-.738.067q-2.486,0-2.485-2.617V6059.3h-1.226v-.625l1.226-.539.547-1.828h.75v1.984h2.485v1.008h-2.485v5.039a1.733,1.733,0,0,0,.367,1.188A1.278,1.278,0,0,0,1030.935,6065.945Z"/>
      <path id="Trazado_9370" data-name="Trazado 9370" d="M1035.037,6058.3v5.555a2.237,2.237,0,0,0,.476,1.562,1.942,1.942,0,0,0,1.492.516,2.436,2.436,0,0,0,1.965-.734,3.706,3.706,0,0,0,.621-2.4v-4.5h1.3v8.563h-1.07l-.188-1.149h-.07a2.584,2.584,0,0,1-1.105.969,3.722,3.722,0,0,1-1.614.336,3.27,3.27,0,0,1-2.339-.742,3.157,3.157,0,0,1-.778-2.375v-5.6Z"/>
      <path id="Trazado_9371" data-name="Trazado 9371" d="M1047.06,6067.015a3.654,3.654,0,0,1-2.879-1.145,4.708,4.708,0,0,1-1.019-3.238,4.852,4.852,0,0,1,1.035-3.32,3.726,3.726,0,0,1,2.949-1.172,5.828,5.828,0,0,1,1.234.133,4.1,4.1,0,0,1,.969.312l-.4,1.1a6.163,6.163,0,0,0-.938-.285,4.173,4.173,0,0,0-.9-.114q-2.61,0-2.61,3.328a3.964,3.964,0,0,0,.637,2.422,2.216,2.216,0,0,0,1.887.844,5.754,5.754,0,0,0,2.195-.461v1.149A4.684,4.684,0,0,1,1047.06,6067.015Z"/>
      <path id="Trazado_9372" data-name="Trazado 9372" d="M1051.146,6055.976a.863.863,0,0,1,.219-.653.81.81,0,0,1,1.086,0,.846.846,0,0,1,.226.649.857.857,0,0,1-.226.652.754.754,0,0,1-.539.215.746.746,0,0,1-.547-.215A.875.875,0,0,1,1051.146,6055.976Zm1.406,10.883h-1.3V6058.3h1.3Z"/>
      <path id="Trazado_9373" data-name="Trazado 9373" d="M1062.693,6062.57a4.722,4.722,0,0,1-1.055,3.269,3.712,3.712,0,0,1-2.914,1.176,3.866,3.866,0,0,1-2.039-.539,3.559,3.559,0,0,1-1.375-1.547,5.39,5.39,0,0,1-.484-2.359,4.716,4.716,0,0,1,1.047-3.262,3.7,3.7,0,0,1,2.906-1.168,3.62,3.62,0,0,1,2.855,1.195A4.7,4.7,0,0,1,1062.693,6062.57Zm-6.523,0a4.061,4.061,0,0,0,.656,2.5,2.6,2.6,0,0,0,3.863,0,4.042,4.042,0,0,0,.66-2.5,3.981,3.981,0,0,0-.66-2.481,2.32,2.32,0,0,0-1.949-.848,2.283,2.283,0,0,0-1.922.836A4.028,4.028,0,0,0,1056.17,6062.57Zm1.5-5.6q.375-.484.808-1.172a13.445,13.445,0,0,0,.684-1.195h1.578v.164a11.43,11.43,0,0,1-1.024,1.25,11.561,11.561,0,0,1-1.179,1.148h-.867Z"/>
      <path id="Trazado_9374" data-name="Trazado 9374" d="M1070.826,6066.859v-5.539a2.236,2.236,0,0,0-.477-1.563,1.941,1.941,0,0,0-1.492-.516,2.464,2.464,0,0,0-1.969.727,3.673,3.673,0,0,0-.625,2.4v4.493h-1.3V6058.3h1.055l.211,1.172h.063a2.636,2.636,0,0,1,1.117-.98,3.626,3.626,0,0,1,1.6-.348,3.251,3.251,0,0,1,2.328.746,3.175,3.175,0,0,1,.782,2.387v5.586Z"/>
    </g>
    <g id="Grupo_9161" data-name="Grupo 9161">
      <path id="Trazado_9375" data-name="Trazado 9375" d="M1022.394,6147.259v-11.422h1.328v10.219h5.039v1.2Z"/>
      <path id="Trazado_9376" data-name="Trazado 9376" d="M1034.12,6147.415a3.934,3.934,0,0,1-3-1.156,4.473,4.473,0,0,1-1.1-3.211,4.964,4.964,0,0,1,1.019-3.289,3.389,3.389,0,0,1,2.738-1.219,3.229,3.229,0,0,1,2.547,1.059,4.058,4.058,0,0,1,.938,2.793v.82h-5.9a3.39,3.39,0,0,0,.762,2.289,2.634,2.634,0,0,0,2.035.781,6.9,6.9,0,0,0,2.735-.578v1.157a6.848,6.848,0,0,1-1.3.425A7.317,7.317,0,0,1,1034.12,6147.415Zm-.351-7.789a2.119,2.119,0,0,0-1.645.672,3.092,3.092,0,0,0-.722,1.859h4.476a2.849,2.849,0,0,0-.547-1.878A1.924,1.924,0,0,0,1033.769,6139.626Z"/>
      <path id="Trazado_9377" data-name="Trazado 9377" d="M1038.12,6138.7h1.391l1.875,4.882a18.709,18.709,0,0,1,.766,2.414h.062q.1-.4.426-1.363t2.121-5.933h1.391l-3.68,9.75a4.88,4.88,0,0,1-1.277,2.05,2.718,2.718,0,0,1-1.793.606,5.253,5.253,0,0,1-1.172-.133v-1.039a4.545,4.545,0,0,0,.961.094,1.981,1.981,0,0,0,1.906-1.5l.476-1.219Z"/>
      <path id="Trazado_9378" data-name="Trazado 9378" d="M1051.159,6147.415a3.935,3.935,0,0,1-3-1.156,4.473,4.473,0,0,1-1.1-3.211,4.964,4.964,0,0,1,1.019-3.289,3.389,3.389,0,0,1,2.738-1.219,3.229,3.229,0,0,1,2.547,1.059,4.058,4.058,0,0,1,.938,2.793v.82h-5.9a3.39,3.39,0,0,0,.762,2.289,2.634,2.634,0,0,0,2.035.781,6.893,6.893,0,0,0,2.735-.578v1.157a6.851,6.851,0,0,1-1.3.425A7.311,7.311,0,0,1,1051.159,6147.415Zm-.351-7.789a2.119,2.119,0,0,0-1.645.672,3.1,3.1,0,0,0-.722,1.859h4.476a2.849,2.849,0,0,0-.547-1.878A1.924,1.924,0,0,0,1050.808,6139.626Z"/>
      <path id="Trazado_9379" data-name="Trazado 9379" d="M1062.042,6144.923a2.146,2.146,0,0,1-.89,1.844,4.19,4.19,0,0,1-2.5.648,5.434,5.434,0,0,1-2.657-.539v-1.2a6.355,6.355,0,0,0,1.325.492,5.509,5.509,0,0,0,1.363.18,3.092,3.092,0,0,0,1.562-.324,1.117,1.117,0,0,0,.114-1.844,6.836,6.836,0,0,0-1.692-.84,9.213,9.213,0,0,1-1.7-.777,2.322,2.322,0,0,1-.75-.754,1.967,1.967,0,0,1-.246-1.008,1.922,1.922,0,0,1,.851-1.652,3.969,3.969,0,0,1,2.336-.606,6.842,6.842,0,0,1,2.7.563l-.461,1.054a6.21,6.21,0,0,0-2.336-.531,2.7,2.7,0,0,0-1.391.289.9.9,0,0,0-.469.8.969.969,0,0,0,.176.586,1.718,1.718,0,0,0,.566.461,12.666,12.666,0,0,0,1.5.633,5.61,5.61,0,0,1,2.059,1.117A1.97,1.97,0,0,1,1062.042,6144.923Z"/>
    </g>
    <g id="Grupo_9162" data-name="Grupo 9162">
      <path id="Trazado_9380" data-name="Trazado 9380" d="M1066.147,6222.909v4.75h-1.328v-11.422h3.133a4.931,4.931,0,0,1,3.1.805,2.917,2.917,0,0,1,1,2.422,3.033,3.033,0,0,1-2.3,3.062l3.1,5.133H1071.3l-2.765-4.75Zm0-1.141h1.82a3.147,3.147,0,0,0,2.063-.558,2.08,2.08,0,0,0,.656-1.676,1.909,1.909,0,0,0-.668-1.633,3.62,3.62,0,0,0-2.145-.5h-1.726Z"/>
      <path id="Trazado_9381" data-name="Trazado 9381" d="M1078.131,6227.815a3.934,3.934,0,0,1-3-1.156,4.475,4.475,0,0,1-1.1-3.211,4.961,4.961,0,0,1,1.019-3.289,3.385,3.385,0,0,1,2.738-1.219,3.229,3.229,0,0,1,2.547,1.059,4.056,4.056,0,0,1,.938,2.793v.82h-5.9a3.391,3.391,0,0,0,.762,2.289,2.634,2.634,0,0,0,2.035.781,6.888,6.888,0,0,0,2.735-.578v1.156a6.811,6.811,0,0,1-1.3.426A7.319,7.319,0,0,1,1078.131,6227.815Zm-.351-7.789a2.118,2.118,0,0,0-1.645.672,3.09,3.09,0,0,0-.722,1.859h4.476a2.852,2.852,0,0,0-.547-1.879A1.927,1.927,0,0,0,1077.78,6220.026Z"/>
      <path id="Trazado_9382" data-name="Trazado 9382" d="M1090.5,6219.1v.821l-1.585.187a2.781,2.781,0,0,1,.39.715,2.724,2.724,0,0,1,.172,1,2.534,2.534,0,0,1-.859,2.008,3.469,3.469,0,0,1-2.36.75,3.884,3.884,0,0,1-.718-.063,1.278,1.278,0,0,0-.829,1.1.561.561,0,0,0,.289.52,2.111,2.111,0,0,0,.993.168h1.515a3.4,3.4,0,0,1,2.137.585,2.038,2.038,0,0,1,.746,1.7,2.432,2.432,0,0,1-1.141,2.168,6.1,6.1,0,0,1-3.328.746,4.547,4.547,0,0,1-2.589-.625,2.019,2.019,0,0,1-.911-1.766,1.986,1.986,0,0,1,.5-1.352,2.56,2.56,0,0,1,1.407-.773,1.345,1.345,0,0,1-.551-.461,1.213,1.213,0,0,1-.223-.726,1.378,1.378,0,0,1,.25-.821,2.636,2.636,0,0,1,.789-.679,2.317,2.317,0,0,1-1.082-.93,2.731,2.731,0,0,1-.418-1.5,2.768,2.768,0,0,1,.844-2.168,3.442,3.442,0,0,1,2.391-.762,4.361,4.361,0,0,1,1.211.156Zm-6.828,10a1.163,1.163,0,0,0,.586,1.055,3.24,3.24,0,0,0,1.68.359,4.691,4.691,0,0,0,2.418-.488,1.5,1.5,0,0,0,.785-1.324,1.047,1.047,0,0,0-.43-.965,3.335,3.335,0,0,0-1.617-.269h-1.554a2.049,2.049,0,0,0-1.375.421A1.507,1.507,0,0,0,1083.67,6229.1Zm.7-7.257a1.745,1.745,0,0,0,.508,1.359,2.027,2.027,0,0,0,1.414.461,1.654,1.654,0,0,0,1.9-1.844,1.7,1.7,0,0,0-1.922-1.93,1.9,1.9,0,0,0-1.406.493A1.983,1.983,0,0,0,1084.373,6221.839Z"/>
      <path id="Trazado_9383" data-name="Trazado 9383" d="M1093.553,6227.659h-1.3V6215.5h1.3Z"/>
      <path id="Trazado_9384" data-name="Trazado 9384" d="M1101.569,6227.659l-.258-1.219h-.063a3.6,3.6,0,0,1-1.277,1.09,3.885,3.885,0,0,1-1.59.285,2.862,2.862,0,0,1-2-.656,2.393,2.393,0,0,1-.722-1.867q0-2.594,4.148-2.719l1.453-.047V6222a2.171,2.171,0,0,0-.433-1.488,1.785,1.785,0,0,0-1.387-.481,5.656,5.656,0,0,0-2.422.656l-.4-.992a6.1,6.1,0,0,1,1.387-.539,6.025,6.025,0,0,1,1.512-.195,3.262,3.262,0,0,1,2.269.679,2.837,2.837,0,0,1,.739,2.18v5.844Zm-2.93-.914a2.63,2.63,0,0,0,1.9-.664,2.458,2.458,0,0,0,.692-1.86v-.773l-1.3.055a4.712,4.712,0,0,0-2.23.48,1.45,1.45,0,0,0-.684,1.324,1.337,1.337,0,0,0,.426,1.071A1.764,1.764,0,0,0,1098.639,6226.745Z"/>
      <path id="Trazado_9385" data-name="Trazado 9385" d="M1116.116,6227.659v-5.57a2.312,2.312,0,0,0-.438-1.536,1.7,1.7,0,0,0-1.359-.511,2.195,2.195,0,0,0-1.789.695,3.3,3.3,0,0,0-.578,2.141v4.781h-1.3v-5.57a2.312,2.312,0,0,0-.438-1.536,1.7,1.7,0,0,0-1.367-.511,2.118,2.118,0,0,0-1.785.73,3.953,3.953,0,0,0-.567,2.4v4.492h-1.3V6219.1h1.054l.211,1.172h.063a2.546,2.546,0,0,1,1.035-.976,3.157,3.157,0,0,1,1.5-.352,2.545,2.545,0,0,1,2.625,1.453h.062a2.738,2.738,0,0,1,1.11-1.062,3.442,3.442,0,0,1,1.656-.391,2.9,2.9,0,0,1,2.176.746,3.338,3.338,0,0,1,.723,2.387v5.586Z"/>
      <path id="Trazado_9386" data-name="Trazado 9386" d="M1123.7,6227.815a3.931,3.931,0,0,1-3-1.156,4.476,4.476,0,0,1-1.1-3.211,4.967,4.967,0,0,1,1.019-3.289,3.387,3.387,0,0,1,2.739-1.219,3.23,3.23,0,0,1,2.547,1.059,4.056,4.056,0,0,1,.937,2.793v.82h-5.9a3.386,3.386,0,0,0,.761,2.289,2.634,2.634,0,0,0,2.035.781,6.885,6.885,0,0,0,2.735-.578v1.156a6.79,6.79,0,0,1-1.3.426A7.307,7.307,0,0,1,1123.7,6227.815Zm-.352-7.789a2.115,2.115,0,0,0-1.644.672,3.1,3.1,0,0,0-.723,1.859h4.476a2.857,2.857,0,0,0-.546-1.879A1.929,1.929,0,0,0,1123.35,6220.026Z"/>
      <path id="Trazado_9387" data-name="Trazado 9387" d="M1134.92,6227.659v-5.539a2.239,2.239,0,0,0-.476-1.563,1.943,1.943,0,0,0-1.492-.515,2.462,2.462,0,0,0-1.969.726,3.667,3.667,0,0,0-.625,2.4v4.492h-1.3V6219.1h1.055l.211,1.172h.062a2.651,2.651,0,0,1,1.117-.98,3.628,3.628,0,0,1,1.6-.348,3.254,3.254,0,0,1,2.328.746,3.176,3.176,0,0,1,.781,2.387v5.586Z"/>
      <path id="Trazado_9388" data-name="Trazado 9388" d="M1141.647,6226.745a4.2,4.2,0,0,0,.664-.051,4.374,4.374,0,0,0,.508-.1v.992a2.4,2.4,0,0,1-.621.168,4.71,4.71,0,0,1-.739.066q-2.484,0-2.484-2.617V6220.1h-1.227v-.625l1.227-.539.547-1.828h.75v1.984h2.484v1.008h-2.484v5.039a1.733,1.733,0,0,0,.367,1.188A1.279,1.279,0,0,0,1141.647,6226.745Z"/>
      <path id="Trazado_9389" data-name="Trazado 9389" d="M1151.92,6223.37a4.721,4.721,0,0,1-1.054,3.269,3.712,3.712,0,0,1-2.914,1.176,3.861,3.861,0,0,1-2.039-.539,3.548,3.548,0,0,1-1.375-1.547,5.388,5.388,0,0,1-.485-2.359,4.718,4.718,0,0,1,1.047-3.262,3.705,3.705,0,0,1,2.906-1.168,3.627,3.627,0,0,1,2.856,1.195A4.708,4.708,0,0,1,1151.92,6223.37Zm-6.523,0a4.068,4.068,0,0,0,.656,2.5,2.605,2.605,0,0,0,3.863,0,4.045,4.045,0,0,0,.661-2.5,3.981,3.981,0,0,0-.661-2.481,2.318,2.318,0,0,0-1.949-.847,2.283,2.283,0,0,0-1.922.836A4.025,4.025,0,0,0,1145.4,6223.37Z"/>
      <path id="Trazado_9390" data-name="Trazado 9390" d="M1159.717,6225.323a2.146,2.146,0,0,1-.89,1.844,4.19,4.19,0,0,1-2.5.648,5.445,5.445,0,0,1-2.657-.539v-1.2a6.435,6.435,0,0,0,1.325.492,5.508,5.508,0,0,0,1.363.18,3.087,3.087,0,0,0,1.562-.324,1.117,1.117,0,0,0,.114-1.844,6.816,6.816,0,0,0-1.692-.84,9.186,9.186,0,0,1-1.7-.777,2.324,2.324,0,0,1-.75-.754,1.967,1.967,0,0,1-.246-1.008,1.922,1.922,0,0,1,.851-1.652,3.969,3.969,0,0,1,2.336-.606,6.842,6.842,0,0,1,2.7.563l-.461,1.054a6.215,6.215,0,0,0-2.336-.531,2.7,2.7,0,0,0-1.391.289.9.9,0,0,0-.469.8.971.971,0,0,0,.176.586,1.735,1.735,0,0,0,.566.461,12.688,12.688,0,0,0,1.5.633,5.61,5.61,0,0,1,2.059,1.117A1.97,1.97,0,0,1,1159.717,6225.323Z"/>
    </g>
    <g id="Grupo_9163" data-name="Grupo 9163">
      <path id="Trazado_9391" data-name="Trazado 9391" d="M1108.97,6288.859h-1.329v-10.242h-3.617v-1.18h8.563v1.18h-3.617Z"/>
      <path id="Trazado_9392" data-name="Trazado 9392" d="M1117.727,6289.015a3.935,3.935,0,0,1-3-1.156,4.473,4.473,0,0,1-1.1-3.211,4.964,4.964,0,0,1,1.019-3.289,3.389,3.389,0,0,1,2.738-1.219,3.229,3.229,0,0,1,2.547,1.059,4.057,4.057,0,0,1,.938,2.793v.82h-5.9a3.39,3.39,0,0,0,.762,2.289,2.634,2.634,0,0,0,2.035.782,6.9,6.9,0,0,0,2.735-.579v1.157a6.817,6.817,0,0,1-1.3.425A7.317,7.317,0,0,1,1117.727,6289.015Zm-.351-7.789a2.119,2.119,0,0,0-1.645.672,3.092,3.092,0,0,0-.722,1.86h4.476a2.849,2.849,0,0,0-.547-1.879A1.923,1.923,0,0,0,1117.376,6281.226Z"/>
      <path id="Trazado_9393" data-name="Trazado 9393" d="M1128.61,6286.523a2.147,2.147,0,0,1-.89,1.844,4.186,4.186,0,0,1-2.5.648,5.434,5.434,0,0,1-2.657-.539v-1.2a6.355,6.355,0,0,0,1.325.492,5.531,5.531,0,0,0,1.363.18,3.092,3.092,0,0,0,1.562-.324,1.117,1.117,0,0,0,.114-1.844,6.819,6.819,0,0,0-1.692-.84,9.148,9.148,0,0,1-1.7-.777,2.318,2.318,0,0,1-.75-.754,1.964,1.964,0,0,1-.246-1.008,1.922,1.922,0,0,1,.851-1.652,3.973,3.973,0,0,1,2.336-.606,6.834,6.834,0,0,1,2.7.563l-.46,1.055a6.216,6.216,0,0,0-2.336-.532,2.7,2.7,0,0,0-1.391.289.894.894,0,0,0-.469.8.97.97,0,0,0,.176.586,1.718,1.718,0,0,0,.566.461,12.751,12.751,0,0,0,1.5.633,5.6,5.6,0,0,1,2.059,1.117A1.97,1.97,0,0,1,1128.61,6286.523Z"/>
      <path id="Trazado_9394" data-name="Trazado 9394" d="M1133.485,6287.945a4.649,4.649,0,0,0,1.172-.156v.992a2.358,2.358,0,0,1-.621.168,4.7,4.7,0,0,1-.738.066q-2.485,0-2.485-2.617V6281.3h-1.226v-.625l1.226-.539.547-1.828h.75v1.985h2.485v1.007h-2.485v5.039a1.733,1.733,0,0,0,.367,1.188A1.277,1.277,0,0,0,1133.485,6287.945Z"/>
      <path id="Trazado_9395" data-name="Trazado 9395" d="M1141.634,6288.859l-.258-1.219h-.063a3.6,3.6,0,0,1-1.277,1.09,3.9,3.9,0,0,1-1.59.285,2.858,2.858,0,0,1-2-.656,2.391,2.391,0,0,1-.723-1.867q0-2.594,4.149-2.719l1.453-.047v-.531a2.169,2.169,0,0,0-.434-1.488,1.78,1.78,0,0,0-1.386-.481,5.643,5.643,0,0,0-2.422.657l-.4-.993a6.13,6.13,0,0,1,1.387-.539,6.022,6.022,0,0,1,1.512-.2,3.261,3.261,0,0,1,2.269.68,2.836,2.836,0,0,1,.739,2.179v5.844Zm-2.93-.914a2.629,2.629,0,0,0,1.9-.664,2.456,2.456,0,0,0,.692-1.859v-.774l-1.3.055a4.72,4.72,0,0,0-2.231.48,1.452,1.452,0,0,0-.683,1.325,1.337,1.337,0,0,0,.426,1.07A1.762,1.762,0,0,0,1138.7,6287.945Z"/>
      <path id="Trazado_9396" data-name="Trazado 9396" d="M1156.18,6288.859v-5.57a2.311,2.311,0,0,0-.437-1.535,1.694,1.694,0,0,0-1.359-.512,2.2,2.2,0,0,0-1.789.695,3.3,3.3,0,0,0-.579,2.141v4.781h-1.3v-5.57a2.311,2.311,0,0,0-.438-1.535,1.7,1.7,0,0,0-1.367-.512,2.117,2.117,0,0,0-1.785.73,3.953,3.953,0,0,0-.567,2.4v4.492h-1.3V6280.3h1.055l.211,1.171h.063a2.538,2.538,0,0,1,1.035-.976,3.161,3.161,0,0,1,1.5-.352,2.546,2.546,0,0,1,2.625,1.453h.062a2.738,2.738,0,0,1,1.11-1.062,3.447,3.447,0,0,1,1.656-.391,2.9,2.9,0,0,1,2.176.746,3.342,3.342,0,0,1,.722,2.387v5.586Z"/>
      <path id="Trazado_9397" data-name="Trazado 9397" d="M1163.766,6289.015a3.934,3.934,0,0,1-3-1.156,4.477,4.477,0,0,1-1.1-3.211,4.969,4.969,0,0,1,1.019-3.289,3.389,3.389,0,0,1,2.738-1.219,3.229,3.229,0,0,1,2.547,1.059,4.057,4.057,0,0,1,.938,2.793v.82h-5.9a3.39,3.39,0,0,0,.762,2.289,2.634,2.634,0,0,0,2.035.782,6.894,6.894,0,0,0,2.735-.579v1.157a6.814,6.814,0,0,1-1.3.425A7.31,7.31,0,0,1,1163.766,6289.015Zm-.351-7.789a2.119,2.119,0,0,0-1.645.672,3.1,3.1,0,0,0-.722,1.86h4.476a2.849,2.849,0,0,0-.547-1.879A1.923,1.923,0,0,0,1163.415,6281.226Z"/>
      <path id="Trazado_9398" data-name="Trazado 9398" d="M1174.985,6288.859v-5.539a2.236,2.236,0,0,0-.476-1.562,1.944,1.944,0,0,0-1.493-.516,2.461,2.461,0,0,0-1.968.726,3.672,3.672,0,0,0-.625,2.4v4.492h-1.3V6280.3h1.054l.211,1.171h.063a2.661,2.661,0,0,1,1.117-.98,3.641,3.641,0,0,1,1.6-.348,3.254,3.254,0,0,1,2.328.746,3.175,3.175,0,0,1,.781,2.387v5.586Z"/>
      <path id="Trazado_9399" data-name="Trazado 9399" d="M1181.712,6287.945a4.2,4.2,0,0,0,.664-.051,4.253,4.253,0,0,0,.507-.1v.992a2.335,2.335,0,0,1-.621.168,4.686,4.686,0,0,1-.738.066q-2.484,0-2.484-2.617V6281.3h-1.227v-.625l1.227-.539.547-1.828h.75v1.985h2.484v1.007h-2.484v5.039a1.733,1.733,0,0,0,.367,1.188A1.278,1.278,0,0,0,1181.712,6287.945Z"/>
      <path id="Trazado_9400" data-name="Trazado 9400" d="M1191.985,6284.57a4.725,4.725,0,0,1-1.055,3.27,3.712,3.712,0,0,1-2.914,1.175,3.857,3.857,0,0,1-2.039-.539,3.554,3.554,0,0,1-1.375-1.547,5.387,5.387,0,0,1-.484-2.359,4.717,4.717,0,0,1,1.047-3.262,3.7,3.7,0,0,1,2.906-1.168,3.621,3.621,0,0,1,2.855,1.2A4.7,4.7,0,0,1,1191.985,6284.57Zm-6.523,0a4.06,4.06,0,0,0,.656,2.5,2.6,2.6,0,0,0,3.863,0,4.045,4.045,0,0,0,.66-2.5,3.978,3.978,0,0,0-.66-2.48,2.32,2.32,0,0,0-1.949-.848,2.283,2.283,0,0,0-1.922.836A4.022,4.022,0,0,0,1185.462,6284.57Z"/>
      <path id="Trazado_9401" data-name="Trazado 9401" d="M1199.782,6286.523a2.145,2.145,0,0,1-.891,1.844,4.182,4.182,0,0,1-2.5.648,5.432,5.432,0,0,1-2.656-.539v-1.2a6.367,6.367,0,0,0,1.324.492,5.544,5.544,0,0,0,1.364.18,3.092,3.092,0,0,0,1.562-.324,1.116,1.116,0,0,0,.113-1.844,6.808,6.808,0,0,0-1.691-.84,9.148,9.148,0,0,1-1.7-.777,2.318,2.318,0,0,1-.75-.754,1.964,1.964,0,0,1-.246-1.008,1.922,1.922,0,0,1,.851-1.652,3.973,3.973,0,0,1,2.336-.606,6.834,6.834,0,0,1,2.7.563l-.461,1.055a6.208,6.208,0,0,0-2.336-.532,2.693,2.693,0,0,0-1.39.289.894.894,0,0,0-.469.8.97.97,0,0,0,.176.586,1.718,1.718,0,0,0,.566.461,12.751,12.751,0,0,0,1.5.633,5.6,5.6,0,0,1,2.059,1.117A1.97,1.97,0,0,1,1199.782,6286.523Z"/>
      <path id="Trazado_9402" data-name="Trazado 9402" d="M1121.86,6297.661a3.733,3.733,0,0,0-2.972,1.254,5.055,5.055,0,0,0-1.09,3.433,5.161,5.161,0,0,0,1.05,3.465,3.735,3.735,0,0,0,3,1.223,10.209,10.209,0,0,0,2.726-.43v1.164a8.4,8.4,0,0,1-2.93.446,4.955,4.955,0,0,1-3.894-1.532,6.3,6.3,0,0,1-1.371-4.351,6.873,6.873,0,0,1,.66-3.094,4.744,4.744,0,0,1,1.906-2.047,5.773,5.773,0,0,1,2.934-.719,7.066,7.066,0,0,1,3.14.657l-.562,1.14A6.054,6.054,0,0,0,1121.86,6297.661Z"/>
      <path id="Trazado_9403" data-name="Trazado 9403" d="M1134.259,6303.77a4.726,4.726,0,0,1-1.055,3.27,3.714,3.714,0,0,1-2.914,1.176,3.859,3.859,0,0,1-2.039-.539,3.559,3.559,0,0,1-1.375-1.547,5.39,5.39,0,0,1-.485-2.36,4.715,4.715,0,0,1,1.047-3.261,3.7,3.7,0,0,1,2.907-1.168,3.621,3.621,0,0,1,2.855,1.2A4.7,4.7,0,0,1,1134.259,6303.77Zm-6.524,0a4.065,4.065,0,0,0,.656,2.5,2.6,2.6,0,0,0,3.864,0,4.043,4.043,0,0,0,.66-2.5,3.979,3.979,0,0,0-.66-2.48,2.321,2.321,0,0,0-1.95-.848,2.282,2.282,0,0,0-1.921.836A4.02,4.02,0,0,0,1127.735,6303.77Z"/>
      <path id="Trazado_9404" data-name="Trazado 9404" d="M1142.391,6308.059v-5.539a2.239,2.239,0,0,0-.476-1.562,1.94,1.94,0,0,0-1.492-.516,2.46,2.46,0,0,0-1.969.727,3.665,3.665,0,0,0-.625,2.4v4.492h-1.3V6299.5h1.055l.211,1.172h.062a2.653,2.653,0,0,1,1.117-.981,3.641,3.641,0,0,1,1.6-.347,3.254,3.254,0,0,1,2.328.746,3.174,3.174,0,0,1,.781,2.386v5.586Z"/>
      <path id="Trazado_9405" data-name="Trazado 9405" d="M1149.118,6307.145a4.145,4.145,0,0,0,.664-.051,4.036,4.036,0,0,0,.508-.105v.992a2.36,2.36,0,0,1-.621.168,4.718,4.718,0,0,1-.739.067q-2.484,0-2.484-2.618V6300.5h-1.226v-.625l1.226-.539.547-1.829h.75v1.985h2.484v1.008h-2.484v5.039a1.732,1.732,0,0,0,.367,1.187A1.276,1.276,0,0,0,1149.118,6307.145Z"/>
      <path id="Trazado_9406" data-name="Trazado 9406" d="M1155.907,6299.341a5.109,5.109,0,0,1,1.023.093l-.179,1.2a4.419,4.419,0,0,0-.938-.117,2.284,2.284,0,0,0-1.777.844,3.079,3.079,0,0,0-.738,2.1v4.593H1152V6299.5h1.07l.149,1.586h.062a3.768,3.768,0,0,1,1.148-1.289A2.59,2.59,0,0,1,1155.907,6299.341Z"/>
      <path id="Trazado_9407" data-name="Trazado 9407" d="M1163.8,6308.059l-.258-1.218h-.063a3.6,3.6,0,0,1-1.277,1.089,3.9,3.9,0,0,1-1.59.286,2.858,2.858,0,0,1-2-.657,2.391,2.391,0,0,1-.723-1.867q0-2.594,4.149-2.719l1.453-.046v-.532a2.169,2.169,0,0,0-.434-1.488,1.782,1.782,0,0,0-1.386-.48,5.642,5.642,0,0,0-2.422.656l-.4-.992a6.105,6.105,0,0,1,1.387-.539,6.027,6.027,0,0,1,1.512-.2,3.26,3.26,0,0,1,2.269.68,2.834,2.834,0,0,1,.739,2.18v5.843Zm-2.93-.914a2.631,2.631,0,0,0,1.9-.664,2.455,2.455,0,0,0,.692-1.859v-.774l-1.3.055a4.731,4.731,0,0,0-2.231.481,1.45,1.45,0,0,0-.683,1.324,1.334,1.334,0,0,0,.426,1.07A1.762,1.762,0,0,0,1160.868,6307.145Z"/>
      <path id="Trazado_9408" data-name="Trazado 9408" d="M1170.2,6307.145a4.136,4.136,0,0,0,.664-.051,4.036,4.036,0,0,0,.508-.105v.992a2.36,2.36,0,0,1-.621.168,4.716,4.716,0,0,1-.738.067q-2.485,0-2.485-2.618V6300.5H1166.3v-.625l1.226-.539.547-1.829h.75v1.985h2.484v1.008h-2.484v5.039a1.732,1.732,0,0,0,.367,1.187A1.276,1.276,0,0,0,1170.2,6307.145Z"/>
      <path id="Trazado_9409" data-name="Trazado 9409" d="M1180.469,6303.77a4.725,4.725,0,0,1-1.054,3.27,3.714,3.714,0,0,1-2.914,1.176,3.856,3.856,0,0,1-2.039-.539,3.559,3.559,0,0,1-1.375-1.547,5.39,5.39,0,0,1-.485-2.36,4.715,4.715,0,0,1,1.047-3.261,3.7,3.7,0,0,1,2.906-1.168,3.622,3.622,0,0,1,2.856,1.2A4.7,4.7,0,0,1,1180.469,6303.77Zm-6.523,0a4.065,4.065,0,0,0,.656,2.5,2.6,2.6,0,0,0,3.864,0,4.042,4.042,0,0,0,.66-2.5,3.978,3.978,0,0,0-.66-2.48,2.321,2.321,0,0,0-1.95-.848,2.282,2.282,0,0,0-1.921.836A4.02,4.02,0,0,0,1173.946,6303.77Z"/>
      <path id="Trazado_9410" data-name="Trazado 9410" d="M1188.266,6305.723a2.146,2.146,0,0,1-.89,1.844,4.181,4.181,0,0,1-2.5.649,5.439,5.439,0,0,1-2.657-.539v-1.2a6.384,6.384,0,0,0,1.325.493,5.506,5.506,0,0,0,1.363.179,3.087,3.087,0,0,0,1.562-.324,1.117,1.117,0,0,0,.114-1.844,6.854,6.854,0,0,0-1.692-.84,9.078,9.078,0,0,1-1.7-.777,2.312,2.312,0,0,1-.75-.754,1.965,1.965,0,0,1-.246-1.008,1.922,1.922,0,0,1,.852-1.652,3.971,3.971,0,0,1,2.335-.6,6.841,6.841,0,0,1,2.7.562l-.461,1.055a6.21,6.21,0,0,0-2.336-.531,2.688,2.688,0,0,0-1.391.289.894.894,0,0,0-.469.8.97.97,0,0,0,.176.586,1.718,1.718,0,0,0,.567.461,12.54,12.54,0,0,0,1.5.633,5.612,5.612,0,0,1,2.058,1.117A1.969,1.969,0,0,1,1188.266,6305.723Z"/>
      <path id="Trazado_9411" data-name="Trazado 9411" d="M1120.106,6324.22a2.8,2.8,0,0,1-1.093,2.352,4.748,4.748,0,0,1-2.969.843,7.434,7.434,0,0,1-3.125-.523v-1.281a8.183,8.183,0,0,0,1.531.468,8.045,8.045,0,0,0,1.641.172,3.311,3.311,0,0,0,2-.5,1.653,1.653,0,0,0,.672-1.4,1.8,1.8,0,0,0-.239-.973,2.225,2.225,0,0,0-.8-.7,11.2,11.2,0,0,0-1.7-.726,5.416,5.416,0,0,1-2.277-1.352,2.983,2.983,0,0,1-.684-2.039,2.538,2.538,0,0,1,.992-2.1,4.13,4.13,0,0,1,2.625-.781,7.746,7.746,0,0,1,3.133.625l-.414,1.156a7.093,7.093,0,0,0-2.75-.593,2.661,2.661,0,0,0-1.648.453,1.493,1.493,0,0,0-.594,1.258,1.922,1.922,0,0,0,.219.972,2.042,2.042,0,0,0,.738.695,9.072,9.072,0,0,0,1.59.7,6.287,6.287,0,0,1,2.472,1.375A2.7,2.7,0,0,1,1120.106,6324.22Z"/>
      <path id="Trazado_9412" data-name="Trazado 9412" d="M1125.864,6327.415a3.933,3.933,0,0,1-3-1.156,4.473,4.473,0,0,1-1.1-3.211,4.964,4.964,0,0,1,1.02-3.289,3.387,3.387,0,0,1,2.738-1.219,3.229,3.229,0,0,1,2.547,1.059,4.058,4.058,0,0,1,.938,2.793v.82h-5.9a3.39,3.39,0,0,0,.762,2.289,2.633,2.633,0,0,0,2.035.781,6.889,6.889,0,0,0,2.734-.578v1.157a6.841,6.841,0,0,1-1.3.425A7.317,7.317,0,0,1,1125.864,6327.415Zm-.351-7.789a2.119,2.119,0,0,0-1.645.672,3.1,3.1,0,0,0-.723,1.859h4.477a2.849,2.849,0,0,0-.547-1.878A1.926,1.926,0,0,0,1125.513,6319.626Z"/>
      <path id="Trazado_9413" data-name="Trazado 9413" d="M1137.083,6327.259v-5.539a2.234,2.234,0,0,0-.477-1.563,1.942,1.942,0,0,0-1.492-.515,2.462,2.462,0,0,0-1.969.726,3.675,3.675,0,0,0-.625,2.4v4.492h-1.3V6318.7h1.055l.211,1.171h.063a2.648,2.648,0,0,1,1.117-.98,3.62,3.62,0,0,1,1.6-.348,3.251,3.251,0,0,1,2.328.746,3.176,3.176,0,0,1,.782,2.387v5.586Z"/>
      <path id="Trazado_9414" data-name="Trazado 9414" d="M1143.809,6326.345a4.184,4.184,0,0,0,.664-.051,4.434,4.434,0,0,0,.508-.1v.992a2.375,2.375,0,0,1-.621.168,4.688,4.688,0,0,1-.738.066q-2.484,0-2.484-2.617V6319.7h-1.227v-.625l1.227-.539.546-1.828h.75v1.985h2.485v1.007h-2.485v5.039a1.735,1.735,0,0,0,.368,1.188A1.276,1.276,0,0,0,1143.809,6326.345Z"/>
      <path id="Trazado_9415" data-name="Trazado 9415" d="M1150.309,6327.415a3.934,3.934,0,0,1-3-1.156,4.473,4.473,0,0,1-1.1-3.211,4.964,4.964,0,0,1,1.019-3.289,3.389,3.389,0,0,1,2.738-1.219,3.229,3.229,0,0,1,2.547,1.059,4.058,4.058,0,0,1,.938,2.793v.82h-5.9a3.39,3.39,0,0,0,.762,2.289,2.634,2.634,0,0,0,2.035.781,6.893,6.893,0,0,0,2.735-.578v1.157a6.85,6.85,0,0,1-1.3.425A7.312,7.312,0,0,1,1150.309,6327.415Zm-.351-7.789a2.119,2.119,0,0,0-1.645.672,3.1,3.1,0,0,0-.722,1.859h4.476a2.849,2.849,0,0,0-.547-1.878A1.924,1.924,0,0,0,1149.958,6319.626Z"/>
      <path id="Trazado_9416" data-name="Trazado 9416" d="M1161.528,6327.259v-5.539a2.239,2.239,0,0,0-.476-1.563,1.946,1.946,0,0,0-1.493-.515,2.459,2.459,0,0,0-1.968.726,3.669,3.669,0,0,0-.625,2.4v4.492h-1.3V6318.7h1.054l.211,1.171H1157a2.654,2.654,0,0,1,1.117-.98,3.621,3.621,0,0,1,1.6-.348,3.254,3.254,0,0,1,2.328.746,3.176,3.176,0,0,1,.781,2.387v5.586Z"/>
      <path id="Trazado_9417" data-name="Trazado 9417" d="M1168.911,6327.415a3.654,3.654,0,0,1-2.879-1.144,4.707,4.707,0,0,1-1.019-3.239,4.85,4.85,0,0,1,1.035-3.32,3.728,3.728,0,0,1,2.949-1.172,5.892,5.892,0,0,1,1.234.133,4.1,4.1,0,0,1,.969.313l-.4,1.1a6.274,6.274,0,0,0-.938-.285,4.238,4.238,0,0,0-.9-.113q-2.61,0-2.61,3.328a3.961,3.961,0,0,0,.637,2.422,2.215,2.215,0,0,0,1.887.843,5.771,5.771,0,0,0,2.195-.46v1.148A4.678,4.678,0,0,1,1168.911,6327.415Z"/>
      <path id="Trazado_9418" data-name="Trazado 9418" d="M1173,6316.376a.859.859,0,0,1,.219-.652.81.81,0,0,1,1.086,0,.845.845,0,0,1,.226.648.861.861,0,0,1-.226.653.759.759,0,0,1-.539.214.748.748,0,0,1-.547-.214A.879.879,0,0,1,1173,6316.376Zm1.406,10.883h-1.3V6318.7h1.3Z"/>
      <path id="Trazado_9419" data-name="Trazado 9419" d="M1182.419,6327.259l-.258-1.219h-.063a3.589,3.589,0,0,1-1.277,1.09,3.894,3.894,0,0,1-1.59.285,2.858,2.858,0,0,1-2-.656,2.392,2.392,0,0,1-.723-1.867q0-2.594,4.149-2.719l1.453-.047v-.531a2.17,2.17,0,0,0-.434-1.488,1.781,1.781,0,0,0-1.386-.481,5.656,5.656,0,0,0-2.422.656l-.4-.992a6.148,6.148,0,0,1,1.387-.539,6.026,6.026,0,0,1,1.512-.195,3.257,3.257,0,0,1,2.269.68,2.836,2.836,0,0,1,.739,2.179v5.844Zm-2.93-.914a2.631,2.631,0,0,0,1.9-.664,2.457,2.457,0,0,0,.692-1.859v-.774l-1.3.055a4.726,4.726,0,0,0-2.231.48,1.451,1.451,0,0,0-.683,1.324,1.337,1.337,0,0,0,.426,1.071A1.764,1.764,0,0,0,1179.489,6326.345Z"/>
      <path id="Trazado_9420" data-name="Trazado 9420" d="M1191.575,6324.923a2.145,2.145,0,0,1-.891,1.844,4.186,4.186,0,0,1-2.5.648,5.432,5.432,0,0,1-2.656-.539v-1.2a6.366,6.366,0,0,0,1.324.492,5.521,5.521,0,0,0,1.364.18,3.092,3.092,0,0,0,1.562-.324,1.116,1.116,0,0,0,.113-1.844,6.823,6.823,0,0,0-1.691-.84,9.217,9.217,0,0,1-1.7-.777,2.324,2.324,0,0,1-.75-.754,1.968,1.968,0,0,1-.246-1.008,1.922,1.922,0,0,1,.851-1.652,3.969,3.969,0,0,1,2.336-.606,6.834,6.834,0,0,1,2.7.563l-.461,1.054a6.206,6.206,0,0,0-2.336-.531,2.693,2.693,0,0,0-1.39.289.894.894,0,0,0-.469.8.968.968,0,0,0,.176.586,1.716,1.716,0,0,0,.566.461,12.666,12.666,0,0,0,1.5.633,5.612,5.612,0,0,1,2.059,1.117A1.971,1.971,0,0,1,1191.575,6324.923Z"/>
    </g>
  </g>
</svg>
