<svg xmlns="http://www.w3.org/2000/svg" width="121.396" height="121.494" viewBox="0 0 121.396 121.494">
  <g id="Grupo_9150" data-name="Grupo 9150" transform="translate(-882.752 -5094.187)">
    <path id="Trazado_9206" data-name="Trazado 9206" d="M913.942,5191.735a2.4,2.4,0,0,0,2.1-2.366l.047-10.946,16.725.07-.046,10.946a2.393,2.393,0,0,0,2.076,2.383s3.089,10.556-10.494,10.5-10.405-10.585-10.405-10.585Zm0,0" transform="translate(-6.541 -17.852)" fill="#ffcebf"/>
    <path id="Trazado_9207" data-name="Trazado 9207" d="M917.159,5175.6a16.412,16.412,0,0,0,4.461-2.739,13.9,13.9,0,0,0,4.757-10.248L926.4,5145l.013-8.752a15.048,15.048,0,0,0-14.059,3.306,13.835,13.835,0,0,0-4.73,10.492l-.011,2.84-.006,1.188-1.012,0a2.686,2.686,0,0,0-2.7,2.675l-.012,2.976a2.685,2.685,0,0,0,2.673,2.7l1.016,0a13.809,13.809,0,0,0,4.638,10.217,16.127,16.127,0,0,0,5.182,3.058c-.08-.031-.161-.063-.24-.1Zm0,0" transform="translate(-4.48 -8.798)" fill="#ffdfcf"/>
    <path id="Trazado_9208" data-name="Trazado 9208" d="M941.758,5154.312l-1.012,0,0-1.189.013-2.839a13.838,13.838,0,0,0-4.641-10.533,15.829,15.829,0,0,0-6.725-3.508l-.041,26.416a13.8,13.8,0,0,1-4.724,10.177,16.3,16.3,0,0,1-4.431,2.72,15.4,15.4,0,0,0,5.611,1.129,15.549,15.549,0,0,0,10.17-3.849,13.806,13.806,0,0,0,4.724-10.177l1.016,0a2.687,2.687,0,0,0,2.7-2.675l.013-2.976a2.687,2.687,0,0,0-2.675-2.7Zm0,0" transform="translate(-7.936 -8.912)" fill="#ffcebf"/>
    <path id="Trazado_9209" data-name="Trazado 9209" d="M936.093,5214.6a12.137,12.137,0,0,0-7.153-11.119,43.926,43.926,0,0,0-8.917-2.455l-1.4.867-10.422-6.58c-3.561.446-10.8,1.514-14.628,3.2a11.642,11.642,0,0,0-6.952,10.609l-.08,19.228h49.493Zm0,0" transform="translate(-0.803 -21.431)" fill="#8ac9fe"/>
    <path id="Trazado_9210" data-name="Trazado 9210" d="M952.561,5198.836c-2.973-1.338-8.01-2.318-11.775-2.913a7.61,7.61,0,0,0-5.19,1.052l-7.264,4.5a44.169,44.169,0,0,1,9.131,2.463,11.642,11.642,0,0,1,6.863,10.667l-.058,13.856h15.077l.08-18.958a11.647,11.647,0,0,0-6.864-10.667Zm0,0" transform="translate(-9.659 -21.541)" fill="#6dc0fe"/>
    <path id="Trazado_9211" data-name="Trazado 9211" d="M922.473,5145.212l.82,0a11.981,11.981,0,0,0,3.506-.546l.013-9.638a.445.445,0,0,0-.442-.445l-9.223-.04a11.311,11.311,0,0,0-11.358,11.263l-.035,8.307a5.868,5.868,0,0,1,3.454,1.164.95.95,0,0,0,.659.218l1.578-.088a.958.958,0,0,0,.9-.952l.024-6.005a4.238,4.238,0,0,1,4.254-4.219h.05a6.853,6.853,0,0,1,2.1.339,12.05,12.05,0,0,0,3.7.637Zm0,0" transform="translate(-4.875 -8.554)" fill="#aa8080"/>
    <path id="Trazado_9212" data-name="Trazado 9212" d="M940.612,5139.087a1.8,1.8,0,0,1-1.689-1.22,4.882,4.882,0,0,0-4.581-3.26l-2.474-.009-.017,10.216c.225-.061.45-.124.673-.194a6.815,6.815,0,0,1,2.1-.321h.05a4.235,4.235,0,0,1,4.218,4.254l-.028,6.738a.484.484,0,0,0,.824.345c1.464-1.433,5.777-1.363,5.777-1.363l.043-10.25a4.917,4.917,0,0,0-4.9-4.936Zm0,0" transform="translate(-10.405 -8.564)" fill="#9d6b6b"/>
    <path id="Trazado_9213" data-name="Trazado 9213" d="M944.955,5196.627l-7.034,9.063a3.656,3.656,0,0,1-5.168.616l-5.5-4.388,10.477-6.492c1.783.24,4.489.642,7.224,1.2Zm0,0" transform="translate(-9.431 -21.455)" fill="#6dc0fe"/>
    <path id="Trazado_9214" data-name="Trazado 9214" d="M904.85,5196.454l6.97,9.136a3.656,3.656,0,0,0,5.17.653l5.517-4.348-10.422-6.58c-1.786.223-4.494.6-7.234,1.139Zm0,0" transform="translate(-4.683 -21.431)" fill="#6dc0fe"/>
    <path id="Trazado_9215" data-name="Trazado 9215" d="M925.823,5203.664l5.254,4.193-2.836,4.193-4.889-.021-2.849-4.172Zm0,0" transform="translate(-8 -23.201)" fill="#fb636f"/>
    <path id="Trazado_9216" data-name="Trazado 9216" d="M920.563,5232.372l2.793-18.093,4.889.021,2.634,18.071Zm0,0" transform="translate(-8.013 -25.45)" fill="#fc8086"/>
    <path id="Trazado_9217" data-name="Trazado 9217" d="M899.3,5235.973h-.009a1.833,1.833,0,0,1-1.826-1.84l.036-8.622a1.834,1.834,0,0,1,1.834-1.826h.008a1.832,1.832,0,0,1,1.825,1.841l-.036,8.622a1.832,1.832,0,0,1-1.832,1.825Zm0,0" transform="translate(-3.119 -27.444)" fill="#6dc0fe"/>
    <path id="Trazado_9218" data-name="Trazado 9218" d="M1002.834,5204.542v-28.376a3.215,3.215,0,0,0-3.212-3.214H962.879a3.214,3.214,0,0,0-3.215,3.214v28.376a3.214,3.214,0,0,0,3.215,3.214h36.743a3.216,3.216,0,0,0,3.212-3.214Zm0,0" transform="translate(-16.299 -16.692)" fill="#f6f9f9"/>
    <path id="Trazado_9219" data-name="Trazado 9219" d="M1024.764,5172.951h-15.021a3.215,3.215,0,0,1,3.215,3.214v28.376a3.215,3.215,0,0,1-3.215,3.214h15.021a3.215,3.215,0,0,0,3.215-3.214v-28.376a3.215,3.215,0,0,0-3.215-3.214Zm0,0" transform="translate(-26.912 -16.692)" fill="#e7ecf1"/>
    <path id="Trazado_9220" data-name="Trazado 9220" d="M988.935,5235.684H1000.5l-2.232-21.916a1.859,1.859,0,0,0-1.849-1.669h-3.405a1.858,1.858,0,0,0-1.848,1.669Zm0,0" transform="translate(-22.503 -24.988)" fill="#e7ecf1"/>
    <path id="Trazado_9221" data-name="Trazado 9221" d="M983.208,5239.142H1003.8v-8.461a2.266,2.266,0,0,0-2.266-2.266h-16.06a2.266,2.266,0,0,0-2.266,2.266Zm0,0" transform="translate(-21.289 -28.446)" fill="#f6f9f9"/>
    <path id="Trazado_9222" data-name="Trazado 9222" d="M989.246,5244.192v-6.125a1.634,1.634,0,0,0-1.633-1.634H884.385a1.634,1.634,0,0,0-1.633,1.634v6.125a1.634,1.634,0,0,0,1.633,1.633H987.614a1.634,1.634,0,0,0,1.633-1.633Zm0,0" transform="translate(0 -30.145)" fill="#aa8080"/>
    <path id="Trazado_9223" data-name="Trazado 9223" d="M1030.561,5236.435h-15.02a1.632,1.632,0,0,1,1.632,1.633v6.125a1.632,1.632,0,0,1-1.632,1.633h15.02a1.632,1.632,0,0,0,1.632-1.633v-6.125a1.632,1.632,0,0,0-1.632-1.633Zm0,0" transform="translate(-28.141 -30.146)" fill="#9d6b6b"/>
    <path id="Trazado_9224" data-name="Trazado 9224" d="M1000,5190.993a5.1,5.1,0,1,1-5.1-5.1,5.1,5.1,0,0,1,5.1,5.1Zm0,0" transform="translate(-22.687 -19.435)" fill="#7c8b96"/>
    <path id="Trazado_9225" data-name="Trazado 9225" d="M1010.733,5115.953a21.913,21.913,0,0,0-13.348-20.172,1.124,1.124,0,0,0-.814-.024,21.456,21.456,0,0,0,0,40.391,1.116,1.116,0,0,0,.814-.023,21.912,21.912,0,0,0,13.348-20.171Zm0,0" transform="translate(-21.109 -0.319)" fill="#f6e266"/>
    <path id="Trazado_9226" data-name="Trazado 9226" d="M1007.556,5094.186a21.379,21.379,0,0,0-7.516,1.355,21.454,21.454,0,0,1,0,40.185,21.449,21.449,0,1,0,7.516-41.54Zm0,0" transform="translate(-24.856)" fill="#ffd064"/>
    <path id="Trazado_9227" data-name="Trazado 9227" d="M1020.565,5117.359a15.031,15.031,0,1,1-15.03-15.031,15.03,15.03,0,0,1,15.03,15.031Zm0,0" transform="translate(-22.835 -1.725)" fill="#f5f5f5"/>
    <path id="Trazado_9228" data-name="Trazado 9228" d="M1009.737,5120.395a2.488,2.488,0,0,1-2.486-2.485v-8.074a1.833,1.833,0,1,1,3.665,0v6.893l3.211,0a1.834,1.834,0,0,1,0,3.667Zm0,0" transform="translate(-26.384 -2.928)" fill="#8c9ba6"/>
  </g>
</svg>
