<svg xmlns="http://www.w3.org/2000/svg" width="109.007" height="134.17" viewBox="0 0 109.007 134.17">
  <g id="Grupo_9155" data-name="Grupo 9155" transform="translate(-1186.919 -4837.754)">
    <path id="Trazado_9291" data-name="Trazado 9291" d="M1279.39,4922.318a48.216,48.216,0,1,0-79.9-36.347c0,.555.01,1.124.033,1.725a2.019,2.019,0,0,0-.033.372v5.794l-12.357,24.714a2.117,2.117,0,0,0,1.212,2.925l11.145,3.716v21.549a2.1,2.1,0,0,0,2.1,2.1h27.6l3.881,21.338a2.1,2.1,0,0,0,2.062,1.722h53.72a2.117,2.117,0,0,0,2.037-2.594Zm0,0" transform="translate(0 0)" fill="#ffdfcf"/>
    <path id="Trazado_9292" data-name="Trazado 9292" d="M1276.073,4863.878a14.5,14.5,0,0,0-11.786-2.065c-4.088.963-8.144,3.448-12.081,7.4-3.938-3.953-7.994-6.437-12.082-7.4a14.5,14.5,0,0,0-11.787,2.065c-7.657,5.217-9.968,16.679-5.26,26.094,8.673,17.349,27.662,23.844,28.465,24.111a2.1,2.1,0,0,0,1.327,0c.8-.267,19.791-6.763,28.465-24.111,4.706-9.415,2.4-20.877-5.26-26.094Zm0,0" transform="translate(-4.374 -3.064)" fill="#ff97a4"/>
    <path id="Trazado_9293" data-name="Trazado 9293" d="M1231.223,4889.973c-4.707-9.415-2.4-20.877,5.26-26.094a14.4,14.4,0,0,1,4.1-1.945c-.154-.04-.308-.083-.462-.12a14.5,14.5,0,0,0-11.787,2.065c-7.657,5.217-9.968,16.679-5.26,26.094,8.673,17.349,27.662,23.844,28.465,24.111a2.1,2.1,0,0,0,1.327,0c.2-.065,1.47-.5,3.409-1.37-6.029-2.7-18.492-9.615-25.054-22.741Zm0,0" transform="translate(-4.374 -3.064)" fill="#ff7d8d"/>
    <path id="Trazado_9294" data-name="Trazado 9294" d="M1290.585,4968.486h-47.062a2.1,2.1,0,0,1-2.063-1.722l-3.88-21.338h-27.6a2.1,2.1,0,0,1-2.1-2.1v-21.549l-11.145-3.715a2.118,2.118,0,0,1-1.211-2.926l12.356-24.714v-5.794a2.068,2.068,0,0,1,.033-.371c-.022-.6-.033-1.17-.033-1.726a48.234,48.234,0,0,1,24.165-41.763,48.29,48.29,0,0,0-32.557,45.592c0,.555.011,1.124.033,1.725a2.085,2.085,0,0,0-.033.372v5.793l-12.358,24.715a2.118,2.118,0,0,0,1.213,2.926l11.145,3.716v21.549a2.1,2.1,0,0,0,2.1,2.1h27.6l3.88,21.339a2.1,2.1,0,0,0,2.063,1.721h53.721a2.117,2.117,0,0,0,2.036-2.594Z" transform="translate(0 -0.391)" fill="#ffcebf"/>
  </g>
</svg>
