<svg xmlns="http://www.w3.org/2000/svg" width="119.364" height="117" viewBox="0 0 119.364 117">
  <g id="Grupo_9136" data-name="Grupo 9136" transform="translate(0 -4.5)">
    <circle id="Elipse_20" data-name="Elipse 20" cx="57" cy="57" r="57" transform="translate(0 7.5)" fill="#91e0e8"/>
    <path id="Trazado_8533" data-name="Trazado 8533" d="M13.289,159.831H5.246A56.9,56.9,0,0,0,0,183.766q0,1.522.08,3.026H13.289Z" transform="translate(0 -119.118)" fill="#445ea0"/>
    <path id="Trazado_8534" data-name="Trazado 8534" d="M398.892,338.75h-5.011V357.6h5.011a2.338,2.338,0,0,0,2.331-2.331V341.081A2.338,2.338,0,0,0,398.892,338.75Z" transform="translate(-302.055 -256.326)" fill="#293d7c"/>
    <path id="Trazado_8535" data-name="Trazado 8535" d="M281.707,297.134v20.607l19.288,11.508V285.626Z" transform="translate(-216.032 -215.587)" fill="#eef6ff"/>
    <path id="Trazado_8536" data-name="Trazado 8536" d="M370.771,316.972a1.169,1.169,0,0,1-1.166,1.166h-5a1.169,1.169,0,0,1-1.166-1.166v-51a1.169,1.169,0,0,1,1.166-1.166h5a1.169,1.169,0,0,1,1.166,1.166Z" transform="translate(-278.711 -199.621)" fill="#fe3745"/>
    <path id="Trazado_8537" data-name="Trazado 8537" d="M367.444,316.972v-51a1.169,1.169,0,0,1,1.166-1.166h-4a1.169,1.169,0,0,0-1.166,1.166v51a1.169,1.169,0,0,0,1.166,1.166h4A1.169,1.169,0,0,1,367.444,316.972Z" transform="translate(-278.71 -199.621)" fill="#b7092b"/>
    <path id="Trazado_8538" data-name="Trazado 8538" d="M169.307,342.151h-5.4a1.169,1.169,0,0,0-1.166,1.166v14.936a1.169,1.169,0,0,0,1.166,1.166h5.4Z" transform="translate(-124.798 -258.934)" fill="#eef6ff"/>
    <path id="Trazado_8539" data-name="Trazado 8539" d="M166.12,358.254V343.318a1.169,1.169,0,0,1,1.166-1.166H163.9a1.169,1.169,0,0,0-1.166,1.166v14.936a1.169,1.169,0,0,0,1.166,1.166h3.383A1.169,1.169,0,0,1,166.12,358.254Z" transform="translate(-124.798 -258.935)" fill="#d9eafc"/>
    <path id="Trazado_8540" data-name="Trazado 8540" d="M211.55,351.5a1.169,1.169,0,0,1-1.166,1.166h-19.3a1.169,1.169,0,0,1-1.166-1.166V330.672a1.169,1.169,0,0,1,1.166-1.166h19.3a1.169,1.169,0,0,1,1.166,1.166Z" transform="translate(-145.642 -249.237)" fill="#fe3745"/>
    <path id="Trazado_8541" data-name="Trazado 8541" d="M194.544,351.5V330.672a1.169,1.169,0,0,1,1.166-1.166h-4.626a1.169,1.169,0,0,0-1.166,1.166V351.5a1.169,1.169,0,0,0,1.166,1.166h4.626A1.169,1.169,0,0,1,194.544,351.5Z" transform="translate(-145.642 -249.237)" fill="#b7092b"/>
    <path id="Trazado_8542" data-name="Trazado 8542" d="M372.217,81.307a1.169,1.169,0,0,0-1.166-1.166H339.241a1.169,1.169,0,0,0-1.166,1.166v22.137a1.169,1.169,0,0,0,1.166,1.166h9.6a2.629,2.629,0,0,1,1.864.934l3.741,5a.825.825,0,0,0,1.4,0l3.741-5a2.629,2.629,0,0,1,1.864-.934h9.6a1.169,1.169,0,0,0,1.166-1.166V81.307Z" transform="translate(-259.259 -58.007)" fill="#52bbef"/>
    <path id="Trazado_8543" data-name="Trazado 8543" d="M342.7,103.444V81.307a1.169,1.169,0,0,1,1.166-1.166h-4.626a1.169,1.169,0,0,0-1.166,1.166v22.137a1.169,1.169,0,0,0,1.166,1.166h4.626A1.169,1.169,0,0,1,342.7,103.444Z" transform="translate(-259.259 -58.007)" fill="#1e99d6"/>
    <g id="Grupo_9133" data-name="Grupo 9133" transform="translate(84.151 27.286)">
      <path id="Trazado_8544" data-name="Trazado 8544" d="M382.683,105.737H362.708a1.748,1.748,0,0,1,0-3.5h19.976a1.748,1.748,0,0,1,0,3.5Z" transform="translate(-360.959 -102.24)" fill="#fff"/>
      <path id="Trazado_8545" data-name="Trazado 8545" d="M382.683,128.989H362.708a1.748,1.748,0,0,1,0-3.5h19.976a1.748,1.748,0,0,1,0,3.5Z" transform="translate(-360.959 -120.071)" fill="#fff"/>
      <path id="Trazado_8546" data-name="Trazado 8546" d="M372.735,152.24H362.708a1.748,1.748,0,0,1,0-3.5h10.028a1.748,1.748,0,0,1,0,3.5Z" transform="translate(-360.959 -137.902)" fill="#fff"/>
    </g>
    <circle id="Elipse_21" data-name="Elipse 21" cx="12.964" cy="12.964" r="12.964" transform="translate(49.518 4.501)" fill="#fe3745"/>
    <path id="Trazado_8547" data-name="Trazado 8547" d="M217.027,17.464A12.965,12.965,0,0,1,227.677,4.71a12.963,12.963,0,1,0,0,25.507A12.964,12.964,0,0,1,217.027,17.464Z" transform="translate(-162.884)" fill="#b7092b"/>
    <path id="Trazado_8548" data-name="Trazado 8548" d="M242.162,47.473a.782.782,0,0,1-.558-.233l-6.124-6.175a3.974,3.974,0,0,1,0-5.582,3.892,3.892,0,0,1,5.536,0l1.168,1.178,1.169-1.178a3.891,3.891,0,0,1,5.536,0,3.971,3.971,0,0,1,0,5.582l-6.171,6.177A.779.779,0,0,1,242.162,47.473Z" transform="translate(-179.705 -22.873)" fill="#fff"/>
    <path id="Trazado_8549" data-name="Trazado 8549" d="M55.441,331.926a.66.66,0,0,1-.471-.2L49.8,326.517a3.354,3.354,0,0,1,0-4.712,3.285,3.285,0,0,1,4.673,0l.986.994.986-.994a3.285,3.285,0,0,1,4.673,0,3.352,3.352,0,0,1,0,4.712l-5.209,5.214A.657.657,0,0,1,55.441,331.926Z" transform="translate(-37.45 -242.583)" fill="#fe3745"/>
    <path id="Trazado_8550" data-name="Trazado 8550" d="M52.408,325.429a3.347,3.347,0,0,1-.108-4.592c-.054,0-.107-.008-.161-.008a3.267,3.267,0,0,0-2.336.976,3.354,3.354,0,0,0,0,4.712l5.169,5.212a.661.661,0,0,0,.939,0l1.379-1.38Z" transform="translate(-37.451 -242.583)" fill="#b7092b"/>
    <path id="Trazado_8551" data-name="Trazado 8551" d="M133.02,107.608V104.39a3.267,3.267,0,0,1,3.264-3.264h.754a.233.233,0,0,0,0-.466,3.267,3.267,0,0,1-3.264-3.264V94.178a3.267,3.267,0,0,1,3.264-3.264.233.233,0,0,0,0-.466,3.267,3.267,0,0,1-3.264-3.264V83.966a3.267,3.267,0,0,1,3.264-3.264.233.233,0,0,0,0-.466H135.6a3.267,3.267,0,0,1-3.264-3.264V73.753a3.267,3.267,0,0,1,2.676-3.208V58.017a3.507,3.507,0,0,0-3.5-3.5h-5.439a4.133,4.133,0,0,0-3.969,3.465l-2.191,16.076c-.259,1.9-1.63,3.452-3.052,3.464v30.308h16.17C133.027,107.758,133.02,107.684,133.02,107.608Z" transform="translate(-89.618 -38.359)" fill="#ffe2b8"/>
    <path id="Trazado_8552" data-name="Trazado 8552" d="M131.514,54.52h-5.439a4.132,4.132,0,0,0-3.969,3.465l-2.191,16.076c-.259,1.9-1.63,3.452-3.052,3.464v4.627h4.61c1.427,0,2.808-1.559,3.068-3.465l2.191-16.076a4.133,4.133,0,0,1,3.969-3.465h4.31V58.017A3.507,3.507,0,0,0,131.514,54.52Z" transform="translate(-89.618 -38.359)" fill="#ffc987"/>
    <path id="Trazado_8553" data-name="Trazado 8553" d="M188.669,263.645a3.507,3.507,0,0,1-3.5-3.5V256.93a3.507,3.507,0,0,1,3.5-3.5h18.965a3.507,3.507,0,0,1,3.5,3.5v3.218a3.507,3.507,0,0,1-3.5,3.5Z" transform="translate(-142.002 -190.899)" fill="#ffe2b8"/>
    <path id="Trazado_8554" data-name="Trazado 8554" d="M57.166,173.982A1.169,1.169,0,0,1,56,172.816V137a1.169,1.169,0,0,1,1.166-1.166H69.256A1.169,1.169,0,0,1,70.422,137v35.82a1.169,1.169,0,0,1-1.166,1.166H57.166Z" transform="translate(-42.945 -100.713)" fill="#293d7c"/>
    <path id="Trazado_8555" data-name="Trazado 8555" d="M60.626,172.816V137a1.169,1.169,0,0,1,1.166-1.166H57.166A1.169,1.169,0,0,0,56,137v35.82a1.169,1.169,0,0,0,1.166,1.166h4.626A1.169,1.169,0,0,1,60.626,172.816Z" transform="translate(-42.945 -100.713)" fill="#1a2b63"/>
    <circle id="Elipse_22" data-name="Elipse 22" cx="3.121" cy="3.121" r="3.121" transform="translate(17.145 37.706)" fill="#aec1ed"/>
    <g id="Grupo_9134" data-name="Grupo 9134" transform="translate(42.484 31.898)">
      <path id="Trazado_8556" data-name="Trazado 8556" d="M185.727,132.233a3.507,3.507,0,0,1-3.5-3.5v-3.218a3.507,3.507,0,0,1,3.5-3.5h19.651a3.507,3.507,0,0,1,3.5,3.5v3.218a3.507,3.507,0,0,1-3.5,3.5Z" transform="translate(-182.23 -122.021)" fill="#ffe2b8"/>
      <path id="Trazado_8557" data-name="Trazado 8557" d="M191.9,176.038a3.507,3.507,0,0,1-3.5-3.5v-3.218a3.507,3.507,0,0,1,3.5-3.5h19.062a3.507,3.507,0,0,1,3.5,3.5v3.218a3.507,3.507,0,0,1-3.5,3.5Z" transform="translate(-186.968 -155.614)" fill="#ffe2b8"/>
      <path id="Trazado_8558" data-name="Trazado 8558" d="M191.9,219.843a3.507,3.507,0,0,1-3.5-3.5v-3.218a3.507,3.507,0,0,1,3.5-3.5h19.062a3.507,3.507,0,0,1,3.5,3.5v3.218a3.507,3.507,0,0,1-3.5,3.5Z" transform="translate(-186.968 -189.206)" fill="#ffe2b8"/>
    </g>
    <g id="Grupo_9135" data-name="Grupo 9135" transform="translate(42.484 31.898)">
      <path id="Trazado_8559" data-name="Trazado 8559" d="M192.269,260.046a3.507,3.507,0,0,1-3.5-3.5v-3.115h-.1a3.507,3.507,0,0,0-3.5,3.5v3.218a3.507,3.507,0,0,0,3.5,3.5h18.965a3.507,3.507,0,0,0,3.5-3.5v-.1H192.269Z" transform="translate(-184.486 -222.798)" fill="#ffc987"/>
      <path id="Trazado_8560" data-name="Trazado 8560" d="M189.327,128.634a3.507,3.507,0,0,1-3.5-3.5v-3.115h-.1a3.507,3.507,0,0,0-3.5,3.5v3.218a3.507,3.507,0,0,0,3.5,3.5h19.651a3.507,3.507,0,0,0,3.5-3.5v-.1H189.327Z" transform="translate(-182.23 -122.022)" fill="#ffc987"/>
      <path id="Trazado_8561" data-name="Trazado 8561" d="M195.506,172.438a3.507,3.507,0,0,1-3.5-3.5v-3.115h-.1a3.507,3.507,0,0,0-3.5,3.5v3.218a3.507,3.507,0,0,0,3.5,3.5h19.062a3.507,3.507,0,0,0,3.5-3.5v-.1H195.506Z" transform="translate(-186.968 -155.614)" fill="#ffc987"/>
      <path id="Trazado_8562" data-name="Trazado 8562" d="M195.506,216.243a3.507,3.507,0,0,1-3.5-3.5v-3.115h-.1a3.507,3.507,0,0,0-3.5,3.5v3.218a3.507,3.507,0,0,0,3.5,3.5h19.062a3.507,3.507,0,0,0,3.5-3.5v-.1H195.506Z" transform="translate(-186.968 -189.207)" fill="#ffc987"/>
    </g>
    <path id="Trazado_8563" data-name="Trazado 8563" d="M51.858,389.646H31a.466.466,0,0,0-.463.466v13.382a.466.466,0,0,0,.463.466H51.858a.466.466,0,0,0,.463-.466V390.112A.466.466,0,0,0,51.858,389.646Z" transform="translate(-23.419 -295.356)" fill="#ffaf10"/>
    <path id="Trazado_8564" data-name="Trazado 8564" d="M35.166,403.819V393.626l-4.514-3.489a.468.468,0,0,1,.07-.067.464.464,0,0,0-.182.366v13.382a.466.466,0,0,0,.463.466h4.626A.465.465,0,0,1,35.166,403.819Z" transform="translate(-23.42 -295.681)" fill="#ef9614"/>
    <path id="Trazado_8565" data-name="Trazado 8565" d="M52.225,389.646H31.37a.46.46,0,0,0-.352.166L41.43,397.86a.634.634,0,0,0,.735,0l10.412-8.047A.459.459,0,0,0,52.225,389.646Z" transform="translate(-23.787 -295.356)" fill="#ffd00d"/>
    <path id="Trazado_8566" data-name="Trazado 8566" d="M439.886,232.153H419.03a.466.466,0,0,0-.463.466V246a.466.466,0,0,0,.463.466h20.855a.466.466,0,0,0,.463-.466V232.619A.466.466,0,0,0,439.886,232.153Z" transform="translate(-320.986 -174.58)" fill="#ffaf10"/>
    <path id="Trazado_8567" data-name="Trazado 8567" d="M423.193,246.326V236.134l-4.514-3.489a.464.464,0,0,1,.07-.067.464.464,0,0,0-.182.366v13.382a.466.466,0,0,0,.463.466h4.626A.466.466,0,0,1,423.193,246.326Z" transform="translate(-320.986 -174.906)" fill="#ef9614"/>
    <path id="Trazado_8568" data-name="Trazado 8568" d="M440.253,232.153H419.4a.46.46,0,0,0-.352.166l10.412,8.047a.634.634,0,0,0,.735,0l10.412-8.047A.46.46,0,0,0,440.253,232.153Z" transform="translate(-321.353 -174.58)" fill="#ffd00d"/>
  </g>
</svg>
