<svg id="Grupo_9139" data-name="Grupo 9139" xmlns="http://www.w3.org/2000/svg" width="108.455" height="108.455" viewBox="0 0 108.455 108.455">
  <path id="Trazado_8569" data-name="Trazado 8569" d="M274.9,3578.675a54.245,54.245,0,0,1-42.146,52.875q-1.521.348-3.075.606-1.756.3-3.546.474-2.3.231-4.666.265c-.266,0-.529.007-.794.007a54.277,54.277,0,0,1-8.855-.722q-1.913-.315-3.781-.761a53.623,53.623,0,0,1-10.994-3.925,54.232,54.232,0,1,1,77.857-48.82Zm0,0" transform="translate(-166.443 -3524.448)" fill="#8be4c3"/>
  <path id="Trazado_8570" data-name="Trazado 8570" d="M245.136,3721.823v6.2a53.769,53.769,0,0,1-17.773,6.292l-.089.014a54.262,54.262,0,0,1-34.009-20.29,20.2,20.2,0,0,1,13.369-11.677c.314-.084.63-.162.952-.23a20.008,20.008,0,0,1,2.623-.387c.544-.044,1.093-.067,1.649-.067h13.123a20.149,20.149,0,0,1,4.275.454c.079.015.159.033.236.051.233.052.465.111.693.172l.018,0a20.171,20.171,0,0,1,14.933,19.469Zm0,0" transform="translate(-181.902 -3626.591)" fill="#dd3033"/>
  <path id="Trazado_8571" data-name="Trazado 8571" d="M256.47,3721.823V3734.3a54.323,54.323,0,0,1-43.538-11.671v-.806a20.156,20.156,0,0,1,14.929-19.466c.314-.084.63-.162.952-.23a20,20,0,0,1,2.623-.387q.817-.066,1.649-.067h3.231a20.15,20.15,0,0,1,4.275.454c.079.015.159.033.236.051.233.052.465.111.693.172l.018,0a20.171,20.171,0,0,1,14.933,19.469Zm0,0" transform="translate(-193.237 -3626.591)" fill="#f74f4f"/>
  <path id="Trazado_8572" data-name="Trazado 8572" d="M248.372,3702.744l-.048.228-6.709,31.209a53.711,53.711,0,0,1-10.994-3.925l-5.865-27.281-.049-.23Zm0,0" transform="translate(-200.023 -3627.208)" fill="#f2f0ec"/>
  <path id="Trazado_8573" data-name="Trazado 8573" d="M236.54,3706.022l-9.072,5.042-2.76-12.838,5.638-3.321" transform="translate(-200.024 -3622.691)" fill="#d8d5d0"/>
  <path id="Trazado_8574" data-name="Trazado 8574" d="M252.637,3706.022l9.073,5.042,2.759-12.838-5.636-3.321" transform="translate(-216.121 -3622.691)" fill="#d8d5d0"/>
  <path id="Trazado_8575" data-name="Trazado 8575" d="M188.7,3612v-30.392a27.09,27.09,0,1,1,54.18,0V3612" transform="translate(-179.27 -3541.78)" fill="#cc7a3b"/>
  <path id="Trazado_8576" data-name="Trazado 8576" d="M199.841,3582.8c0,10.751,6.3,23.188,9.752,29.206H188.7v-30.392a27.074,27.074,0,0,1,26.892-27.089c-8.328.208-15.748,13.57-15.748,28.275Zm0,0" transform="translate(-179.269 -3541.782)" fill="#a35418"/>
  <path id="Trazado_8577" data-name="Trazado 8577" d="M250.052,3683.348v8.824a7.19,7.19,0,0,1-14.38,0v-8.824Zm0,0" transform="translate(-206.343 -3616.03)" fill="#eab599"/>
  <path id="Trazado_8578" data-name="Trazado 8578" d="M255.917,3702.855v.56a7.19,7.19,0,0,1-5.064,6.868,7.188,7.188,0,0,1-5-5.932q.72.044,1.448.044a24.868,24.868,0,0,0,8.62-1.54Zm0,0" transform="translate(-212.209 -3627.273)" fill="#f6caae"/>
  <path id="Trazado_8579" data-name="Trazado 8579" d="M187.9,3640.118a6.681,6.681,0,1,1-5.616-6.6,6.688,6.688,0,0,1,5.616,6.6Zm0,0" transform="translate(-171.1 -3587.261)" fill="#f6caae"/>
  <path id="Trazado_8580" data-name="Trazado 8580" d="M197.243,3640.235a6.688,6.688,0,0,1-5.616,6.6,25,25,0,0,1,0-13.2,6.687,6.687,0,0,1,5.616,6.6Zm0,0" transform="translate(-180.447 -3587.377)" fill="#eab599"/>
  <path id="Trazado_8581" data-name="Trazado 8581" d="M189.445,3645.964a2.39,2.39,0,1,1-2.389-2.39,2.39,2.39,0,0,1,2.389,2.39Zm0,0" transform="translate(-176.946 -3593.105)" fill="#eab599"/>
  <path id="Trazado_8582" data-name="Trazado 8582" d="M235.969,3608.415V3631.4a24.786,24.786,0,0,1-13.176,6.556l-.122.021a24.493,24.493,0,0,1-3.871.3,24.876,24.876,0,0,1-24.876-24.876v-9.473a25.078,25.078,0,0,1,.254-3.573,15.766,15.766,0,0,0,19.812-1.275,14.09,14.09,0,0,0,3.738-5.841,16.42,16.42,0,0,0,5.134,10.248,18.362,18.362,0,0,0,13.106,4.929Zm0,0" transform="translate(-182.282 -3564.095)" fill="#eab599"/>
  <path id="Trazado_8583" data-name="Trazado 8583" d="M246.507,3608.415V3631.4a24.786,24.786,0,0,1-13.176,6.556l-.122.021a24.879,24.879,0,0,1-21-24.575v-9.473c0-.252,0-.5.013-.753a15.587,15.587,0,0,0,12.307-4.094,14.09,14.09,0,0,0,3.738-5.841,16.421,16.421,0,0,0,5.134,10.248,18.362,18.362,0,0,0,13.106,4.929Zm0,0" transform="translate(-192.82 -3564.095)" fill="#f6caae"/>
  <path id="Trazado_8584" data-name="Trazado 8584" d="M272.936,3630.248a4.132,4.132,0,1,0-8.264,0" transform="translate(-223.057 -3583.043)" fill="#eab599"/>
  <path id="Trazado_8585" data-name="Trazado 8585" d="M229.377,3630.248a4.132,4.132,0,1,0-8.264,0" transform="translate(-197.952 -3583.043)" fill="#eab599"/>
  <path id="Trazado_8586" data-name="Trazado 8586" d="M229.849,3636.181a2.822,2.822,0,1,1-2.821-2.822,2.822,2.822,0,0,1,2.821,2.822Zm0,0" transform="translate(-199.734 -3587.219)" fill="#3d4159"/>
  <path id="Trazado_8587" data-name="Trazado 8587" d="M273.409,3636.181a2.822,2.822,0,1,1-2.822-2.822,2.822,2.822,0,0,1,2.822,2.822Zm0,0" transform="translate(-224.839 -3587.219)" fill="#3d4159"/>
  <path id="Trazado_8588" data-name="Trazado 8588" d="M249.973,3653.479h-5.645a1.217,1.217,0,1,1,0-2.434h5.645a1.217,1.217,0,1,1,0,2.434Zm0,0" transform="translate(-210.631 -3597.412)" fill="#eab599"/>
  <path id="Trazado_8589" data-name="Trazado 8589" d="M243.615,3670.016a12.568,12.568,0,0,1-6.065-1.566,1.107,1.107,0,1,1,1.067-1.939,10.323,10.323,0,0,0,10,0,1.107,1.107,0,0,1,1.067,1.939,12.573,12.573,0,0,1-6.065,1.566Zm0,0" transform="translate(-207.095 -3606.246)" fill="#eab599"/>
  <path id="Trazado_8590" data-name="Trazado 8590" d="M232.88,3637.2a1.209,1.209,0,1,1-1.209-1.209,1.21,1.21,0,0,1,1.209,1.209Zm0,0" transform="translate(-203.34 -3588.735)" fill="#fff"/>
  <path id="Trazado_8591" data-name="Trazado 8591" d="M276.766,3637.2a1.209,1.209,0,1,1-1.209-1.209,1.21,1.21,0,0,1,1.209,1.209Zm0,0" transform="translate(-228.634 -3588.735)" fill="#fff"/>
  <path id="Trazado_8592" data-name="Trazado 8592" d="M284.18,3652.028a3.1,3.1,0,1,1-3.1-3.1,3.1,3.1,0,0,1,3.1,3.1Zm0,0" transform="translate(-230.728 -3596.192)" fill="#eab599"/>
  <path id="Trazado_8593" data-name="Trazado 8593" d="M218.874,3652.028a3.1,3.1,0,1,1-3.1-3.1,3.1,3.1,0,0,1,3.1,3.1Zm0,0" transform="translate(-193.089 -3596.192)" fill="#eab599"/>
  <rect id="Rect치ngulo_5981" data-name="Rect치ngulo 5981" width="49.124" height="36.925" transform="translate(53.018 5.94)" fill="#fff"/>
  <path id="Trazado_8594" data-name="Trazado 8594" d="M307.757,3619.282l-5.275,12.527,23.078-13.186Zm0,0" transform="translate(-244.849 -3578.726)" fill="#fff"/>
  <path id="Trazado_8595" data-name="Trazado 8595" d="M307.6,3753.322v10.139q-1.521.348-3.075.606a54.146,54.146,0,0,1-8.212.739v-11.485Zm0,0" transform="translate(-241.296 -3656.359)" fill="#f74f4f"/>
  <path id="Trazado_8596" data-name="Trazado 8596" d="M300.984,3753.322v11.22q-2.3.231-4.666.265v-11.485Zm0,0" transform="translate(-241.296 -3656.359)" fill="#dd3033"/>
  <path id="Trazado_8597" data-name="Trazado 8597" d="M318.1,3741.183a3.262,3.262,0,0,1-3.263,3.262H296.316v-3.262a3.263,3.263,0,0,1,3.263-3.262h15.257a3.246,3.246,0,0,1,2.307.956,3.291,3.291,0,0,1,.724,1.1,3.228,3.228,0,0,1,.232,1.208Zm0,0" transform="translate(-241.295 -3647.483)" fill="#eab599"/>
  <path id="Trazado_8598" data-name="Trazado 8598" d="M317.865,3739.975a3.261,3.261,0,0,1-3.03,2.054H296.316v-.845a3.263,3.263,0,0,1,3.263-3.262h15.257a3.246,3.246,0,0,1,2.307.956,3.291,3.291,0,0,1,.724,1.1Zm0,0" transform="translate(-241.295 -3647.483)" fill="#f6caae"/>
  <path id="Trazado_8599" data-name="Trazado 8599" d="M345.973,3558.026a11.454,11.454,0,1,1-11.454-11.454,11.454,11.454,0,0,1,11.454,11.454Zm0,0" transform="translate(-256.713 -3537.198)" fill="#ffe152"/>
  <path id="Trazado_8600" data-name="Trazado 8600" d="M340.341,3574.255a7.184,7.184,0,0,1-7.175-7.175h2.214a4.961,4.961,0,1,0,9.922,0h2.214a7.183,7.183,0,0,1-7.174,7.175Zm0,0" transform="translate(-262.534 -3549.019)" fill="#fff"/>
  <rect id="Rect치ngulo_5982" data-name="Rect치ngulo 5982" width="2.213" height="10.438" transform="translate(76.7 24.129)" fill="#fff"/>
  <path id="Trazado_8601" data-name="Trazado 8601" d="M344.972,3603.187h-5.891a2.99,2.99,0,0,1-2.989-2.99v-4.137h11.87v4.137a2.99,2.99,0,0,1-2.99,2.99Zm0,0" transform="translate(-264.22 -3565.721)" fill="#3d4159"/>
</svg>
