<svg xmlns="http://www.w3.org/2000/svg" width="502.318" height="310.042" viewBox="0 0 502.318 310.042">
  <g id="Grupo_9146" data-name="Grupo 9146" transform="translate(-153.961 -4402.883)">
    <path id="Trazado_8913" data-name="Trazado 8913" d="M308.495,4493.129h-8.159v-56.6h8.159v56.6Z" transform="translate(-4.518 -1.038)" fill="#eefff9"/>
    <path id="Trazado_8914" data-name="Trazado 8914" d="M320.49,4493.656h-8.16v-40.087h8.16v40.087Z" transform="translate(-4.889 -1.565)" fill="#eefff9"/>
    <path id="Trazado_8915" data-name="Trazado 8915" d="M332.483,4516.45h-8.158v-40.813h8.158v40.813Z" transform="translate(-5.259 -2.246)" fill="#eefff9"/>
    <path id="Trazado_8916" data-name="Trazado 8916" d="M344.477,4537.813h-8.158V4482.7h8.158v55.111Z" transform="translate(-5.629 -2.464)" fill="#eefff9"/>
    <path id="Trazado_8917" data-name="Trazado 8917" d="M380.462,4474.844H372.3v-24.875h8.16v24.875Z" transform="translate(-6.74 -1.453)" fill="#eefff9"/>
    <path id="Trazado_8918" data-name="Trazado 8918" d="M392.456,4484.48H384.3V4457.01h8.16v27.471Z" transform="translate(-7.11 -1.67)" fill="#eefff9"/>
    <path id="Trazado_8919" data-name="Trazado 8919" d="M404.449,4506.14h-8.158v-40.41h8.158v40.41Z" transform="translate(-7.481 -1.94)" fill="#eefff9"/>
    <path id="Trazado_8920" data-name="Trazado 8920" d="M440.433,4494.237h-8.16V4472.4h8.16v21.839Z" transform="translate(-8.591 -2.146)" fill="#eefff9"/>
    <path id="Trazado_8921" data-name="Trazado 8921" d="M368.467,4492.827h-8.16v-66.119h8.16v66.119Z" transform="translate(-6.37 -0.735)" fill="#f7fffc"/>
    <path id="Trazado_8922" data-name="Trazado 8922" d="M296.5,4500.716h-8.159v-83.48H296.5v83.48Z" transform="translate(-4.148 -0.443)" fill="#f7fffc"/>
    <path id="Trazado_8923" data-name="Trazado 8923" d="M284.506,4460.284h-8.159V4443.47h8.159v16.814Z" transform="translate(-3.778 -1.252)" fill="#f7fffc"/>
    <path id="Trazado_8924" data-name="Trazado 8924" d="M272.511,4476.619h-8.159V4455.4h8.159v21.218Z" transform="translate(-3.408 -1.621)" fill="#f7fffc"/>
    <path id="Trazado_8925" data-name="Trazado 8925" d="M260.517,4482.087h-8.159V4462.8h8.159v19.284Z" transform="translate(-3.037 -1.85)" fill="#f7fffc"/>
    <path id="Trazado_8926" data-name="Trazado 8926" d="M236.528,4473.958h-8.159v-9.181h8.159v9.181Z" transform="translate(-2.297 -1.911)" fill="#f7fffc"/>
    <path id="Trazado_8927" data-name="Trazado 8927" d="M356.472,4508.561h-8.158v-40.618h8.158v40.618Z" transform="translate(-5.999 -2.008)" fill="#f7fffc"/>
    <path id="Trazado_8928" data-name="Trazado 8928" d="M416.444,4493.344h-8.158V4443.47h8.158v49.874Z" transform="translate(-7.851 -1.252)" fill="#f7fffc"/>
    <path id="Trazado_8929" data-name="Trazado 8929" d="M428.438,4478.523h-8.16v-47.767h8.16v47.767Z" transform="translate(-8.221 -0.86)" fill="#f7fffc"/>
    <path id="Trazado_8930" data-name="Trazado 8930" d="M248.523,4467.592h-8.159v-17h8.159v17Z" transform="translate(-2.667 -1.473)" fill="#f7fffc"/>
    <path id="Trazado_8931" data-name="Trazado 8931" d="M452.428,4460.367h-8.16v-14.2h8.16v14.2Z" transform="translate(-8.962 -1.336)" fill="#f7fffc"/>
    <path id="Trazado_8932" data-name="Trazado 8932" d="M352.171,4665.373a42.447,42.447,0,0,0-5.713-13.781l7.506-7.5-13.026-13.015-7.5,7.5a42.716,42.716,0,0,0-13.768-5.713V4622.27H301.26v10.595a42.743,42.743,0,0,0-13.77,5.713l-7.494-7.5L266.981,4644.1l7.5,7.5a42.426,42.426,0,0,0-5.713,13.781H258.169v18.4h36.082a18.44,18.44,0,0,1-2.43-9.2,18.646,18.646,0,1,1,37.291,0,18.429,18.429,0,0,1-2.43,9.2h36.084v-18.4Z" transform="translate(-3.217 -6.772)" fill="#e6fff6"/>
    <path id="Trazado_8933" data-name="Trazado 8933" d="M258.929,4679.083h-1.57v-14.249h10.753a43.13,43.13,0,0,1,5.342-12.885l-7.608-7.607,14.125-14.125,7.607,7.608a43.476,43.476,0,0,1,8.962-4.219l.5,1.487a42,42,0,0,0-9.153,4.393l-.532.338-7.386-7.387-11.9,11.9,7.387,7.386-.34.531a41.578,41.578,0,0,0-5.607,13.527l-.136.617h-10.44v12.679Zm70.432.2-1.528-.359a17.867,17.867,0,1,0-34.889-7.708l-1.538-.314a19.436,19.436,0,1,1,37.955,8.381Z" transform="translate(-3.192 -7.017)" fill="#c2ffee"/>
    <path id="Trazado_8934" data-name="Trazado 8934" d="M576.713,4671.862a28.919,28.919,0,0,0-3.893-9.39l5.114-5.106-8.874-8.867-5.106,5.106a29.193,29.193,0,0,0-9.381-3.892V4642.5H542.027v7.217a29.2,29.2,0,0,0-9.38,3.892l-5.106-5.106-8.867,8.867,5.106,5.106a28.914,28.914,0,0,0-3.892,9.39h-7.219V4684.4h24.583a12.563,12.563,0,0,1-1.656-6.27,12.7,12.7,0,1,1,25.409,0,12.573,12.573,0,0,1-1.655,6.27h24.582v-12.538Z" transform="translate(-11.073 -7.397)" fill="#f0fffa"/>
    <path id="Trazado_8935" data-name="Trazado 8935" d="M561.194,4682l-1.5-.452a11.924,11.924,0,0,0-22.605-7.563l-1.474-.54A13.493,13.493,0,0,1,561.194,4682Zm-49.334,2.379v-13.33h7.378a29.64,29.64,0,0,1,3.521-8.49l-5.22-5.221,9.976-9.974,5.221,5.218a29.862,29.862,0,0,1,8.482-3.519v-7.38h14.115v7.38a29.873,29.873,0,0,1,8.482,3.519l5.22-5.218,9.985,9.974-5.229,5.221a29.664,29.664,0,0,1,3.522,8.49h7.377v13.324h-1.57v-11.754h-7.063l-.137-.617a28.068,28.068,0,0,0-3.786-9.134l-.341-.532,5-5-7.763-7.755-5,5-.532-.338a28.228,28.228,0,0,0-9.127-3.789l-.616-.136v-7.063H542.788v7.063l-.615.136a28.233,28.233,0,0,0-9.128,3.789l-.532.338-5-5-7.757,7.755,5,5-.339.53A28.111,28.111,0,0,0,520.63,4672l-.136.617H513.43v11.76Z" transform="translate(-11.048 -7.372)" fill="#d6fff4"/>
    <path id="Trazado_8936" data-name="Trazado 8936" d="M585.608,4631.521a6.754,6.754,0,1,1,6.753-6.753,6.755,6.755,0,0,1-6.753,6.753Zm15.466-6.753a15.512,15.512,0,0,0-.419-3.566l3.57-2.062-4.433-7.683-3.576,2.066a15.441,15.441,0,0,0-6.176-3.574v-4.119h-8.867v4.119a15.47,15.47,0,0,0-6.177,3.574l-3.572-2.066-4.436,7.683,3.572,2.062a15.479,15.479,0,0,0,0,7.135l-3.572,2.062,4.436,7.68,3.572-2.063a15.439,15.439,0,0,0,6.177,3.57v4.123h8.867v-4.123a15.41,15.41,0,0,0,6.176-3.57l3.576,2.063,4.433-7.68-3.57-2.062a15.51,15.51,0,0,0,.419-3.568Z" transform="translate(-12.75 -6.265)" fill="#f0fffa"/>
    <path id="Trazado_8937" data-name="Trazado 8937" d="M585.574,4618.775a5.968,5.968,0,1,0,5.967,5.969,5.975,5.975,0,0,0-5.967-5.969Zm0,13.505a7.538,7.538,0,1,1,7.537-7.537,7.547,7.547,0,0,1-7.537,7.537Zm-3.65,10.619h7.3v-3.925l.56-.167a14.714,14.714,0,0,0,5.86-3.388l.426-.4,3.4,1.965,3.649-6.321-3.4-1.962.135-.566a14.645,14.645,0,0,0,0-6.776l-.135-.568,3.4-1.96-3.649-6.321-3.4,1.964-.426-.4a14.725,14.725,0,0,0-5.86-3.393l-.56-.168v-3.919h-7.3v3.919l-.559.168a14.745,14.745,0,0,0-5.862,3.393l-.426.4-3.4-1.964-3.65,6.321,3.4,1.96-.135.568a14.642,14.642,0,0,0,0,6.776l.135.566-3.4,1.962,3.65,6.321,3.4-1.965.426.4a14.729,14.729,0,0,0,5.86,3.388l.561.167v3.925Zm8.869,1.568H580.354v-4.334a16.342,16.342,0,0,1-5.495-3.177l-3.756,2.17-5.221-9.041,3.756-2.167a16.2,16.2,0,0,1,0-6.348l-3.756-2.169,5.221-9.04,3.756,2.17a16.341,16.341,0,0,1,5.495-3.178v-4.334h10.438v4.334a16.311,16.311,0,0,1,5.495,3.178l3.759-2.17,5.217,9.04-3.754,2.169a16.147,16.147,0,0,1,0,6.348l3.754,2.167-5.217,9.041-3.759-2.17a16.285,16.285,0,0,1-5.495,3.177v4.334Z" transform="translate(-12.716 -6.24)" fill="#d6fff4"/>
    <path id="Trazado_8938" data-name="Trazado 8938" d="M466.116,4491.868l-1.56-.15c.092-.972.2-1.958.331-2.928l1.556.206q-.187,1.429-.328,2.873Z" transform="translate(-9.588 -2.652)" fill="#a4f5e1"/>
    <path id="Trazado_8939" data-name="Trazado 8939" d="M505.648,4585.849a94.532,94.532,0,0,1-21.5-14.922l15.97-17.3a71.038,71.038,0,0,0,16.146,11.208l-10.613,21.018Z" transform="translate(-10.192 -4.653)" fill="#d6fff4"/>
    <path id="Trazado_8940" data-name="Trazado 8940" d="M548.789,4595.741a93.329,93.329,0,0,1-38.256-8.122l9.592-21.5a69.9,69.9,0,0,0,28.664,6.081,70.707,70.707,0,0,0,52.934-23.922l17.644,15.593a94.272,94.272,0,0,1-70.578,31.875Z" transform="translate(-11.007 -4.488)" fill="#f0fffa"/>
    <path id="Trazado_8941" data-name="Trazado 8941" d="M628.034,4556.622l-19.042-13.85q.71-.975,1.386-1.977l19.509,13.186c-.6.884-1.22,1.773-1.853,2.642Z" transform="translate(-14.046 -4.257)" fill="#f0fffa"/>
    <path id="Trazado_8942" data-name="Trazado 8942" d="M641.248,4531l-22.27-7.644a70.149,70.149,0,0,0,2.59-9.822l23.145,4.339A93.821,93.821,0,0,1,641.248,4531Z" transform="translate(-14.355 -3.416)" fill="#e6fff6"/>
    <path id="Trazado_8943" data-name="Trazado 8943" d="M642.595,4506.234l-23.437-2.277c.22-2.273.331-4.59.331-6.89a70.641,70.641,0,0,0-97.816-65.2l-9.092-21.72a94.184,94.184,0,0,1,130.455,86.92c0,3.056-.147,6.14-.441,9.167Z" transform="translate(-11.07)" fill="#f0fffa"/>
    <path id="Trazado_8944" data-name="Trazado 8944" d="M495.093,4450.4l-17.56-15.686a94.307,94.307,0,0,1,26.971-20.955l10.848,20.9a70.845,70.845,0,0,0-20.26,15.742Z" transform="translate(-9.988 -0.335)" fill="#f0fffa"/>
    <path id="Trazado_8945" data-name="Trazado 8945" d="M473.505,4557.548a94.382,94.382,0,0,1-20.682-58.837,93.046,93.046,0,0,1,10.164-42.54l20.99,10.667a70.519,70.519,0,0,0,7.9,75.981l-18.37,14.729Z" transform="translate(-9.226 -1.644)" fill="#f0fffa"/>
    <path id="Trazado_8946" data-name="Trazado 8946" d="M550.008,4582.641v-1.57a81.66,81.66,0,0,0,79.341-100.847l1.526-.37a83.239,83.239,0,0,1-80.867,102.787Z" transform="translate(-12.226 -2.376)" fill="#a4f5e1"/>
    <path id="Trazado_8947" data-name="Trazado 8947" d="M629.686,4472.727q-.31-.9-.64-1.793l1.473-.544q.336.91.652,1.829l-1.486.509Z" transform="translate(-14.665 -2.083)" fill="#a4f5e1"/>
    <path id="Trazado_8948" data-name="Trazado 8948" d="M468.8,4475.559l-1.514-.422a83.181,83.181,0,0,1,149.294-23.97l-1.3.875A81.61,81.61,0,0,0,468.8,4475.559Z" transform="translate(-9.672 -0.35)" fill="#a4f5e1"/>
    <path id="Trazado_8949" data-name="Trazado 8949" d="M525.146,4580.681a83.528,83.528,0,0,1-59.77-66.171l1.548-.264a81.948,81.948,0,0,0,58.641,64.922l-.419,1.513Z" transform="translate(-9.613 -3.438)" fill="#a4f5e1"/>
    <path id="Trazado_8950" data-name="Trazado 8950" d="M613.077,4497.991a65.145,65.145,0,1,1-65.144-65.144,65.145,65.145,0,0,1,65.144,65.144Z" transform="translate(-10.151 -0.925)" fill="#f7fffc"/>
    <path id="Trazado_8951" data-name="Trazado 8951" d="M518.954,4538.775H504.865V4511.6h14.089v27.18Z" transform="translate(-10.832 -3.356)" fill="#c2ffee"/>
    <path id="Trazado_8952" data-name="Trazado 8952" d="M536.675,4537.934H522.586v-53.593h14.089v53.593Z" transform="translate(-11.379 -2.514)" fill="#c2ffee"/>
    <path id="Trazado_8953" data-name="Trazado 8953" d="M536.675,4515.507H522.586v-8.081h14.089v8.081Z" transform="translate(-11.379 -3.227)" fill="#c9b0ff"/>
    <path id="Trazado_8954" data-name="Trazado 8954" d="M536.675,4507.3H522.586v-4.04h14.089v4.04Z" transform="translate(-11.379 -3.099)" fill="#f0ccff"/>
    <path id="Trazado_8955" data-name="Trazado 8955" d="M554.4,4538.167H540.308v-46.279H554.4v46.279Z" transform="translate(-11.926 -2.748)" fill="#c2ffee"/>
    <path id="Trazado_8956" data-name="Trazado 8956" d="M572.12,4536.948H558.031V4452.4H572.12v84.553Z" transform="translate(-12.473 -1.528)" fill="#c2ffee"/>
    <path id="Trazado_8957" data-name="Trazado 8957" d="M589.841,4537.406H575.753v-70.17h14.089v70.17Z" transform="translate(-13.02 -1.986)" fill="#c2ffee"/>
    <path id="Trazado_8958" data-name="Trazado 8958" d="M554.4,4515.636H540.308v-4.04H554.4v4.04Z" transform="translate(-11.926 -3.356)" fill="#c9b0ff"/>
    <path id="Trazado_8959" data-name="Trazado 8959" d="M518.954,4523.978H504.865v-4.04h14.089v4.04Z" transform="translate(-10.832 -3.613)" fill="#c9b0ff"/>
    <path id="Trazado_8960" data-name="Trazado 8960" d="M518.954,4519.81H504.865v-4.04h14.089v4.04Z" transform="translate(-10.832 -3.485)" fill="#f0ccff"/>
    <path id="Trazado_8961" data-name="Trazado 8961" d="M554.4,4511.467H540.308v-4.04H554.4v4.04Z" transform="translate(-11.926 -3.227)" fill="#f0ccff"/>
    <path id="Trazado_8962" data-name="Trazado 8962" d="M572.12,4515.25H558.031V4499.1H572.12v16.146Z" transform="translate(-12.473 -2.97)" fill="#c9b0ff"/>
    <path id="Trazado_8963" data-name="Trazado 8963" d="M572.12,4498.882H558.031v-6.994H572.12v6.994Z" transform="translate(-12.473 -2.748)" fill="#f0ccff"/>
    <path id="Trazado_8964" data-name="Trazado 8964" d="M589.841,4503.339H575.753v-26.472h14.089v26.472Z" transform="translate(-13.02 -2.284)" fill="#f0ccff"/>
    <path id="Trazado_8965" data-name="Trazado 8965" d="M536.675,4523.85H522.586v-8.08h14.089v8.08Z" transform="translate(-11.379 -3.485)" fill="#a4f5e1"/>
    <path id="Trazado_8966" data-name="Trazado 8966" d="M518.954,4528.147H504.865v-4.04h14.089v4.04Z" transform="translate(-10.832 -3.742)" fill="#a4f5e1"/>
    <path id="Trazado_8967" data-name="Trazado 8967" d="M572.12,4519.81H558.031v-4.04H572.12v4.04Z" transform="translate(-12.473 -3.485)" fill="#a4f5e1"/>
    <path id="Trazado_8968" data-name="Trazado 8968" d="M554.4,4531.774H540.308v-16H554.4v16Z" transform="translate(-11.926 -3.485)" fill="#a4f5e1"/>
    <path id="Trazado_8969" data-name="Trazado 8969" d="M589.841,4515.571H575.753v-7.4h14.089v7.4Z" transform="translate(-13.02 -3.25)" fill="#a4f5e1"/>
    <path id="Trazado_8970" data-name="Trazado 8970" d="M589.841,4508.046H575.753v-4.04h14.089v4.04Z" transform="translate(-13.02 -3.121)" fill="#c9b0ff"/>
    <path id="Trazado_8971" data-name="Trazado 8971" d="M276.343,4598.006h-84.9v-84.9h84.9v84.9Z" transform="translate(-1.157 -3.403)" fill="#f0fffa"/>
    <path id="Trazado_8972" data-name="Trazado 8972" d="M190.971,4563.507a4.264,4.264,0,1,0,4.264,4.265,4.27,4.27,0,0,0-4.264-4.265Zm0,10.1a5.835,5.835,0,1,1,5.834-5.833,5.842,5.842,0,0,1-5.834,5.833Zm-2.531,7.545H193.5v-2.885l.56-.167a10.8,10.8,0,0,0,4.3-2.488l.424-.4,2.5,1.444,2.53-4.383-2.5-1.441.135-.569a10.744,10.744,0,0,0,0-4.973l-.135-.568,2.5-1.442-2.53-4.384-2.5,1.446-.424-.4a10.844,10.844,0,0,0-4.3-2.491l-.559-.168v-2.88H188.44v2.88l-.56.168a10.837,10.837,0,0,0-4.3,2.491l-.424.4-2.5-1.446-2.531,4.384,2.5,1.442-.134.568a10.744,10.744,0,0,0,0,4.973l.134.569-2.5,1.441,2.531,4.383,2.5-1.444.424.4a10.811,10.811,0,0,0,4.3,2.488l.561.167v2.885Zm6.631,1.568h-8.2v-3.3a12.438,12.438,0,0,1-3.935-2.275l-2.858,1.651-4.1-7.1,2.859-1.649a12.282,12.282,0,0,1,0-4.547l-2.859-1.65,4.1-7.1,2.858,1.652a12.44,12.44,0,0,1,3.935-2.276v-3.3h8.2v3.3a12.435,12.435,0,0,1,3.935,2.276l2.861-1.652,4.1,7.1-2.857,1.65a12.283,12.283,0,0,1,0,4.547l2.857,1.649-4.1,7.1-2.861-1.651a12.422,12.422,0,0,1-3.935,2.275v3.3Z" transform="translate(-0.68 -4.629)" fill="#d6fff4"/>
    <path id="Trazado_8973" data-name="Trazado 8973" d="M277.523,4534.274a22.691,22.691,0,1,1,22.69-22.691,22.694,22.694,0,0,1-22.69,22.691Zm0-70.608a47.917,47.917,0,1,0,47.917,47.917,47.913,47.913,0,0,0-47.917-47.917Z" transform="translate(-2.335 -1.876)" fill="#fff"/>
    <path id="Trazado_8974" data-name="Trazado 8974" d="M255.372,4499.66l-17.282-9.293a45.012,45.012,0,0,1,39.693-23.735v19.621a25.417,25.417,0,0,0-22.411,13.407Z" transform="translate(-2.597 -1.968)" fill="#c2ffee"/>
    <path id="Trazado_8975" data-name="Trazado 8975" d="M254.691,4501.7l-17.783-8.295c.356-.764.74-1.531,1.144-2.281l17.285,9.287c-.229.426-.447.859-.646,1.289Z" transform="translate(-2.561 -2.724)" fill="#fff"/>
    <path id="Trazado_8976" data-name="Trazado 8976" d="M234.616,4525.962a45.176,45.176,0,0,1,2.158-32.482l17.783,8.295a25.552,25.552,0,0,0-1.213,18.33l-18.727,5.858Z" transform="translate(-2.427 -2.797)" fill="#d6fff4"/>
    <path id="Trazado_8977" data-name="Trazado 8977" d="M240.409,4538.656a44.839,44.839,0,0,1-5.728-11.848l18.727-5.855a25.262,25.262,0,0,0,3.225,6.668l-16.225,11.035Z" transform="translate(-2.492 -3.645)" fill="#fff"/>
    <path id="Trazado_8978" data-name="Trazado 8978" d="M267.092,4557.312a44.984,44.984,0,0,1-26.5-18.444l16.226-11.033a25.394,25.394,0,0,0,14.953,10.421l-4.678,19.056Z" transform="translate(-2.674 -3.857)" fill="#c2ffee"/>
    <path id="Trazado_8979" data-name="Trazado 8979" d="M278.7,4558.62a45.274,45.274,0,0,1-10.768-1.3l4.678-19.056a25.491,25.491,0,0,0,26.91-10.1l16.054,11.283A45.124,45.124,0,0,1,278.7,4558.62Z" transform="translate(-3.518 -3.867)" fill="#a4f5e1"/>
    <path id="Trazado_8980" data-name="Trazado 8980" d="M316.584,4539.417l-16.055-11.28q.366-.521.706-1.059l16.6,10.465c-.4.63-.816,1.262-1.248,1.874Z" transform="translate(-4.524 -3.834)" fill="#fff"/>
    <path id="Trazado_8981" data-name="Trazado 8981" d="M317.856,4537.48l-16.6-10.465c.4-.636.778-1.3,1.12-1.964l17.46,8.952c-.606,1.182-1.272,2.352-1.981,3.477Z" transform="translate(-4.547 -3.771)" fill="#fff"/>
    <path id="Trazado_8982" data-name="Trazado 8982" d="M319.873,4533.634l-17.461-8.949a25.134,25.134,0,0,0,2.779-11.574h19.622a45.182,45.182,0,0,1-4.941,20.523Z" transform="translate(-4.583 -3.403)" fill="#c2ffee"/>
    <path id="Trazado_8983" data-name="Trazado 8983" d="M324.356,4511.754H304.734a25.435,25.435,0,0,0-17.143-24.047l6.387-18.553a45.06,45.06,0,0,1,30.378,42.6Z" transform="translate(-4.125 -2.046)" fill="#f0ccff"/>
    <path id="Trazado_8984" data-name="Trazado 8984" d="M287.327,4487.629a25.39,25.39,0,0,0-8.28-1.376v-19.621a44.969,44.969,0,0,1,14.667,2.444l-6.387,18.553Z" transform="translate(-3.861 -1.968)" fill="#fff"/>
    <path id="Trazado_8985" data-name="Trazado 8985" d="M231.266,4577.983l-7.663,10.729h15.327l-7.663-10.729Z" transform="translate(-2.15 -5.405)" fill="#c2ffee"/>
    <path id="Trazado_8986" data-name="Trazado 8986" d="M257.925,4623.877l7.663-10.73H250.261l7.664,10.73Z" transform="translate(-2.973 -6.491)" fill="#dcccff"/>
    <path id="Trazado_8987" data-name="Trazado 8987" d="M312.877,4545.262l-1.125-1.093a44.016,44.016,0,0,0,11.622-22.04l1.54.309a45.569,45.569,0,0,1-12.037,22.825Z" transform="translate(-4.871 -3.681)" fill="#92edd5"/>
    <path id="Trazado_8988" data-name="Trazado 8988" d="M323.364,4502.378c-.263-1.11-.576-2.225-.927-3.312l1.494-.482c.363,1.126.687,2.28.96,3.432l-1.527.363Z" transform="translate(-5.201 -2.954)" fill="#92edd5"/>
    <path id="Trazado_8989" data-name="Trazado 8989" d="M317.848,4491.932a44.206,44.206,0,0,0-62.191-18.223l-.806-1.349a45.778,45.778,0,0,1,64.4,18.869l-1.4.7Z" transform="translate(-3.114 -1.945)" fill="#92edd5"/>
    <path id="Trazado_8990" data-name="Trazado 8990" d="M277.591,4557.954a45.8,45.8,0,0,1-45.75-45.75,45.265,45.265,0,0,1,9.9-28.42l1.229.976a43.711,43.711,0,0,0-9.556,27.445,44.18,44.18,0,0,0,75.874,30.78l1.125,1.1a45.39,45.39,0,0,1-32.82,13.875Z" transform="translate(-2.404 -2.497)" fill="#92edd5"/>
    <path id="Trazado_8991" data-name="Trazado 8991" d="M241.661,4642.337H209.3v-4.906h32.359v4.906Z" transform="translate(-1.708 -7.24)" fill="#eefff9"/>
    <path id="Trazado_8992" data-name="Trazado 8992" d="M241.992,4667.849H220.033v-4.906h21.959v4.906Z" transform="translate(-2.04 -8.027)" fill="#eefff9"/>
    <path id="Trazado_8993" data-name="Trazado 8993" d="M241.11,4625.331H191.448v-4.908H241.11v4.908Z" transform="translate(-1.157 -6.715)" fill="#f7fffc"/>
    <path id="Trazado_8994" data-name="Trazado 8994" d="M240.861,4633.833H183.386v-4.906h57.475v4.906Z" transform="translate(-0.908 -6.977)" fill="#f7fffc"/>
    <path id="Trazado_8995" data-name="Trazado 8995" d="M241.349,4650.841H199.2v-4.906h42.146v4.906Z" transform="translate(-1.397 -7.502)" fill="#f7fffc"/>
    <path id="Trazado_8996" data-name="Trazado 8996" d="M240.342,4659.344H166.581v-4.905h73.761v4.905Z" transform="translate(-0.39 -7.765)" fill="#f7fffc"/>
    <path id="Trazado_8997" data-name="Trazado 8997" d="M242.347,4676.353H231.51v-4.908h10.837v4.908Z" transform="translate(-2.394 -8.29)" fill="#f7fffc"/>
    <path id="Trazado_8998" data-name="Trazado 8998" d="M241.6,4504.664l-29.616-12.577H184.2v-1.57h28.112l.147.063,29.763,12.639-.614,1.445Z" transform="translate(-0.933 -2.705)" fill="#c2ffee"/>
    <path id="Trazado_8999" data-name="Trazado 8999" d="M180.187,4492.087h-5.1v-1.57h5.1v1.57Z" transform="translate(-0.652 -2.705)" fill="#c2ffee"/>
    <path id="Trazado_9000" data-name="Trazado 9000" d="M205.147,4486.722H184.2v-1.57h20.951v1.57Z" transform="translate(-0.933 -2.54)" fill="#c2ffee"/>
    <path id="Trazado_9001" data-name="Trazado 9001" d="M197,4481.357H166.581v-1.57H197v1.57Z" transform="translate(-0.39 -2.373)" fill="#c2ffee"/>
    <path id="Trazado_9002" data-name="Trazado 9002" d="M197.539,4475.992H184.2v-1.569h13.343v1.569Z" transform="translate(-0.933 -2.208)" fill="#c2ffee"/>
    <path id="Trazado_9003" data-name="Trazado 9003" d="M354.5,4652.016h0l-27.187-21.2c1.129,17.375,13.286,24.937,26.574,25.467q1-1.583,2.118-3.1l-1.5-1.171Z" transform="translate(-5.351 -7.036)" fill="#3d4159"/>
    <path id="Trazado_9004" data-name="Trazado 9004" d="M363.907,4646.119h0l-10.385-41.269-19.074,13.391,26.1,26.411h0l2.387,2.417c.326-.316.642-.641.977-.95Z" transform="translate(-5.571 -6.235)" fill="#3d4159"/>
    <path id="Trazado_9005" data-name="Trazado 9005" d="M351,4578.123c.235-.213.477-.418.737-.613a10.148,10.148,0,0,1,5.918-2.028c.068,0,.137-.012.2-.012h13.393v-23.661l-.627.125a3.925,3.925,0,0,1-4.614-3.083h0a3.926,3.926,0,0,1,3.084-4.616l.771-.153h0a23.956,23.956,0,0,0,13.225-7.57,30.708,30.708,0,0,1,13.828-8.9l5.248,19.885a12.717,12.717,0,0,1-9.819,15.721l-3.828.762v11.49h4.613c.072,0,.141.01.213.012.21,0,.421.013.631.032.073.006.146,0,.218.012s.129.022.193.03h0c.186.023.373.051.559.085.093.017.187.028.278.047.073.014.141.037.21.054.152.036.3.074.456.117.109.03.22.057.329.091.078.024.152.057.23.083.125.044.248.089.371.136s.236.086.352.138c.083.036.162.077.243.115.062.031.127.052.187.082s.1.056.149.082c.11.058.22.111.329.169.076.043.147.091.221.135.121.071.242.145.36.22.032.02.064.038.1.058l0,0,12.559,8.287c.016-.175.036-.344.05-.526.927-11.308-7.567-11.9-6.541-23.2.236-2.57,2.817-6.662,3.619-8.224l.009-.008c.135-.271.269-.535.4-.807a29.175,29.175,0,1,0-54.942-6.731c.056.295.121.6.195.9.4,1.7,1.957,6.054,1.526,8.848-1.729,11.214-10.124,9.732-11.953,20.931a24.171,24.171,0,0,0-.112,8.221l7.431-6.733,0,0Z" transform="translate(-5.844 -3.336)" fill="#3d4159"/>
    <path id="Trazado_9006" data-name="Trazado 9006" d="M402.506,4646.7h0a44.861,44.861,0,0,1,2.107,4.993c3.6-2.9,5.824-7.192,5.824-13.011,0-4.894-2.641-8.471-3.982-13.507-.127-.476-.284-1.037-.449-1.637a11.726,11.726,0,0,1-2.468.868l-1.03,22.293Z" transform="translate(-7.672 -6.811)" fill="#3d4159"/>
    <path id="Trazado_9007" data-name="Trazado 9007" d="M405.162,4622.195c.075-.033.144-.068.216-.1-.072.037-.141.072-.216.1Z" transform="translate(-7.754 -6.767)" fill="#327a69"/>
    <path id="Trazado_9008" data-name="Trazado 9008" d="M404.269,4622.548c.091-.031.182-.064.271-.1-.089.034-.18.067-.271.1Z" transform="translate(-7.727 -6.778)" fill="#327a69"/>
    <path id="Trazado_9009" data-name="Trazado 9009" d="M403.648,4622.745h0c.009,0,.016-.006.024-.008l-.024.008Z" transform="translate(-7.708 -6.786)" fill="#327a69"/>
    <path id="Trazado_9010" data-name="Trazado 9010" d="M364.845,4647.435Z" transform="translate(-6.51 -7.549)" fill="#944ff0"/>
    <path id="Trazado_9011" data-name="Trazado 9011" d="M399.593,4578.732c.076.04.153.072.226.111-.109-.058-.218-.111-.329-.169.035.018.069.038.1.058Z" transform="translate(-7.579 -5.426)" fill="#b695ff"/>
    <path id="Trazado_9012" data-name="Trazado 9012" d="M400.521,4579.279l0-.006c-.032-.021-.064-.038-.1-.058.032.02.062.043.092.064Z" transform="translate(-7.608 -5.443)" fill="#b695ff"/>
    <path id="Trazado_9013" data-name="Trazado 9013" d="M396.651,4577.711c.074.012.149.02.221.036-.091-.019-.185-.03-.278-.047l.057.012Z" transform="translate(-7.49 -5.396)" fill="#b695ff"/>
    <path id="Trazado_9014" data-name="Trazado 9014" d="M398.612,4578.281c.089.036.181.064.268.1-.115-.052-.235-.093-.352-.138.028.011.055.024.083.036Z" transform="translate(-7.55 -5.413)" fill="#b695ff"/>
    <path id="Trazado_9015" data-name="Trazado 9015" d="M395.622,4577.571c.062.006.125,0,.187.01-.072-.008-.145-.006-.218-.012l.031,0Z" transform="translate(-7.459 -5.392)" fill="#b695ff"/>
    <path id="Trazado_9016" data-name="Trazado 9016" d="M396.017,4577.612Z" transform="translate(-7.472 -5.394)" fill="#b695ff"/>
    <path id="Trazado_9017" data-name="Trazado 9017" d="M397.641,4577.947c.085.025.173.042.258.069-.11-.035-.221-.061-.329-.091l.072.022Z" transform="translate(-7.52 -5.403)" fill="#b695ff"/>
    <path id="Trazado_9018" data-name="Trazado 9018" d="M394.718,4577.524c.068,0,.134.01.2.012h.013c-.072,0-.142-.012-.213-.012Z" transform="translate(-7.432 -5.391)" fill="#b695ff"/>
    <path id="Trazado_9019" data-name="Trazado 9019" d="M425.96,4608.36h0l14.589,2.475h0l-14.589-2.475Z" transform="translate(-8.396 -6.343)" fill="#b695ff"/>
    <path id="Trazado_9020" data-name="Trazado 9020" d="M348.066,4680.479c.038-.413.081-.822.128-1.23.037-.312.078-.622.121-.931a51.106,51.106,0,0,1,6.645-19.133c.034-.057.068-.111.1-.168q1.276-2.137,2.758-4.152l-1.235-.964q-1.116,1.515-2.118,3.1a53.018,53.018,0,0,0-8.2,28.189h1.568c0-.8.024-1.6.063-2.392.015-.312.04-.625.06-.938.03-.46.065-.919.109-1.377Z" transform="translate(-5.936 -7.749)" fill="#fff"/>
    <path id="Trazado_9021" data-name="Trazado 9021" d="M384.678,4647.434H364.321c-.335.31-.651.633-.977.95l1.672,1.693,7.88.375a5.494,5.494,0,1,1-2.288,10.59v.005l-8.755-3.473,0-.019a3.822,3.822,0,0,1-.96-.538l0,.006-3.025-2.358q-1.483,2.01-2.758,4.152c-.032.057-.066.111-.1.168a51.109,51.109,0,0,0-6.645,19.133c-.041.309-.084.619-.121.931-.047.408-.09.817-.128,1.23q-.065.687-.109,1.377c-.02.313-.046.625-.06.938-.037.8-.063,1.592-.063,2.392v4.276h46.653a10.988,10.988,0,0,0,10.988-10.989v-10.749a45.5,45.5,0,0,0-4.707-20.09Z" transform="translate(-5.986 -7.549)" fill="#60dbbd"/>
    <path id="Trazado_9022" data-name="Trazado 9022" d="M358.1,4654.618l3.025,2.358,0-.006a3.806,3.806,0,0,0,.96.538l0,.02,8.755,3.473v-.005a5.492,5.492,0,1,0,2.288-10.59l-7.88-.375-1.672-1.693-2.387-2.417-5.826,6.563,1.5,1.171,1.235.964Z" transform="translate(-6.217 -7.502)" fill="#f6caae"/>
    <path id="Trazado_9023" data-name="Trazado 9023" d="M433.249,4561.466l-8.3,35.124-14.522-9.581-12.559-8.287,0,0,0,.006c-.03-.021-.06-.044-.092-.064-.118-.075-.239-.148-.36-.22-.074-.044-.145-.091-.221-.135s-.15-.072-.226-.111c-.034-.02-.068-.04-.1-.058-.05-.026-.1-.056-.149-.081s-.125-.051-.187-.082c-.081-.038-.16-.079-.243-.115s-.179-.066-.268-.1c-.028-.011-.055-.025-.083-.036-.123-.047-.246-.092-.371-.136-.078-.027-.152-.059-.23-.083s-.173-.043-.258-.068l-.072-.023c-.153-.043-.3-.081-.456-.117-.07-.017-.138-.04-.21-.054s-.147-.023-.221-.036l-.057-.012c-.186-.034-.373-.062-.559-.085h0c-.064-.008-.128-.023-.193-.03s-.125,0-.187-.01l-.031,0c-.21-.019-.421-.028-.631-.032h-.013c-.069,0-.135-.012-.2-.012H390.2v18.158l-27.683-18.158h-5.55c-.066,0-.135.01-.2.012a10.148,10.148,0,0,0-5.918,2.028c-.26.195-.5.4-.737.613l0,0-7.431,6.733-25.824,23.4.006.006c-.081.075-.165.141-.243.218a7.412,7.412,0,0,0-.062,10.484,7.082,7.082,0,0,0,.726.637l-.008.007,9.637,7.513,27.187,21.2h0l5.826-6.562h0l-26.1-26.411-.109.078-.9-1.286,22.1-15.51.9,1.284-2.911,2.044,10.385,41.269h36.5l1.03-22.293a11.523,11.523,0,0,1-2.229.295v.019h-6.347v-1.568h5.93v0l.07,0c.294,0,.587-.016.879-.045.152-.012.3-.038.448-.058s.314-.042.469-.073c.182-.032.361-.074.538-.118.107-.026.212-.05.319-.081h0l.024-.008c.195-.054.389-.113.578-.179.091-.031.182-.064.271-.1.2-.076.4-.155.594-.244.075-.032.144-.068.216-.1.2-.1.409-.2.607-.309.048-.027.094-.059.142-.087a10.169,10.169,0,0,0,3.55-14.1l19.6,9.565,0-.006a7.394,7.394,0,0,0,10.623-5.9l-14.589-2.476h0l14.589,2.476h0l4.8-46.453h0l-8.65-1.47Z" transform="translate(-4.953 -4.895)" fill="#ff6959"/>
    <path id="Trazado_9024" data-name="Trazado 9024" d="M392.8,4555.577a4.315,4.315,0,0,1-5.074-3.394l8.468-1.681a4.317,4.317,0,0,1-3.394,5.075Zm-3.641,8.933,3.828-.762a12.717,12.717,0,0,0,9.819-15.721l-5.248-19.885a30.7,30.7,0,0,0-13.828,8.9,23.957,23.957,0,0,1-13.225,7.57h0l-.771.153a3.925,3.925,0,0,0-3.084,4.615h0a3.924,3.924,0,0,0,4.614,3.083l.627-.125V4576H364.05l27.683,18.158V4576H389.16v-11.49Z" transform="translate(-6.485 -3.867)" fill="#f6caae"/>
    <path id="Trazado_9025" data-name="Trazado 9025" d="M388.481,4552.9a4.317,4.317,0,0,0,8.468-1.681l-8.468,1.681Z" transform="translate(-7.239 -4.579)" fill="#fff"/>
    <path id="Trazado_9026" data-name="Trazado 9026" d="M450.143,4549.492a6.624,6.624,0,0,0-5.515-10.292h-1.735v-9.433a1.962,1.962,0,0,0-3.925,0v22.481l-1.617,6.85h0l-.315,1.329,8.65,1.47.7-6.753,3.759-5.652Z" transform="translate(-8.738 -3.856)" fill="#f6caae"/>
    <path id="Trazado_9027" data-name="Trazado 9027" d="M405.662,4621.739c-.2.109-.4.211-.607.309-.072.036-.141.072-.216.1-.193.089-.393.169-.594.244-.089.034-.18.067-.271.1-.189.066-.383.125-.578.18l-.024.008c-.107.031-.212.055-.319.081-.177.044-.356.085-.538.117-.155.031-.312.052-.469.073s-.3.045-.448.058c-.292.029-.585.044-.879.046l-.07,0v0h-5.93v1.568h6.347v-.02a11.448,11.448,0,0,0,2.229-.295,11.85,11.85,0,0,0,4.838-2.377l-1-1.207a10.039,10.039,0,0,1-1.334.921c-.047.028-.094.06-.142.087Z" transform="translate(-7.432 -6.724)" fill="#fff"/>
    <path id="Trazado_9028" data-name="Trazado 9028" d="M356.4,4602.7l-.9-1.284-22.1,15.511.9,1.286.11-.078,19.074-13.391,2.911-2.044Z" transform="translate(-5.539 -6.129)" fill="#fff"/>
    <path id="Trazado_9029" data-name="Trazado 9029" d="M443.719,4681.517H381.327v4.09h62.392v-4.09Z" transform="translate(-7.019 -8.601)" fill="#327a69"/>
    <path id="Trazado_9030" data-name="Trazado 9030" d="M527.426,4622.092l-9.842,47.762-.072.353-2.792,13.57H427.532l12.706-61.684Z" transform="translate(-8.445 -6.766)" fill="#fff"/>
    <path id="Trazado_9031" data-name="Trazado 9031" d="M530.616,4622.092l-9.842,47.762-.072.353-2.792,13.57H431.462l12.706-61.684Z" transform="translate(-8.566 -6.766)" fill="#a4f5e1"/>
    <path id="Trazado_9032" data-name="Trazado 9032" d="M517.35,4685.741h0Z" transform="translate(-11.073 -8.732)" fill="#d6fff4"/>
    <path id="Trazado_9033" data-name="Trazado 9033" d="M510.162,4685.3h-78.7l89.312-13.922-.072.353-2.792,13.57h-7.747Z" transform="translate(-8.566 -8.288)" fill="#d6fff4"/>
    <path id="Trazado_9034" data-name="Trazado 9034" d="M488.716,4653.711a8.148,8.148,0,0,1-7.6,6.3,4.984,4.984,0,0,1-5.007-6.3,8.149,8.149,0,0,1,7.6-6.3,4.982,4.982,0,0,1,5,6.3Z" transform="translate(-9.94 -7.548)" fill="#fff"/>
    <path id="Trazado_9035" data-name="Trazado 9035" d="M556.953,4685.741h0Z" transform="translate(-11.681 -8.732)" fill="#a4f5e1"/>
    <path id="Trazado_9036" data-name="Trazado 9036" d="M499.719,4685.741H190.394v7.849H633.857v-7.849H499.719Z" transform="translate(-1.125 -8.732)" fill="#a4f5e1"/>
    <path id="Trazado_9037" data-name="Trazado 9037" d="M531.667,4685.741h0Z" transform="translate(-10.977 -8.732)" fill="#a4f5e1"/>
    <path id="Trazado_9038" data-name="Trazado 9038" d="M425.163,4693.84h0Z" transform="translate(-4.022 -8.982)" fill="#f7fffc"/>
    <path id="Trazado_9039" data-name="Trazado 9039" d="M425.163,4694.6H284.238v-1.57H425.163v1.57Z" transform="translate(-4.022 -8.957)" fill="#327a69"/>
    <path id="Trazado_9040" data-name="Trazado 9040" d="M263.2,4693.84h0Z" transform="translate(-2.244 -8.982)" fill="#f7fffc"/>
    <path id="Trazado_9041" data-name="Trazado 9041" d="M263.2,4694.6H226.663v-1.57H263.2v1.57Z" transform="translate(-2.244 -8.957)" fill="#327a69"/>
    <path id="Trazado_9042" data-name="Trazado 9042" d="M276.855,4693.84h0Z" transform="translate(-3.613 -8.982)" fill="#f7fffc"/>
    <path id="Trazado_9043" data-name="Trazado 9043" d="M276.855,4694.6h-5.863v-1.57h5.863v1.57Z" transform="translate(-3.613 -8.957)" fill="#327a69"/>
    <path id="Trazado_9044" data-name="Trazado 9044" d="M567.878,4693.84h0Z" transform="translate(-9.823 -8.982)" fill="#f7fffc"/>
    <path id="Trazado_9045" data-name="Trazado 9045" d="M567.878,4694.6H472.16v-1.57h95.718v1.57Z" transform="translate(-9.823 -8.957)" fill="#327a69"/>
    <path id="Trazado_9046" data-name="Trazado 9046" d="M667.427,4710.4H515.114v-7.85H667.427v7.85Z" transform="translate(-11.148 -9.25)" fill="#f0fffa"/>
    <path id="Trazado_9047" data-name="Trazado 9047" d="M507.473,4710.4H489.808v-7.85h17.665v7.85Z" transform="translate(-10.367 -9.25)" fill="#e6fff6"/>
    <path id="Trazado_9048" data-name="Trazado 9048" d="M265.575,4722.675H237.3v-3.925h28.275v3.925Z" transform="translate(-2.573 -9.751)" fill="#f0fffa"/>
    <path id="Trazado_9049" data-name="Trazado 9049" d="M276.908,4722.675h-4.093v-3.925h4.093v3.925Z" transform="translate(-3.669 -9.751)" fill="#f0fffa"/>
    <path id="Trazado_9050" data-name="Trazado 9050" d="M379.476,4722.675H285.34v-3.925h94.137v3.925Z" transform="translate(-4.056 -9.751)" fill="#f0fffa"/>
    <path id="Trazado_9051" data-name="Trazado 9051" d="M433.686,4722.675H393.3v-3.925h40.384v3.925Z" transform="translate(-7.388 -9.751)" fill="#f0fffa"/>
    <path id="Trazado_9052" data-name="Trazado 9052" d="M587.854,4722.675H440.392v-3.925H587.854v3.925Z" transform="translate(-8.842 -9.751)" fill="#f0fffa"/>
    <path id="Trazado_9053" data-name="Trazado 9053" d="M607.267,4722.675h-4.584v-3.925h4.584v3.925Z" transform="translate(-13.852 -9.751)" fill="#f0fffa"/>
    <path id="Trazado_9054" data-name="Trazado 9054" d="M480.881,4710.4h-128.2v-7.85h128.2v7.85Z" transform="translate(-6.134 -9.25)" fill="#f0fffa"/>
    <path id="Trazado_9055" data-name="Trazado 9055" d="M344.975,4710.4H322.726v-7.85h22.249v7.85Z" transform="translate(-5.21 -9.25)" fill="#e6fff6"/>
    <path id="Trazado_9056" data-name="Trazado 9056" d="M317.942,4710.4h-6.711v-7.85h6.711v7.85Z" transform="translate(-4.855 -9.25)" fill="#d6fff4"/>
    <path id="Trazado_9057" data-name="Trazado 9057" d="M306.28,4710.4H252.53v-7.85h53.75v7.85Z" transform="translate(-3.043 -9.25)" fill="#f0fffa"/>
    <path id="Trazado_9058" data-name="Trazado 9058" d="M241.652,4710.4H153.961v-7.85h87.692v7.85Z" transform="translate(0 -9.25)" fill="#f0fffa"/>
    <path id="Trazado_9059" data-name="Trazado 9059" d="M523.4,4662.951l-1.536-.316,8.2-39.783H444.573v-1.569h87.412l-8.588,41.668Z" transform="translate(-8.971 -6.741)" fill="#77e8ca"/>
    <path id="Trazado_9060" data-name="Trazado 9060" d="M523.288,4676.544l-1.536-.316,1.377-6.7,1.538.317-1.379,6.7Z" transform="translate(-11.353 -8.231)" fill="#77e8ca"/>
  </g>
</svg>
