<svg xmlns="http://www.w3.org/2000/svg" width="502.444" height="309.237" viewBox="0 0 502.444 309.237">
  <g id="Grupo_9147" data-name="Grupo 9147" transform="translate(-796.366 -4413.219)">
    <path id="Trazado_9061" data-name="Trazado 9061" d="M858.78,4704.463H1228.6c65.621-38.165,53.783-116.274,35.6-129.411-24.865-17.963-58.582,49.653-82.91,37.3-69.5-35.29,75.016-134.679,16.778-157.708-37.9-14.985-64.216,99.666-110.421,59.627-24.039-20.83-2.2-51.159-6.807-75.768-7.3-39.048-72.551-30.723-103.267,29.7-21.444,42.182-66.065,23.157-92.11,14.119-24.183-8.389-91.72,31.8-10.737,104.989,26.917,24.328-94.469,38.621-15.939,117.151Z" transform="translate(-0.964 -0.04)" fill="#f7fffc" opacity="0.5"/>
    <path id="Trazado_9062" data-name="Trazado 9062" d="M958.01,4419.237c-.278-2.518-1.014-4.232-2.757-5.178-5.168-2.8-18.141,1.744-23.533,8.761-7.522,9.785-.662,24.832,6.644,25.792,8.5,1.119,21.085-16.377,19.647-29.375Z" transform="translate(-3.581 0)" fill="#f7fffc" opacity="0.5"/>
    <path id="Trazado_9063" data-name="Trazado 9063" d="M1055.853,4721.738h0Z" transform="translate(-3.803 -8.363)" fill="#d6fff4"/>
    <path id="Trazado_9064" data-name="Trazado 9064" d="M1055.853,4722.281h-119.2v-1.119h119.2v1.119Z" transform="translate(-3.803 -8.348)" fill="#b8ffeb"/>
    <path id="Trazado_9065" data-name="Trazado 9065" d="M964.721,4730.5h0Z" transform="translate(-2.538 -8.601)" fill="#d6fff4"/>
    <path id="Trazado_9066" data-name="Trazado 9066" d="M964.721,4731.042h-74.74v-1.119h74.74v1.119Z" transform="translate(-2.538 -8.585)" fill="#b8ffeb"/>
    <path id="Trazado_9067" data-name="Trazado 9067" d="M1097.679,4730.5h0Z" transform="translate(-5.495 -8.601)" fill="#d6fff4"/>
    <path id="Trazado_9068" data-name="Trazado 9068" d="M1097.68,4731.042H999.06v-1.119h98.62v1.119Z" transform="translate(-5.495 -8.585)" fill="#b8ffeb"/>
    <path id="Trazado_9069" data-name="Trazado 9069" d="M901.122,4721.872h0Z" transform="translate(-1.872 -8.367)" fill="#d6fff4"/>
    <path id="Trazado_9070" data-name="Trazado 9070" d="M901.122,4722.415h-35.7V4721.3h35.7v1.118Z" transform="translate(-1.872 -8.352)" fill="#b8ffeb"/>
    <path id="Trazado_9071" data-name="Trazado 9071" d="M1150.737,4721.738h0Z" transform="translate(-7.647 -8.363)" fill="#d6fff4"/>
    <path id="Trazado_9072" data-name="Trazado 9072" d="M1150.737,4722.281h-72.285v-1.119h72.285v1.119Z" transform="translate(-7.647 -8.348)" fill="#b8ffeb"/>
    <path id="Trazado_9073" data-name="Trazado 9073" d="M1015.6,4666.745a7.048,7.048,0,1,0,7.048,7.048,7.056,7.056,0,0,0-7.048-7.048Zm0,15.215a8.167,8.167,0,1,1,8.167-8.167,8.177,8.177,0,0,1-8.167,8.167Z" transform="translate(-5.722 -6.842)" fill="#327a69"/>
    <path id="Trazado_9074" data-name="Trazado 9074" d="M1041.92,4710.933H988.229v-36.912h53.691v36.912Z" transform="translate(-5.201 -7.07)" fill="#b8ffeb"/>
    <path id="Trazado_9075" data-name="Trazado 9075" d="M1043.26,4710.933h-5.593v-36.912h5.593v36.912Z" transform="translate(-6.541 -7.07)" fill="#327a69"/>
    <path id="Trazado_9076" data-name="Trazado 9076" d="M1036.327,4693.535h-48.1v-1.119h48.1v1.119Z" transform="translate(-5.201 -7.569)" fill="#327a69"/>
    <path id="Trazado_9077" data-name="Trazado 9077" d="M1016.754,4697.45h-7.83v-5.034h7.83v5.034Z" transform="translate(-5.762 -7.569)" fill="#fff"/>
    <path id="Trazado_9078" data-name="Trazado 9078" d="M1017.67,4458.376v178.966H905.816V4458.376Z" transform="translate(-2.967 -1.225)" fill="#ebfff9"/>
    <path id="Trazado_9079" data-name="Trazado 9079" d="M963.845,4710.073h-1.119v-67.744h1.119v67.744Z" transform="translate(-4.51 -6.211)" fill="#327a69"/>
    <path id="Trazado_9080" data-name="Trazado 9080" d="M999.451,4711.287l-37.209-37.208-37.209,37.208-.791-.791,38-38,38,38-.791.791Z" transform="translate(-3.467 -7.029)" fill="#327a69"/>
    <path id="Trazado_9081" data-name="Trazado 9081" d="M1017.67,4624.417v17.427H905.816l111.854-17.427Z" transform="translate(-2.967 -5.725)" fill="#d6fff4"/>
    <path id="Trazado_9082" data-name="Trazado 9082" d="M942.9,4477.44v25.586l-22.161,12.794a25.587,25.587,0,0,1,22.161-38.38Z" transform="translate(-3.279 -1.741)" fill="#ff5966"/>
    <path id="Trazado_9083" data-name="Trazado 9083" d="M965.156,4516.533a25.591,25.591,0,0,1-44.323,0l22.161-12.794,22.161,12.794Z" transform="translate(-3.374 -2.454)" fill="#a480ff"/>
    <path id="Trazado_9084" data-name="Trazado 9084" d="M969.2,4503.026a25.433,25.433,0,0,1-3.426,12.794l-22.161-12.794V4477.44a25.581,25.581,0,0,1,25.587,25.586Z" transform="translate(-3.992 -1.741)" fill="#60dbbd"/>
    <path id="Trazado_9085" data-name="Trazado 9085" d="M946.3,4544H918.821v-1.119H946.3V4544Z" transform="translate(-3.32 -3.515)" fill="#327a69"/>
    <path id="Trazado_9086" data-name="Trazado 9086" d="M946.3,4547.447H918.821v-1.118H946.3v1.118Z" transform="translate(-3.32 -3.609)" fill="#327a69"/>
    <path id="Trazado_9087" data-name="Trazado 9087" d="M946.3,4550.9H918.821v-1.118H946.3v1.118Z" transform="translate(-3.32 -3.702)" fill="#327a69"/>
    <path id="Trazado_9088" data-name="Trazado 9088" d="M937.277,4554.346H918.821v-1.119h18.456v1.119Z" transform="translate(-3.32 -3.795)" fill="#327a69"/>
    <path id="Trazado_9089" data-name="Trazado 9089" d="M937.277,4557.794H918.821v-1.119h18.456v1.119Z" transform="translate(-3.32 -3.889)" fill="#327a69"/>
    <path id="Trazado_9090" data-name="Trazado 9090" d="M1009.1,4483.911H981.624v-1.118H1009.1v1.118Z" transform="translate(-5.022 -1.886)" fill="#327a69"/>
    <path id="Trazado_9091" data-name="Trazado 9091" d="M1009.1,4487.361H981.624v-1.119H1009.1v1.119Z" transform="translate(-5.022 -1.98)" fill="#327a69"/>
    <path id="Trazado_9092" data-name="Trazado 9092" d="M1009.1,4490.81H981.624v-1.119H1009.1v1.119Z" transform="translate(-5.022 -2.073)" fill="#327a69"/>
    <path id="Trazado_9093" data-name="Trazado 9093" d="M1000.08,4494.259H981.624v-1.119h18.456v1.119Z" transform="translate(-5.022 -2.167)" fill="#327a69"/>
    <path id="Trazado_9094" data-name="Trazado 9094" d="M1000.08,4497.708H981.624v-1.118h18.456v1.118Z" transform="translate(-5.022 -2.26)" fill="#327a69"/>
    <path id="Trazado_9095" data-name="Trazado 9095" d="M1008.664,4552.946H965.6v-10.067h43.064v10.067Z" transform="translate(-4.588 -3.515)" fill="#ff5966"/>
    <path id="Trazado_9096" data-name="Trazado 9096" d="M965.872,4552.659h42.5v-9.507h-42.5v9.507Zm43.064.56H965.313v-10.626h43.623v10.626Z" transform="translate(-4.58 -3.507)" fill="#ff5966"/>
    <path id="Trazado_9097" data-name="Trazado 9097" d="M1008.664,4569.042H965.6v-10.067h43.064v10.067Z" transform="translate(-4.588 -3.952)" fill="#a480ff"/>
    <path id="Trazado_9098" data-name="Trazado 9098" d="M1008.664,4585.138H965.6v-10.066h43.064v10.066Z" transform="translate(-4.588 -4.388)" fill="#60dbbd"/>
    <path id="Trazado_9099" data-name="Trazado 9099" d="M1298.81,4713.08H796.366v-1.119H1298.81v1.119Z" transform="translate(0 -8.098)" fill="#b8ffeb"/>
    <path id="Trazado_9100" data-name="Trazado 9100" d="M1166.65,4523.1c-1.644,7.621-4.4,14.958-6.6,22.438-2.265,7.7-4.55,15.531-4.523,23.556a42.034,42.034,0,0,0,11.345,28.4c2.808,2.974,6.086,5.574,8.249,9.045s2.96,8.24.545,11.539c-3.485,4.762-10.939,3.731-16.035,6.706-6.417,3.746-7.308,13.292-3.649,19.758s20.316,24.966,44.085,20.385c10.638-2.05,25.058-12.175,24.647-23-.428-11.272-11.193-20.4-10.827-31.679.24-7.387,5.207-13.63,9.505-19.642s8.3-13.336,6.325-20.457c-2.913-10.483-16.413-13.721-22.95-22.416-4.21-5.6-5.137-12.967-5.4-19.968s-.083-14.176-2.419-20.781c-5.664-16.021-25.775-14.11-32.3,16.12Z" transform="translate(-9.69 -2.272)" fill="#b8ffeb"/>
    <path id="Trazado_9101" data-name="Trazado 9101" d="M1193.228,4686.734h-1.119v-121.5h1.119v121.5Z" transform="translate(-10.728 -4.121)" fill="#327a69"/>
    <path id="Trazado_9102" data-name="Trazado 9102" d="M1193.221,4600.809l-1.1-.182c1.81-10.992,14.309-17.828,14.84-18.112l.53.984c-.125.068-12.548,6.865-14.266,17.31Z" transform="translate(-10.728 -4.59)" fill="#327a69"/>
    <path id="Trazado_9103" data-name="Trazado 9103" d="M1191.834,4650.127c-1.223-7.434-10.077-12.272-10.167-12.321l.53-.984c.383.207,9.428,5.154,10.741,13.124l-1.1.182Z" transform="translate(-10.445 -6.062)" fill="#327a69"/>
    <path id="Trazado_9104" data-name="Trazado 9104" d="M1198.319,4711.251h-12.586a13.84,13.84,0,0,1-13.84-13.84v-11.6h40.267v11.6a13.84,13.84,0,0,1-13.84,13.84Z" transform="translate(-10.18 -7.389)" fill="#ff5966"/>
    <path id="Trazado_9105" data-name="Trazado 9105" d="M1179.025,4710.369a14.372,14.372,0,0,1-7.709-12.753v-4.267h1.119v4.267a13.258,13.258,0,0,0,7.111,11.764l-.521.99Z" transform="translate(-10.164 -7.594)" fill="#327a69"/>
    <path id="Trazado_9106" data-name="Trazado 9106" d="M1212.159,4690.663h-40.268v-1.119h40.268v1.119Z" transform="translate(-10.18 -7.491)" fill="#fff"/>
    <path id="Trazado_9107" data-name="Trazado 9107" d="M1212.566,4686.351h-25.65v-1.118h25.65v1.118Z" transform="translate(-10.587 -7.374)" fill="#327a69"/>
    <path id="Trazado_9108" data-name="Trazado 9108" d="M1193.1,4712.536h0Z" transform="translate(-10.755 -8.114)" fill="#f7fffc"/>
    <path id="Trazado_9109" data-name="Trazado 9109" d="M1218.892,4713.08H1193.1v-1.119h25.793v1.119Z" transform="translate(-10.755 -8.098)" fill="#327a69"/>
    <path id="Trazado_9110" data-name="Trazado 9110" d="M921.1,4516.3l-.559-.968,21.883-12.632v-25.336h1.118v25.982L921.1,4516.3Z" transform="translate(-3.366 -1.739)" fill="#fff"/>
    <path id="Trazado_9111" data-name="Trazado 9111" d="M965.487,4517l-22.162-12.793.559-.968,22.162,12.793-.559.968Z" transform="translate(-3.984 -2.44)" fill="#fff"/>
    <path id="Trazado_9112" data-name="Trazado 9112" d="M1053.707,4713.081h-31.65v-1.118h31.65v1.118Z" transform="translate(-6.118 -8.098)" fill="#327a69"/>
    <path id="Trazado_9113" data-name="Trazado 9113" d="M1127.373,4713.081h-63.85v-1.118h63.85v1.118Z" transform="translate(-7.242 -8.098)" fill="#327a69"/>
    <path id="Trazado_9114" data-name="Trazado 9114" d="M1138.917,4713.08h-5.139v-1.119h5.139v1.119Z" transform="translate(-9.147 -8.098)" fill="#327a69"/>
    <path id="Trazado_9115" data-name="Trazado 9115" d="M1237.5,4713.08h-5.139v-1.119h5.139v1.119Z" transform="translate(-11.819 -8.098)" fill="#327a69"/>
    <path id="Trazado_9116" data-name="Trazado 9116" d="M906.359,4637.343h-1.119V4458.376h1.119v178.966Z" transform="translate(-2.951 -1.225)" fill="#fff"/>
    <path id="Trazado_9117" data-name="Trazado 9117" d="M1018.985,4641.206H933.719v-1.118h84.148v-59.841h1.119v60.959Z" transform="translate(-3.723 -4.528)" fill="#b8ffeb"/>
    <path id="Trazado_9118" data-name="Trazado 9118" d="M1021.33,4574.968h-1.119v-3.734h1.119v3.734Z" transform="translate(-6.068 -4.284)" fill="#b8ffeb"/>
    <path id="Trazado_9119" data-name="Trazado 9119" d="M1109.823,4543.883c-1.612-2.266-3.224-4.479-3.224-7.756,0-8.08,3.6-8.391,3.278-16.47s-6.316-7.762-6.64-15.84a10.009,10.009,0,0,1,.251-2.775,20.325,20.325,0,0,0,1.595-3.35c.078-.2.15-.414.216-.617a20.788,20.788,0,1,0-39.443,0c.066.2.138.4.21.6l.006.006a20.612,20.612,0,0,0,1.6,3.368,10.182,10.182,0,0,1,.246,2.763c-.324,8.079-6.311,7.762-6.635,15.84s3.279,8.39,3.279,16.47c0,3.278-1.612,5.49-3.231,7.756s-3.218,4.6-3.218,8.084a18.114,18.114,0,0,0,18.118,18.117h18.7a18.109,18.109,0,0,0,18.112-18.117c0-3.489-1.612-5.813-3.218-8.084Z" transform="translate(-7.096 -1.531)" fill="#3d4159"/>
    <path id="Trazado_9120" data-name="Trazado 9120" d="M1071.225,4568.456a13,13,0,1,0,13-13,13,13,0,0,0-13,13Z" transform="translate(-7.451 -3.856)" fill="#944ff0"/>
    <path id="Trazado_9121" data-name="Trazado 9121" d="M1015.372,4535.685a2.8,2.8,0,1,1,2.877,2.713,2.8,2.8,0,0,1-2.877-2.713Z" transform="translate(-5.937 -3.242)" fill="#b695ff"/>
    <path id="Trazado_9122" data-name="Trazado 9122" d="M1069.278,4526.465a7.27,7.27,0,1,0,7.27-7.271,7.271,7.271,0,0,0-7.27,7.271Z" transform="translate(-7.398 -2.873)" fill="#ff358f"/>
    <path id="Trazado_9123" data-name="Trazado 9123" d="M1012.369,4530.885v0a3.913,3.913,0,1,0-1.046,7.647l6.708-.2.747-5.467-6.408-1.989Z" transform="translate(-5.718 -3.185)" fill="#f6caae"/>
    <path id="Trazado_9124" data-name="Trazado 9124" d="M1050.315,4547.5a5.283,5.283,0,1,0,7-2.6,5.283,5.283,0,0,0-7,2.6Z" transform="translate(-6.871 -3.557)" fill="#ff5966"/>
    <path id="Trazado_9125" data-name="Trazado 9125" d="M1070.406,4521.953l-19.361,23.813,7.739,7.161,22.272-21.119-10.65-9.856Z" transform="translate(-6.904 -2.948)" fill="#ff5966"/>
    <path id="Trazado_9126" data-name="Trazado 9126" d="M1055.788,4544.344l-36.749-11.41-1.992,5.213,34.979,16.046,3.763-9.85Z" transform="translate(-5.982 -3.245)" fill="#f6caae"/>
    <path id="Trazado_9127" data-name="Trazado 9127" d="M1083.672,4706.686a3.635,3.635,0,1,1-3.635-3.635,3.635,3.635,0,0,1,3.635,3.635Z" transform="translate(-7.591 -7.857)" fill="#b695ff"/>
    <path id="Trazado_9128" data-name="Trazado 9128" d="M1069.29,4526.8l1.883,40.67h26.006l10.748-42.712a4.474,4.474,0,0,0-4.338-5.566h-27.036a7.27,7.27,0,0,0-7.263,7.607Z" transform="translate(-7.398 -2.873)" fill="#ff5966"/>
    <path id="Trazado_9129" data-name="Trazado 9129" d="M1101.018,4556.492l-1.084-.273.27-1.074,1.085.274-.271,1.073Z" transform="translate(-8.229 -3.847)" fill="#fff"/>
    <path id="Trazado_9130" data-name="Trazado 9130" d="M1101.8,4552.92l-1.084-.273,4.351-17.291,1.084.272-4.351,17.291Z" transform="translate(-8.251 -3.311)" fill="#fff"/>
    <path id="Trazado_9131" data-name="Trazado 9131" d="M1081.824,4521.455a7.271,7.271,0,1,1-10.279-.273,7.271,7.271,0,0,1,10.279.273Z" transform="translate(-7.398 -2.873)" fill="#ff5966"/>
    <path id="Trazado_9132" data-name="Trazado 9132" d="M1071.132,4568.818h26.006l1.4,1.09a19.365,19.365,0,0,1,7.484,15.292v5.593a7.83,7.83,0,0,1-7.83,7.83h-22.587a7.83,7.83,0,0,1-7.83-7.83v-7.659a32.235,32.235,0,0,1,3.354-14.315Z" transform="translate(-7.358 -4.218)" fill="#60dbbd"/>
    <path id="Trazado_9133" data-name="Trazado 9133" d="M1086.048,4531.973l-11.59-8.788-9.294,12.252.007.006a7.264,7.264,0,1,0,11.576,8.777l.007,0,9.294-12.253Z" transform="translate(-7.247 -2.981)" fill="#ff5966"/>
    <path id="Trazado_9134" data-name="Trazado 9134" d="M1072.358,4528.174l-.891-.676.7-.93.891.676-.705.929Z" transform="translate(-7.458 -3.073)" fill="#fff"/>
    <path id="Trazado_9135" data-name="Trazado 9135" d="M1070.956,4547.256a7.259,7.259,0,0,1-5.786-11.66l5.13-6.779.892.676-5.131,6.778a6.144,6.144,0,0,0,8.376,8.778l.632.921a7.238,7.238,0,0,1-4.114,1.286Z" transform="translate(-7.247 -3.134)" fill="#fff"/>
    <path id="Trazado_9136" data-name="Trazado 9136" d="M1087.747,4547.707a7.309,7.309,0,0,1-4.259-1.378l.655-.906a6.156,6.156,0,0,0,7.086.076l.633.921a7.244,7.244,0,0,1-4.115,1.286Z" transform="translate(-7.783 -3.584)" fill="#fff"/>
    <path id="Trazado_9137" data-name="Trazado 9137" d="M1099.765,4573.3a2.8,2.8,0,1,0,1.642-3.6,2.8,2.8,0,0,0-1.642,3.6Z" transform="translate(-8.22 -4.237)" fill="#b695ff"/>
    <path id="Trazado_9138" data-name="Trazado 9138" d="M1110.381,4530.141a7.27,7.27,0,1,1-2.6-9.947,7.271,7.271,0,0,1,2.6,9.947Z" transform="translate(-8.145 -2.873)" fill="#ff5966"/>
    <path id="Trazado_9139" data-name="Trazado 9139" d="M1097.662,4579.391a3.9,3.9,0,0,0,1.115-.645l0,0,5.186-4.259-2.753-4.781-6.288,2.347a3.915,3.915,0,0,0,2.738,7.335Z" transform="translate(-8.024 -4.243)" fill="#f6caae"/>
    <path id="Trazado_9140" data-name="Trazado 9140" d="M1126.862,4548.2a5.283,5.283,0,1,1,7.456-.479,5.284,5.284,0,0,1-7.456.479Z" transform="translate(-8.91 -3.408)" fill="#ff5966"/>
    <path id="Trazado_9141" data-name="Trazado 9141" d="M1108.669,4520.767l24.259,18.8-5.913,8.731-26.483-15.516,8.137-12.015Z" transform="translate(-8.245 -2.915)" fill="#ff5966"/>
    <path id="Trazado_9142" data-name="Trazado 9142" d="M1111.172,4539.323l-8.588-5.031.565-.965,8.588,5.032-.565.965Z" transform="translate(-8.301 -3.256)" fill="#fff"/>
    <path id="Trazado_9143" data-name="Trazado 9143" d="M1133.161,4548.257l-28.914,25.391-3.943-3.95,25.407-28.9,7.449,7.462Z" transform="translate(-8.239 -3.458)" fill="#f6caae"/>
    <path id="Trazado_9144" data-name="Trazado 9144" d="M1108.255,4570.212l-4.418-4.427,21.97-24.994,7.451,7.466-25,21.955Z" transform="translate(-8.335 -3.458)" fill="#ff5966"/>
    <path id="Trazado_9145" data-name="Trazado 9145" d="M1024.142,4534.519l-2.232,5.844,30.246,13.875,3.763-9.854-31.778-9.865Z" transform="translate(-6.114 -3.288)" fill="#ff5966"/>
    <path id="Trazado_9146" data-name="Trazado 9146" d="M1083.438,4591.185a7.83,7.83,0,1,1-7.83-7.83,7.83,7.83,0,0,1,7.83,7.83Z" transform="translate(-7.358 -4.612)" fill="#60dbbd"/>
    <path id="Trazado_9147" data-name="Trazado 9147" d="M1106.62,4590.459a7.83,7.83,0,1,1-8.523-7.07,7.831,7.831,0,0,1,8.523,7.07Z" transform="translate(-7.987 -4.612)" fill="#60dbbd"/>
    <path id="Trazado_9148" data-name="Trazado 9148" d="M1076.277,4706.787h7.27v5.034h-10.187a1.559,1.559,0,0,1-1.559-1.559h0a1.558,1.558,0,0,1,.782-1.351l3.693-2.124Z" transform="translate(-7.467 -7.958)" fill="#327a69"/>
    <path id="Trazado_9149" data-name="Trazado 9149" d="M1108.989,4706.686a3.635,3.635,0,1,1-3.636-3.635,3.635,3.635,0,0,1,3.636,3.635Z" transform="translate(-8.278 -7.857)" fill="#b695ff"/>
    <path id="Trazado_9150" data-name="Trazado 9150" d="M1107.486,4632.378l1.3,71.959-7.239.674-6.659-71.46,12.6-1.174Z" transform="translate(-8.093 -5.941)" fill="#f6caae"/>
    <path id="Trazado_9151" data-name="Trazado 9151" d="M1091.028,4592.126l3.756,40.312,12.6-.7-.736-40.479-15.625.864Z" transform="translate(-7.988 -4.826)" fill="#60dbbd"/>
    <path id="Trazado_9152" data-name="Trazado 9152" d="M1083.522,4632.842a6.325,6.325,0,1,1-6.325-6.326,6.325,6.325,0,0,1,6.325,6.326Z" transform="translate(-7.441 -5.782)" fill="#b695ff"/>
    <path id="Trazado_9153" data-name="Trazado 9153" d="M1083.521,4633.018v71.77h-7.271l-5.38-71.77Z" transform="translate(-7.441 -5.958)" fill="#f6caae"/>
    <path id="Trazado_9154" data-name="Trazado 9154" d="M1083.438,4591.4v40.486l-12.633.476-3.006-40.373,15.638-.59Z" transform="translate(-7.358 -4.83)" fill="#60dbbd"/>
    <path id="Trazado_9155" data-name="Trazado 9155" d="M1070.806,4632.382h35.966L1106,4592.01h-38.2l3.006,40.373Z" transform="translate(-7.358 -4.847)" fill="#60dbbd"/>
    <path id="Trazado_9156" data-name="Trazado 9156" d="M1069.652,4616.877l-1.806-24.253,1.115-.083,1.806,24.253-1.115.083Z" transform="translate(-7.359 -4.861)" fill="#327a69"/>
    <path id="Trazado_9157" data-name="Trazado 9157" d="M1079.163,4633.072h-8.306l-1.155-15.519,1.115-.083,1.078,14.483h7.267v1.119Z" transform="translate(-7.41 -5.537)" fill="#327a69"/>
    <path id="Trazado_9158" data-name="Trazado 9158" d="M1090.714,4633.476h-11.287v-1.119h11.287v1.119Z" transform="translate(-7.673 -5.941)" fill="#327a69"/>
    <path id="Trazado_9159" data-name="Trazado 9159" d="M1106.645,4630.256l-.4-20.9,1.119-.021.4,20.9-1.119.021Z" transform="translate(-8.4 -5.316)" fill="#327a69"/>
    <path id="Trazado_9160" data-name="Trazado 9160" d="M1106.22,4607.905l-.04-2.074,1.119-.021.04,2.074-1.119.021Z" transform="translate(-8.399 -5.221)" fill="#327a69"/>
    <path id="Trazado_9161" data-name="Trazado 9161" d="M1092.855,4519.49a6.152,6.152,0,1,1-5.66-6.607,6.151,6.151,0,0,1,5.66,6.607Z" transform="translate(-7.704 -2.701)" fill="#f6caae"/>
    <path id="Trazado_9162" data-name="Trazado 9162" d="M1080.588,4518.281l12.268.947,1.166-15.106-12.268-.947-1.166,15.106Z" transform="translate(-7.705 -2.439)" fill="#f6caae"/>
    <path id="Trazado_9163" data-name="Trazado 9163" d="M1083.775,4477.025l.954.074a11.058,11.058,0,0,1,10.175,11.877l-1.6,20.771-11.549-.891a10.534,10.534,0,0,1-9.692-11.314l.866-11.222a10.1,10.1,0,0,1,10.85-9.294Z" transform="translate(-7.473 -1.729)" fill="#f6caae"/>
    <path id="Trazado_9164" data-name="Trazado 9164" d="M1095.331,4497.838l-2.565-.2.4-5.129,2.563.2a2.571,2.571,0,0,1,2.366,2.762h0a2.57,2.57,0,0,1-2.761,2.366Z" transform="translate(-8.035 -2.15)" fill="#f6caae"/>
    <path id="Trazado_9165" data-name="Trazado 9165" d="M1094.682,4492.214l.513.04,1.144-14.813-22.565-1.741-.586,7.589.513.04a20.123,20.123,0,0,1,11.786,4.991h0a15.705,15.705,0,0,0,9.2,3.894Z" transform="translate(-7.504 -1.694)" fill="#3d4159"/>
    <path id="Trazado_9166" data-name="Trazado 9166" d="M1108.989,4706.787h-7.27v5.034h10.186a1.558,1.558,0,0,0,1.559-1.559h0a1.558,1.558,0,0,0-.781-1.351l-3.693-2.124Z" transform="translate(-8.278 -7.958)" fill="#327a69"/>
    <path id="Trazado_9167" data-name="Trazado 9167" d="M1083.467,4501.208a3.076,3.076,0,0,1-6.129-.53l6.129.53Z" transform="translate(-7.616 -2.371)" fill="#fff"/>
  </g>
</svg>
