<svg xmlns="http://www.w3.org/2000/svg" width="122.171" height="115.012" viewBox="0 0 122.171 115.012">
  <g id="Grupo_9156" data-name="Grupo 9156" transform="translate(-681.077 -5098.702)">
    <path id="Trazado_9295" data-name="Trazado 9295" d="M758.865,5166H725.459a3.605,3.605,0,0,1-1.014-.146c-24.321-7.186-41.819-28.185-42.553-29.076a3.579,3.579,0,0,1-.3-4.118c.418-.7,10.434-17.193,25.823-28.049a32.329,32.329,0,0,1,33.047-2.52l1.7.847,1.7-.845a32.326,32.326,0,0,1,33.048,2.518c15.388,10.856,25.4,27.351,25.824,28.049a3.579,3.579,0,0,1-.305,4.118c-.733.892-18.23,21.891-42.552,29.076a3.61,3.61,0,0,1-1.014.146Zm0,0" transform="translate(0 0)" fill="#ff97a4"/>
    <path id="Trazado_9296" data-name="Trazado 9296" d="M818.733,5132.66c-.419-.7-10.434-17.192-25.824-28.048a32.327,32.327,0,0,0-33.047-2.518l-1.7.845V5166h16.7a3.61,3.61,0,0,0,1.014-.147c24.321-7.186,41.819-28.185,42.552-29.076a3.579,3.579,0,0,0,.3-4.118Zm0,0" transform="translate(-15.997 0)" fill="#ff465a"/>
    <path id="Trazado_9297" data-name="Trazado 9297" d="M763.614,5149.747h-.006l-33.406-.05a3.681,3.681,0,0,1-.654-.061,81.666,81.666,0,0,1-23.8-8.326,3.578,3.578,0,0,1-.639-5.724,47.54,47.54,0,0,1,18.5-9.8,43.075,43.075,0,0,1,6.193-1.134,3.59,3.59,0,0,1,.4-.023l22.213-.035a51.606,51.606,0,0,1,17.795,1.193,47.533,47.533,0,0,1,18.5,9.8,3.579,3.579,0,0,1-.606,5.707,78.713,78.713,0,0,1-23.845,8.4,3.648,3.648,0,0,1-.647.059Zm0,0" transform="translate(-4.749 -5.314)" fill="#ff465a"/>
    <path id="Trazado_9298" data-name="Trazado 9298" d="M799.961,5135.586a47.545,47.545,0,0,0-18.5-9.8,51.685,51.685,0,0,0-17.8-1.192l-5.5.009v25.123l16.7.025h.006a3.6,3.6,0,0,0,.647-.059,78.638,78.638,0,0,0,23.845-8.4,3.578,3.578,0,0,0,.606-5.705Zm0,0" transform="translate(-15.997 -5.314)" fill="#cb2d1e"/>
    <path id="Trazado_9299" data-name="Trazado 9299" d="M752.847,5123.393h-2.386l-17.9,40.564v51.3a3.579,3.579,0,0,0,3.58,3.58h33.406a3.579,3.579,0,0,0,3.579-3.58v-71.584a20.3,20.3,0,0,0-20.282-20.282Zm0,0" transform="translate(-10.686 -5.124)" fill="#ffdfcf"/>
    <path id="Trazado_9300" data-name="Trazado 9300" d="M757.479,5123.393h-2.386l-.212.48a20.314,20.314,0,0,1,15.906,19.8v71.584a3.578,3.578,0,0,1-3.579,3.579h6.974a3.578,3.578,0,0,0,3.579-3.579v-71.584A20.3,20.3,0,0,0,757.479,5123.393Z" transform="translate(-15.317 -5.124)" fill="#ffcebf"/>
    <path id="Trazado_9301" data-name="Trazado 9301" d="M736.145,5162.708h-3.58V5120.95a3.579,3.579,0,0,1,3.58-3.579H744.5a8.352,8.352,0,0,1,8.351,8.351V5146a16.7,16.7,0,0,1-16.7,16.7Zm0,0" transform="translate(-10.686 -3.874)" fill="#f0f9ff"/>
  </g>
</svg>
