<svg xmlns="http://www.w3.org/2000/svg" width="126.236" height="126.24" viewBox="0 0 126.236 126.24">
  <g id="Grupo_9154" data-name="Grupo 9154" transform="translate(-976.805 -4837.754)">
    <path id="Trazado_9282" data-name="Trazado 9282" d="M1077.036,4909.181a5.731,5.731,0,0,0-11.462,0,5.73,5.73,0,1,0-11.46,0v-29.3a5.808,5.808,0,0,0-11.616,0v38.438a1.07,1.07,0,0,1-1.984.556c-3.916-6.454-8.429-11.551-13.322-13.385a4.046,4.046,0,0,0-5.332,4.881c2.416,8.522,6.4,19.534,10.678,30.25a7,7,0,0,0,1.616,2.434c4.319,4.2,7.09,8.906,7.8,14.3l1.993,1.27h37.755l2.068-1.27a29.689,29.689,0,0,1,3.84-12.743,6.992,6.992,0,0,0,.883-3.391v-29.708a5.73,5.73,0,1,0-11.46,0Zm0,0" transform="translate(-8.133 -6.578)" fill="#ffdfcf"/>
    <path id="Trazado_9283" data-name="Trazado 9283" d="M1050.6,4957.267a6.95,6.95,0,0,1-5.677-2.931,31.6,31.6,0,0,0-3.795-4.394,6.979,6.979,0,0,1-1.617-2.434c-4.276-10.716-8.264-21.728-10.676-30.249a3.976,3.976,0,0,1,.785-3.7,14.561,14.561,0,0,0-2.423-1.187,4.047,4.047,0,0,0-5.332,4.883c2.414,8.521,6.4,19.532,10.676,30.249a6.989,6.989,0,0,0,1.617,2.434c4.319,4.2,7.092,8.9,7.8,14.294h41.816a28.051,28.051,0,0,1,1.318-6.97Zm0,0" transform="translate(-8.133 -13.469)" fill="#ffcebf"/>
    <path id="Trazado_9284" data-name="Trazado 9284" d="M1056.392,4875.23a5.8,5.8,0,0,0-2.323,4.647v38.44c0,7.978-6.969,7.978-6.969-.153v-38.287a5.808,5.808,0,0,1,9.292-4.647Zm0,0" transform="translate(-12.733 -6.578)" fill="#ffcebf"/>
    <path id="Trazado_9285" data-name="Trazado 9285" d="M1052.782,4838.713l2.147,4.35a1.723,1.723,0,0,0,1.3.941l4.8.7a1.72,1.72,0,0,1,.952,2.934l-3.474,3.387a1.721,1.721,0,0,0-.494,1.521l.82,4.782a1.721,1.721,0,0,1-2.5,1.814l-4.293-2.258a1.719,1.719,0,0,0-1.6,0l-4.295,2.258a1.72,1.72,0,0,1-2.5-1.814l.82-4.782a1.715,1.715,0,0,0-.495-1.521l-3.474-3.387a1.72,1.72,0,0,1,.953-2.934l4.8-.7a1.715,1.715,0,0,0,1.295-.941l2.147-4.35a1.72,1.72,0,0,1,3.085,0Zm0,0" transform="translate(-11.444)" fill="#fee97d"/>
    <path id="Trazado_9286" data-name="Trazado 9286" d="M989.608,4861.846l2.146,4.351a1.728,1.728,0,0,0,1.3.941l4.8.7a1.721,1.721,0,0,1,.954,2.935l-3.475,3.385a1.724,1.724,0,0,0-.495,1.522l.82,4.781a1.72,1.72,0,0,1-2.5,1.813l-4.293-2.257a1.723,1.723,0,0,0-1.6,0l-4.294,2.257a1.719,1.719,0,0,1-2.5-1.813l.819-4.781a1.717,1.717,0,0,0-.494-1.522l-3.474-3.385a1.721,1.721,0,0,1,.954-2.935l4.8-.7a1.727,1.727,0,0,0,1.3-.941l2.146-4.35a1.72,1.72,0,0,1,3.085,0Zm0,0" transform="translate(0 -4.19)" fill="#fee97d"/>
    <path id="Trazado_9287" data-name="Trazado 9287" d="M1116.268,4861.846l2.146,4.351a1.727,1.727,0,0,0,1.3.941l4.8.7a1.721,1.721,0,0,1,.954,2.935l-3.474,3.385a1.717,1.717,0,0,0-.494,1.522l.819,4.781a1.719,1.719,0,0,1-2.495,1.813l-4.294-2.257a1.723,1.723,0,0,0-1.6,0l-4.294,2.257a1.719,1.719,0,0,1-2.495-1.813l.819-4.781a1.718,1.718,0,0,0-.494-1.522l-3.474-3.385a1.721,1.721,0,0,1,.953-2.935l4.8-.7a1.726,1.726,0,0,0,1.295-.941l2.147-4.351a1.721,1.721,0,0,1,3.085,0Zm0,0" transform="translate(-22.943 -4.191)" fill="#fee97d"/>
    <path id="Trazado_9288" data-name="Trazado 9288" d="M1019.4,4846.85l2.146,4.351a1.72,1.72,0,0,0,1.3.94l4.8.7a1.719,1.719,0,0,1,.954,2.933l-3.473,3.387a1.721,1.721,0,0,0-.5,1.523l.82,4.781a1.72,1.72,0,0,1-2.5,1.813l-4.292-2.257a1.72,1.72,0,0,0-1.6,0l-4.294,2.257a1.72,1.72,0,0,1-2.5-1.813l.819-4.781a1.716,1.716,0,0,0-.495-1.523l-3.474-3.387a1.72,1.72,0,0,1,.955-2.933l4.8-.7a1.714,1.714,0,0,0,1.294-.94l2.148-4.351a1.721,1.721,0,0,1,3.085,0Zm0,0" transform="translate(-5.396 -1.474)" fill="#fee97d"/>
    <path id="Trazado_9289" data-name="Trazado 9289" d="M1086.169,4846.85l2.147,4.351a1.717,1.717,0,0,0,1.295.94l4.8.7a1.72,1.72,0,0,1,.954,2.933l-3.474,3.387a1.716,1.716,0,0,0-.495,1.523l.819,4.781a1.719,1.719,0,0,1-2.494,1.813l-4.295-2.257a1.719,1.719,0,0,0-1.6,0l-4.293,2.257a1.721,1.721,0,0,1-2.5-1.813l.821-4.781a1.722,1.722,0,0,0-.5-1.523l-3.474-3.387a1.72,1.72,0,0,1,.954-2.933l4.8-.7a1.72,1.72,0,0,0,1.3-.94l2.145-4.351a1.722,1.722,0,0,1,3.086,0Zm0,0" transform="translate(-17.491 -1.474)" fill="#fee97d"/>
    <path id="Trazado_9290" data-name="Trazado 9290" d="M1090.59,4988.994h-48.931a1.726,1.726,0,0,1-1.726-1.726v-9.774a1.725,1.725,0,0,1,1.726-1.725h48.931a1.725,1.725,0,0,1,1.726,1.725v9.774a1.726,1.726,0,0,1-1.726,1.726Zm0,0" transform="translate(-11.435 -25)" fill="#8ac9fe"/>
  </g>
</svg>
