<svg id="Grupo_9140" data-name="Grupo 9140" xmlns="http://www.w3.org/2000/svg" width="108" height="108" viewBox="0 0 108 108">
  <path id="Trazado_8602" data-name="Trazado 8602" d="M604.7,3578.447a53.82,53.82,0,0,1-14.93,37.278c-.159.166-.317.329-.476.492a54.318,54.318,0,0,1-5.967,5.261c-.245.187-.494.372-.742.555q-1.23.9-2.511,1.732a53.35,53.35,0,0,1-4.75,2.753c-.282.146-.566.289-.85.426a52.81,52.81,0,0,1-5.457,2.316q-.527.189-1.058.368a52.6,52.6,0,0,1-5.273,1.483,54.05,54.05,0,0,1-10.809,1.323q-.585.013-1.177.013c-.092,0-.185,0-.278,0a53.743,53.743,0,0,1-29.079-8.668q-1.431-.929-2.8-1.942s0,0,0,0q-1.455-1.077-2.83-2.25-1.945-1.652-3.721-3.485a54.514,54.514,0,0,1-5.732-6.965q-1.478-2.136-2.75-4.417s0,0,0,0A54,54,0,1,1,604.7,3578.447Zm0,0" transform="translate(-496.701 -3524.447)" fill="#8be4c3"/>
  <path id="Trazado_8603" data-name="Trazado 8603" d="M664.907,3738.592a53.833,53.833,0,0,1-37.417,16.217v-1.42a17.272,17.272,0,0,1,12.793-16.681q.4-.108.815-.2a17.166,17.166,0,0,1,2.246-.332c.467-.037.937-.056,1.413-.056H656a17.258,17.258,0,0,1,3.664.388c.068.013.137.028.2.044.2.046.4.095.594.147l.016.005a17.166,17.166,0,0,1,4.43,1.885Zm0,0" transform="translate(-572.313 -3646.822)" fill="#3d4159"/>
  <path id="Trazado_8604" data-name="Trazado 8604" d="M677.992,3737.043l-.041.2-1.537,7.145c-.245.187-.494.372-.742.555a53.756,53.756,0,0,1-13.568,7.228q-.527.189-1.058.368l-3.288-15.295-.042-.2Zm0,0" transform="translate(-589.787 -3647.354)" fill="#66baed"/>
  <path id="Trazado_8605" data-name="Trazado 8605" d="M680.03,3750.893l-4.078,6.539c-.282.146-.566.289-.85.426l-4.342-6.965Zm0,0" transform="translate(-597.329 -3655.361)" fill="#3d4159"/>
  <path id="Trazado_8606" data-name="Trazado 8606" d="M667.852,3739.825l-7.774,4.32-2.365-11,4.831-2.845" transform="translate(-589.786 -3643.456)" fill="#2ba1cf"/>
  <path id="Trazado_8607" data-name="Trazado 8607" d="M691.886,3733.147l-1.578,7.34c-.245.187-.494.372-.742.555q-1.23.9-2.511,1.732l-5.307-2.949,5.307-9.524Zm0,0" transform="translate(-603.681 -3643.457)" fill="#2ba1cf"/>
  <path id="Trazado_8608" data-name="Trazado 8608" d="M707.464,3738.632l-.476.492a54.33,54.33,0,0,1-6.709,5.816l2.264-7.705.057-.191Zm0,0" transform="translate(-614.394 -3647.354)" fill="#2a2f4f"/>
  <path id="Trazado_8609" data-name="Trazado 8609" d="M654.733,3752.167a53.48,53.48,0,0,1-6.331,1.851l-.875-2.132h2.467l-5.028-13.108,5.32-1.736.058.191Zm0,0" transform="translate(-582.417 -3647.354)" fill="#2a2f4f"/>
  <path id="Trazado_8610" data-name="Trazado 8610" d="M679.467,3720.355v7.561a6.161,6.161,0,0,1-12.322,0v-7.561Zm0,0" transform="translate(-595.239 -3637.706)" fill="#eab599"/>
  <path id="Trazado_8611" data-name="Trazado 8611" d="M684.528,3737.143v.479a4.455,4.455,0,1,1-8.628.8c.412.025.826.038,1.242.038a21.309,21.309,0,0,0,7.386-1.319Zm0,0" transform="translate(-600.3 -3647.412)" fill="#f6caae"/>
  <path id="Trazado_8612" data-name="Trazado 8612" d="M625.988,3683.133a5.728,5.728,0,1,1-4.811-5.656,5.728,5.728,0,0,1,4.811,5.656Zm0,0" transform="translate(-564.82 -3612.875)" fill="#f6caae"/>
  <path id="Trazado_8613" data-name="Trazado 8613" d="M634.054,3683.235a5.73,5.73,0,0,1-4.811,5.656,21.405,21.405,0,0,1,0-11.311,5.73,5.73,0,0,1,4.811,5.655Zm0,0" transform="translate(-572.887 -3612.977)" fill="#eab599"/>
  <path id="Trazado_8614" data-name="Trazado 8614" d="M627.351,3688.178a2.048,2.048,0,1,1-2.048-2.047,2.048,2.048,0,0,1,2.048,2.047Zm0,0" transform="translate(-569.865 -3617.92)" fill="#eab599"/>
  <path id="Trazado_8615" data-name="Trazado 8615" d="M732.921,3681.185a53.716,53.716,0,0,1-2.374,6.823,5.731,5.731,0,1,1-3.932-10.531,5.82,5.82,0,0,1,.919-.073,5.727,5.727,0,0,1,5.387,3.781Zm0,0" transform="translate(-626.838 -3612.875)" fill="#f6caae"/>
  <path id="Trazado_8616" data-name="Trazado 8616" d="M721.8,3683.235a5.73,5.73,0,0,0,4.812,5.656,21.428,21.428,0,0,0,0-11.311,5.729,5.729,0,0,0-4.812,5.655Zm0,0" transform="translate(-626.839 -3612.977)" fill="#eab599"/>
  <path id="Trazado_8617" data-name="Trazado 8617" d="M673.854,3635.317v8.117a21.318,21.318,0,0,1-17.9,21.041l-.1.017a21.019,21.019,0,0,1-3.317.257,21.315,21.315,0,0,1-21.314-21.315v-8.117A21.3,21.3,0,0,1,652.537,3614h0a21.3,21.3,0,0,1,21.314,21.317Zm0,0" transform="translate(-574.471 -3576.22)" fill="#eab599"/>
  <path id="Trazado_8618" data-name="Trazado 8618" d="M734.628,3688.178a2.048,2.048,0,1,1-2.047-2.047,2.048,2.048,0,0,1,2.047,2.047Zm0,0" transform="translate(-631.885 -3617.92)" fill="#eab599"/>
  <path id="Trazado_8619" data-name="Trazado 8619" d="M682.949,3635.67v8.117a21.318,21.318,0,0,1-17.9,21.04l-.1.017a21.319,21.319,0,0,1-17.995-21.058v-8.117a18.22,18.22,0,1,1,35.994,0Zm0,0" transform="translate(-583.566 -3576.573)" fill="#f6caae"/>
  <path id="Trazado_8620" data-name="Trazado 8620" d="M664.36,3677.512a2.418,2.418,0,1,1-2.418-2.418,2.418,2.418,0,0,1,2.418,2.418Zm0,0" transform="translate(-590.833 -3611.54)" fill="#3d4159"/>
  <path id="Trazado_8621" data-name="Trazado 8621" d="M697.345,3677.512a2.418,2.418,0,1,1-2.419-2.418,2.419,2.419,0,0,1,2.419,2.418Zm0,0" transform="translate(-609.902 -3611.54)" fill="#3d4159"/>
  <path id="Trazado_8622" data-name="Trazado 8622" d="M666.978,3678.395a1.036,1.036,0,1,1-1.036-1.036,1.036,1.036,0,0,1,1.036,1.036Zm0,0" transform="translate(-593.944 -3612.849)" fill="#fff"/>
  <path id="Trazado_8623" data-name="Trazado 8623" d="M700.246,3678.395a1.036,1.036,0,1,1-1.037-1.036,1.036,1.036,0,0,1,1.037,1.036Zm0,0" transform="translate(-613.177 -3612.849)" fill="#fff"/>
  <path id="Trazado_8624" data-name="Trazado 8624" d="M679.423,3690.15h-4.836a1.043,1.043,0,1,1,0-2.086h4.836a1.043,1.043,0,0,1,0,2.086Zm0,0" transform="translate(-598.938 -3619.038)" fill="#eab599"/>
  <path id="Trazado_8625" data-name="Trazado 8625" d="M673.953,3704.375a10.773,10.773,0,0,1-5.2-1.341.948.948,0,0,1,.914-1.662,8.85,8.85,0,0,0,8.567,0,.948.948,0,0,1,.914,1.662,10.775,10.775,0,0,1-5.2,1.341Zm0,0" transform="translate(-595.886 -3626.664)" fill="#eab599"/>
  <path id="Trazado_8626" data-name="Trazado 8626" d="M673.853,3623.548v8.316h-3.967v-6.512l-28.638-5.322-6.059-1.126v12.959h-3.967v-8.315a17.161,17.161,0,0,1,17.16-17.162h8.312c.226,0,.451,0,.677.015a17.157,17.157,0,0,1,16.483,17.147Zm0,0" transform="translate(-574.47 -3571.818)" fill="#2a2f4f"/>
  <path id="Trazado_8627" data-name="Trazado 8627" d="M687.594,3623.569v8.316h-3.967v-6.512l-28.638-5.322a16.431,16.431,0,0,1,32.606,3.518Zm0,0" transform="translate(-588.211 -3571.839)" fill="#3d4159"/>
  <path id="Trazado_8628" data-name="Trazado 8628" d="M571.382,3752.793v1.507a53.762,53.762,0,0,1-31.876-10.61q-1.454-1.078-2.832-2.253-1.945-1.652-3.721-3.485a17.5,17.5,0,0,1,4.861-2.133c.273-.073.549-.141.828-.2a17.7,17.7,0,0,1,2.288-.338c.474-.039.953-.056,1.437-.056h11.442a17.608,17.608,0,0,1,3.727.394c.068.013.139.028.205.044.2.046.405.1.6.153h.015a17.6,17.6,0,0,1,13.022,16.977Zm0,0" transform="translate(-517.659 -3646.303)" fill="#e8c934"/>
  <path id="Trazado_8629" data-name="Trazado 8629" d="M576.481,3752.793v1.507a53.768,53.768,0,0,1-34.707-12.863,17.546,17.546,0,0,1,8.854-5.618c.273-.073.549-.141.829-.2a17.664,17.664,0,0,1,2.287-.338c.474-.039.952-.056,1.437-.056h3.728a17.609,17.609,0,0,1,3.727.394c.068.013.139.028.205.044.2.046.405.1.6.153h.015a17.6,17.6,0,0,1,13.022,16.977Zm0,0" transform="translate(-522.759 -3646.303)" fill="#ffe152"/>
  <path id="Trazado_8630" data-name="Trazado 8630" d="M565,3736.16l-.044.2-3.407,15.85a53.78,53.78,0,0,1-15.447-7.977l-1.692-7.871-.045-.2Zm0,0" transform="translate(-524.259 -3646.844)" fill="#f2f0ec"/>
  <path id="Trazado_8631" data-name="Trazado 8631" d="M554.687,3738.99l-5.784,3.216q-1.431-.93-2.8-1.942s0,0,0,0l-1.735-8.066,4.915-2.9Zm0,0" transform="translate(-524.259 -3642.877)" fill="#d8d5d0"/>
  <path id="Trazado_8632" data-name="Trazado 8632" d="M568.824,3738.992l7.91,4.4,2.406-11.192-4.915-2.9" transform="translate(-538.397 -3642.878)" fill="#d8d5d0"/>
  <path id="Trazado_8633" data-name="Trazado 8633" d="M560.083,3630.007v26.5H515.6q-1.478-2.136-2.75-4.417v-22.081a23.619,23.619,0,1,1,47.237,0Zm0,0" transform="translate(-506.035 -3571.82)" fill="#f74f4f"/>
  <path id="Trazado_8634" data-name="Trazado 8634" d="M522.558,3631.046c0,9.371,5.488,20.215,8.5,25.461H515.593q-1.478-2.138-2.753-4.421V3630.01a23.606,23.606,0,0,1,23.447-23.616c-7.26.181-13.729,11.831-13.729,24.653Zm0,0" transform="translate(-506.031 -3571.822)" fill="#dd3033"/>
  <path id="Trazado_8635" data-name="Trazado 8635" d="M566.509,3719.182v7.693a6.269,6.269,0,0,1-12.538,0v-7.693Zm0,0" transform="translate(-529.81 -3637.028)" fill="#eab599"/>
  <path id="Trazado_8636" data-name="Trazado 8636" d="M571.66,3736.261v.487a4.532,4.532,0,1,1-8.779.817q.628.038,1.262.037a21.625,21.625,0,0,0,7.517-1.342Zm0,0" transform="translate(-534.961 -3646.902)" fill="#f6caae"/>
  <path id="Trazado_8637" data-name="Trazado 8637" d="M512.41,3681.306a5.83,5.83,0,0,1-4.9,5.755,5.964,5.964,0,0,1-.934.075,5.809,5.809,0,0,1-3.494-1.162,54.368,54.368,0,0,1-2.1-6.3,5.829,5.829,0,0,1,5.6-4.195,5.906,5.906,0,0,1,.934.075,5.83,5.83,0,0,1,4.9,5.755Zm0,0" transform="translate(-499.177 -3611.761)" fill="#f6caae"/>
  <path id="Trazado_8638" data-name="Trazado 8638" d="M520.3,3681.41a5.829,5.829,0,0,1-4.9,5.754,21.789,21.789,0,0,1,0-11.51,5.831,5.831,0,0,1,4.9,5.756Zm0,0" transform="translate(-507.067 -3611.863)" fill="#eab599"/>
  <path id="Trazado_8639" data-name="Trazado 8639" d="M513.48,3686.441a2.083,2.083,0,1,1-2.084-2.084,2.083,2.083,0,0,1,2.084,2.084Zm0,0" transform="translate(-503.992 -3616.895)" fill="#eab599"/>
  <path id="Trazado_8640" data-name="Trazado 8640" d="M554.075,3653.519v20.038a21.6,21.6,0,0,1-11.488,5.716l-.105.017a21.286,21.286,0,0,1-3.375.263,21.689,21.689,0,0,1-21.689-21.689v-8.26a21.847,21.847,0,0,1,.221-3.115,13.743,13.743,0,0,0,17.273-1.112,12.279,12.279,0,0,0,3.259-5.092,14.318,14.318,0,0,0,4.477,8.935,16.007,16.007,0,0,0,11.426,4.3Zm0,0" transform="translate(-508.678 -3591.417)" fill="#eab599"/>
  <path id="Trazado_8641" data-name="Trazado 8641" d="M563.331,3653.519v20.038a21.6,21.6,0,0,1-11.488,5.716l-.105.017a21.691,21.691,0,0,1-18.309-21.426v-8.26c0-.22,0-.437.011-.656a13.591,13.591,0,0,0,10.73-3.57,12.278,12.278,0,0,0,3.259-5.092,14.315,14.315,0,0,0,4.478,8.935,16,16,0,0,0,11.425,4.3Zm0,0" transform="translate(-517.934 -3591.417)" fill="#f6caae"/>
  <path id="Trazado_8642" data-name="Trazado 8642" d="M586.566,3672.675a3.6,3.6,0,0,0-7.205,0" transform="translate(-544.489 -3608.058)" fill="#eab599"/>
  <path id="Trazado_8643" data-name="Trazado 8643" d="M548.429,3672.675a3.6,3.6,0,1,0-7.2,0" transform="translate(-522.441 -3608.058)" fill="#eab599"/>
  <path id="Trazado_8644" data-name="Trazado 8644" d="M548.852,3677.875a2.461,2.461,0,1,1-2.461-2.46,2.461,2.461,0,0,1,2.461,2.46Zm0,0" transform="translate(-524.005 -3611.725)" fill="#3d4159"/>
  <path id="Trazado_8645" data-name="Trazado 8645" d="M586.989,3677.875a2.46,2.46,0,1,1-2.46-2.46,2.46,2.46,0,0,1,2.46,2.46Zm0,0" transform="translate(-546.054 -3611.725)" fill="#3d4159"/>
  <path id="Trazado_8646" data-name="Trazado 8646" d="M566.466,3693.023h-4.921a1.061,1.061,0,1,1,0-2.123h4.921a1.061,1.061,0,1,1,0,2.123Zm0,0" transform="translate(-533.576 -3620.677)" fill="#eab599"/>
  <path id="Trazado_8647" data-name="Trazado 8647" d="M560.9,3707.5a10.955,10.955,0,0,1-5.288-1.366.965.965,0,0,1,.929-1.691,9,9,0,0,0,8.717,0,.965.965,0,1,1,.929,1.691,10.952,10.952,0,0,1-5.287,1.366Zm0,0" transform="translate(-530.469 -3628.436)" fill="#eab599"/>
  <path id="Trazado_8648" data-name="Trazado 8648" d="M551.516,3678.773a1.054,1.054,0,1,1-1.055-1.054,1.055,1.055,0,0,1,1.055,1.054Zm0,0" transform="translate(-527.172 -3613.057)" fill="#fff"/>
  <path id="Trazado_8649" data-name="Trazado 8649" d="M589.94,3678.773a1.054,1.054,0,1,1-1.055-1.054,1.055,1.055,0,0,1,1.055,1.054Zm0,0" transform="translate(-549.386 -3613.057)" fill="#fff"/>
  <path id="Trazado_8650" data-name="Trazado 8650" d="M596.417,3691.749a2.7,2.7,0,1,1-2.7-2.7,2.7,2.7,0,0,1,2.7,2.7Zm0,0" transform="translate(-551.226 -3619.606)" fill="#eab599"/>
  <path id="Trazado_8651" data-name="Trazado 8651" d="M539.24,3691.749a2.7,2.7,0,1,1-2.7-2.7,2.7,2.7,0,0,1,2.7,2.7Zm0,0" transform="translate(-518.17 -3619.606)" fill="#eab599"/>
  <path id="Trazado_8652" data-name="Trazado 8652" d="M604.838,3554.554H571.206a8.64,8.64,0,0,1-8.641-8.64v-12.826a8.641,8.641,0,0,1,8.641-8.64h33.631a8.641,8.641,0,0,1,8.64,8.64v12.826a8.64,8.64,0,0,1-8.64,8.64Zm0,0" transform="translate(-534.779 -3524.447)" fill="#fff"/>
  <path id="Trazado_8653" data-name="Trazado 8653" d="M566.3,3592.9a6.493,6.493,0,1,1-6.494-6.494,6.493,6.493,0,0,1,6.494,6.494Zm0,0" transform="translate(-529.43 -3560.267)" fill="#fff"/>
  <path id="Trazado_8654" data-name="Trazado 8654" d="M541.149,3612.82a3.247,3.247,0,1,1-3.246-3.246,3.247,3.247,0,0,1,3.246,3.246Zm0,0" transform="translate(-518.644 -3573.661)" fill="#fff"/>
  <path id="Trazado_8655" data-name="Trazado 8655" d="M677.245,3592.9a6.494,6.494,0,1,1-6.494-6.494,6.494,6.494,0,0,1,6.494,6.494Zm0,0" transform="translate(-593.57 -3560.267)" fill="#fff"/>
  <path id="Trazado_8656" data-name="Trazado 8656" d="M704.8,3612.82a3.247,3.247,0,1,1-3.247-3.246,3.247,3.247,0,0,1,3.247,3.246Zm0,0" transform="translate(-613.254 -3573.661)" fill="#fff"/>
  <path id="Trazado_8657" data-name="Trazado 8657" d="M603.821,3556.2a2.865,2.865,0,1,1-2.866-2.865,2.865,2.865,0,0,1,2.866,2.865Zm0,0" transform="translate(-555.316 -3541.149)" fill="#3d4159"/>
  <path id="Trazado_8658" data-name="Trazado 8658" d="M621.844,3556.2a2.865,2.865,0,1,1-2.865-2.865,2.864,2.864,0,0,1,2.865,2.865Zm0,0" transform="translate(-565.736 -3541.149)" fill="#3d4159"/>
  <path id="Trazado_8659" data-name="Trazado 8659" d="M639.87,3556.2a2.865,2.865,0,1,1-2.866-2.865,2.864,2.864,0,0,1,2.866,2.865Zm0,0" transform="translate(-576.157 -3541.149)" fill="#3d4159"/>
</svg>
