<svg xmlns="http://www.w3.org/2000/svg" width="118.784" height="123.339" viewBox="0 0 118.784 123.339">
  <g id="Grupo_9149" data-name="Grupo 9149" transform="translate(-1076.094 -5097.498)">
    <path id="Trazado_9184" data-name="Trazado 9184" d="M1202.3,5120.7l3.746.891v22.076a1.873,1.873,0,0,1-3.746,0Zm0,0" transform="translate(-25.236 -4.639)" fill="#918291"/>
    <path id="Trazado_9185" data-name="Trazado 9185" d="M1189.234,5165.235l8.8-13.027a3.153,3.153,0,0,1,5.249.008l8.8,13.019,2.171.591,2.343-.591h.006l-10.2-15.106a6.9,6.9,0,0,0-11.469-.008l-10.211,15.115,2.424.591Zm0,0" transform="translate(-21.719 -9.91)" fill="#918291"/>
    <path id="Trazado_9186" data-name="Trazado 9186" d="M1211.5,5177.666h-21.691a3.549,3.549,0,0,1-3.385-2.479l-1.713-5.409H1216.6l-1.711,5.409a3.552,3.552,0,0,1-3.386,2.479Zm0,0" transform="translate(-21.719 -14.453)" fill="#edf4ff"/>
    <path id="Trazado_9187" data-name="Trazado 9187" d="M1216.673,5169.777l-1.711,5.409a3.55,3.55,0,0,1-3.387,2.479h5.3a3.55,3.55,0,0,0,3.386-2.479l1.711-5.409Zm0,0" transform="translate(-27.09 -14.453)" fill="#dbeaff"/>
    <path id="Trazado_9188" data-name="Trazado 9188" d="M1093.682,5121.632l3.745-.709v22.785a1.872,1.872,0,0,1-3.745,0Zm0,0" transform="translate(-3.517 -4.684)" fill="#918291"/>
    <path id="Trazado_9189" data-name="Trazado 9189" d="M1184.32,5120.2h-90.638l1.619-4.18a3.55,3.55,0,0,1,3.312-2.268h80.777a3.55,3.55,0,0,1,3.312,2.268Zm0,0" transform="translate(-3.517 -3.25)" fill="#eac89f"/>
    <path id="Trazado_9190" data-name="Trazado 9190" d="M1202.714,5116.018a3.552,3.552,0,0,0-3.312-2.268h-5.639a3.552,3.552,0,0,1,3.312,2.268l1.617,4.18h5.64Zm0,0" transform="translate(-23.529 -3.25)" fill="#d2af8c"/>
    <rect id="Rect치ngulo_6010" data-name="Rect치ngulo 6010" width="8.061" height="69.284" transform="translate(1131.453 5110.5)" fill="#f4dbb3"/>
    <rect id="Rect치ngulo_6011" data-name="Rect치ngulo 6011" width="4.123" height="69.284" transform="translate(1135.392 5110.5)" fill="#eac89f"/>
    <path id="Trazado_9191" data-name="Trazado 9191" d="M1149.321,5097.5a4.031,4.031,0,0,0-4.031,4.032v8.971h8.061v-8.971a4.03,4.03,0,0,0-4.03-4.032Zm0,0" transform="translate(-13.836)" fill="#918291"/>
    <path id="Trazado_9192" data-name="Trazado 9192" d="M1149.813,5097.5a4.019,4.019,0,0,0-2.063.57,4.028,4.028,0,0,1,1.971,3.461v8.971h4.123v-8.971a4.03,4.03,0,0,0-4.03-4.032Zm0,0" transform="translate(-14.328)" fill="#7a6d79"/>
    <path id="Trazado_9193" data-name="Trazado 9193" d="M1191.564,5194.694l-15.939,22a15.115,15.115,0,0,1-12.245,6.252h-22.667a15.118,15.118,0,0,0-9.774,3.582l-5.58,5.2-6.982,4.393a2.7,2.7,0,0,1-3.746-.065l-14.82-15.23a2.7,2.7,0,0,1,.039-3.854l4.423-6.33,10.643-10.219a10.217,10.217,0,0,1,11.118-1.832l17.2,7.7a9.816,9.816,0,0,0,4.013.857h14.306a9.813,9.813,0,0,0,6.724-2.666l16.713-15.706a3.649,3.649,0,0,1,5.076.077l1.122,1.124a3.646,3.646,0,0,1,.375,4.716Zm0,0" transform="translate(-4.584 -18.054)" fill="#ffdfcf"/>
    <path id="Trazado_9194" data-name="Trazado 9194" d="M1205.979,5189.978l-1.122-1.124a3.649,3.649,0,0,0-5.076-.077l-.1.09,1.111,1.111a3.648,3.648,0,0,1,.375,4.716l-15.939,22a15.117,15.117,0,0,1-12.245,6.252h5.183a15.115,15.115,0,0,0,12.245-6.252l15.939-22a3.646,3.646,0,0,0-.375-4.716Zm0,0" transform="translate(-19.375 -18.054)" fill="#ffcebf"/>
    <path id="Trazado_9195" data-name="Trazado 9195" d="M1129.514,5235.321l-5.58,5.2-6.12,5.708.658.658a2.7,2.7,0,0,0,3.747.066l6.9-6.433,5.58-5.2a15.115,15.115,0,0,1,9.774-3.583h-5.183a15.121,15.121,0,0,0-9.774,3.582Zm0,0" transform="translate(-8.342 -26.843)" fill="#ffcebf"/>
    <path id="Trazado_9196" data-name="Trazado 9196" d="M1116.621,5204.121l3.827-3.547a10.21,10.21,0,0,1,6.947-2.725h31.269a3.645,3.645,0,0,1,1.154,7.1l-20.352,6.785Zm0,0" transform="translate(-8.104 -20.066)" fill="#ffdfcf"/>
    <path id="Trazado_9197" data-name="Trazado 9197" d="M1164.117,5197.85h-5.082a3.646,3.646,0,0,1,3.64,3.852,3.736,3.736,0,0,1-2.589,3.286l-15.067,5.023a.91.91,0,0,0,0,1.728l20.351-6.785a3.649,3.649,0,0,0,2.469-3.881,3.713,3.713,0,0,0-3.723-3.223Zm0,0" transform="translate(-13.658 -20.066)" fill="#ffcebf"/>
    <path id="Trazado_9198" data-name="Trazado 9198" d="M1080.615,5165.235l8.8-13.027a3.153,3.153,0,0,1,5.25.008l8.8,13.019,2.169.591,2.344-.591h.006l-10.205-15.106a6.9,6.9,0,0,0-11.467-.008l-10.211,15.115,2.424.591Zm0,0" transform="translate(-0.001 -9.91)" fill="#918291"/>
    <path id="Trazado_9199" data-name="Trazado 9199" d="M1152.014,5120.066l-.131.131H1129.6l-.132-.131a6.252,6.252,0,0,1-1.556-6.316h25.656a6.259,6.259,0,0,1-1.556,6.316Zm0,0" transform="translate(-10.304 -3.25)" fill="#d2af8c"/>
    <path id="Trazado_9200" data-name="Trazado 9200" d="M1124.79,5237.447l-6.9,6.433a2.7,2.7,0,0,1-3.747-.066l-17.177-17.175a2.7,2.7,0,0,1,.041-3.853l6.695-6.425Zm0,0" transform="translate(-4.016 -23.768)" fill="#8ac9fe"/>
    <path id="Trazado_9201" data-name="Trazado 9201" d="M1105.585,5216.36" transform="translate(-5.897 -23.767)" fill="#aa96e6"/>
    <path id="Trazado_9202" data-name="Trazado 9202" d="M1159.643,5112.051a6.08,6.08,0,0,0-7.468-3.344l-4.488,1.472a2.036,2.036,0,0,1-1.276,0l-4.488-1.472a6.079,6.079,0,0,0-7.468,3.344,6.264,6.264,0,0,0,1.322,6.947l9.829,9.781a2.044,2.044,0,0,0,2.886,0l9.829-9.781a6.264,6.264,0,0,0,1.321-6.947Zm0,0" transform="translate(-11.565 -2.18)" fill="#ff97a4"/>
    <path id="Trazado_9203" data-name="Trazado 9203" d="M1161.783,5112.051a6.076,6.076,0,0,0-7.467-3.342l-.824.27a6.063,6.063,0,0,1,3,3.073,6.261,6.261,0,0,1-1.322,6.946l-6.717,6.688a2.7,2.7,0,0,1-3.811,0l1.9,1.9,1.2,1.2a2.044,2.044,0,0,0,2.885,0l9.831-9.783a6.264,6.264,0,0,0,1.32-6.946Zm0,0" transform="translate(-13.706 -2.181)" fill="#ff7d8d"/>
    <path id="Trazado_9204" data-name="Trazado 9204" d="M1102.881,5177.666h-21.689a3.551,3.551,0,0,1-3.386-2.479l-1.711-5.409h31.886l-1.712,5.409a3.551,3.551,0,0,1-3.386,2.479Zm0,0" transform="translate(0 -14.453)" fill="#edf4ff"/>
    <path id="Trazado_9205" data-name="Trazado 9205" d="M1108.056,5169.777l-1.711,5.409a3.553,3.553,0,0,1-3.387,2.479h5.3a3.55,3.55,0,0,0,3.385-2.479l1.712-5.409Zm0,0" transform="translate(-5.372 -14.453)" fill="#dbeaff"/>
  </g>
</svg>
