<svg xmlns="http://www.w3.org/2000/svg" width="126.489" height="134.352" viewBox="0 0 126.489 134.352">
  <g id="Grupo_9152" data-name="Grupo 9152" transform="translate(-587.106 -4837.755)">
    <path id="Trazado_9245" data-name="Trazado 9245" d="M713.995,4985.1c0-12.352-5.116-32.123-7.775-35.041-1.83-2.008-16.353-4.625-24.949-6.945a36.263,36.263,0,0,1-5.289-1.871c-7.2-3.2-43.265-3.2-50.464,0a36.3,36.3,0,0,1-5.289,1.871c-8.6,2.32-23.12,4.937-24.95,6.945-2.658,2.918-5.065,22.688-5.065,35.041Zm0,0" transform="translate(-0.399 -12.991)" fill="#766d78"/>
    <path id="Trazado_9246" data-name="Trazado 9246" d="M601.864,4986.752H587.106c0-12.352,5.116-32.123,7.774-35.041,0,0-.395,20.82,6.984,35.041Zm0,0" transform="translate(0 -14.645)" fill="#544f56"/>
    <path id="Trazado_9247" data-name="Trazado 9247" d="M642.849,4936.477s-.611,5.519-.611,9.854c0,28.441,15.2,38.463,15.2,38.463s15.2-10.022,15.2-38.463c0-4.335-.611-9.854-.611-9.854Zm0,0" transform="translate(-7.085 -12.687)" fill="#c8d2dc"/>
    <path id="Trazado_9248" data-name="Trazado 9248" d="M672.113,4930.958c0,18.927-11.337,18.927-11.337,18.927h-6.5s-11.337,0-11.337-18.927v-37.422h29.174Zm0,0" transform="translate(-7.175 -7.169)" fill="#f7f9fa"/>
    <path id="Trazado_9249" data-name="Trazado 9249" d="M658.526,4941.568s9.754,5.688,3.146,14.627a126.128,126.128,0,0,1,4.655,16.919s-2.85,12.335-7.8,12.335-7.8-12.335-7.8-12.335a126.042,126.042,0,0,1,4.656-16.919c-6.609-8.938,3.146-14.627,3.146-14.627Zm0,0" transform="translate(-8.176 -13.342)" fill="#8ac9fe"/>
    <path id="Trazado_9250" data-name="Trazado 9250" d="M668.53,4984.33s16.362-13.815,16.362-24.378c0-6.429-4.344-19.479-4.344-19.479h0a29.426,29.426,0,0,1-10.646-7.609v7.585c0,28.441-14.587,43.881-14.587,43.881s-14.587-15.44-14.587-43.881v-7.585a29.425,29.425,0,0,1-10.647,7.609h0s-4.343,13.049-4.343,19.479c0,10.563,16.362,24.378,16.362,24.378Zm0,0" transform="translate(-4.965 -12.223)" fill="#544f56"/>
    <path id="Trazado_9251" data-name="Trazado 9251" d="M682.349,4883.412a3.386,3.386,0,1,1,6.772,0v8.6a5.528,5.528,0,0,1-5.529,5.528,8.28,8.28,0,0,1-1.577-.161H627.153a8.274,8.274,0,0,1-1.577.161,5.527,5.527,0,0,1-5.527-5.528v-8.6a3.385,3.385,0,1,1,6.771,0Zm0,0" transform="translate(-4.234 -5.432)" fill="#ffcebf"/>
    <path id="Trazado_9252" data-name="Trazado 9252" d="M634.034,4858.781c0-10.045,7.013-17.919,22.347-17.919,7.42,0,14.159-.232,19.14,3.463,5.313,3.943,8.625,11.979,8.625,17.164v25.658c0,18.012-12.43,35.049-27.765,35.049s-22.347-17.037-22.347-35.049v-28.366Zm0,0" transform="translate(-6.031 -0.399)" fill="#ffdfcf"/>
    <path id="Trazado_9253" data-name="Trazado 9253" d="M655.583,4837.755c-4.26,0-16.93,11.8-16.93,20.627v28.366c0,18.012,1.595,35.049,16.93,35.049-15.335,0-27.765-17.037-27.765-35.049v-25.658c0-10.045,12.43-23.336,27.765-23.336Zm0,0" transform="translate(-5.232)" fill="#ffcebf"/>
    <path id="Trazado_9254" data-name="Trazado 9254" d="M686.554,4903.41a5.824,5.824,0,1,1-5.823-5.824,5.825,5.825,0,0,1,5.823,5.824Zm0,0" transform="translate(-11.284 -7.689)" fill="#e6989e"/>
    <path id="Trazado_9255" data-name="Trazado 9255" d="M642.729,4903.41a5.824,5.824,0,1,1-5.824-5.824,5.825,5.825,0,0,1,5.824,5.824Zm0,0" transform="translate(-5.651 -7.689)" fill="#e6989e"/>
    <path id="Trazado_9256" data-name="Trazado 9256" d="M657.028,4837.755c15.335,0,27.765,10.583,27.765,20.627v19.732a19.625,19.625,0,0,0-7.314-15.439,3.274,3.274,0,0,1-1.354-2.979v-15.711c0,17.336-18.21,14.077-25.622,12.036a64.885,64.885,0,0,0-9.62-2.081c-5.162-.577.81-16.185,16.144-16.185Zm0,0" transform="translate(-6.678)" fill="#be694e"/>
    <path id="Trazado_9257" data-name="Trazado 9257" d="M655.583,4837.755c-7.314,3.115-13.613,8.9-16.144,16.187a21.785,21.785,0,0,0-2.953-.146v5.9a3.274,3.274,0,0,1-1.354,2.979,19.625,19.625,0,0,0-7.314,15.439v-19.73c0-10.046,12.43-20.629,27.765-20.629Zm0,0" transform="translate(-5.232)" fill="#934c35"/>
    <path id="Trazado_9258" data-name="Trazado 9258" d="M658.022,4920.013a14.239,14.239,0,0,1-10.711-4.964,2.03,2.03,0,1,1,3.035-2.7,9.984,9.984,0,0,0,15.351,0,2.031,2.031,0,1,1,3.035,2.7,14.239,14.239,0,0,1-10.71,4.964Zm0,0" transform="translate(-7.671 -9.498)" fill="#d5717f"/>
    <path id="Trazado_9259" data-name="Trazado 9259" d="M645.433,4894.994a8.218,8.218,0,0,1-5.83-2.41,2.032,2.032,0,0,1,2.873-2.873,4.187,4.187,0,0,0,5.915,0,2.031,2.031,0,0,1,2.872,2.873,8.218,8.218,0,0,1-5.83,2.41Zm23.174,0a8.222,8.222,0,0,1-5.831-2.41,2.031,2.031,0,0,1,2.872-2.873,4.189,4.189,0,0,0,5.917,0,2.032,2.032,0,0,1,2.873,2.873,8.22,8.22,0,0,1-5.831,2.41Zm0,0" transform="translate(-6.67 -6.601)" fill="#855b51"/>
    <path id="Trazado_9260" data-name="Trazado 9260" d="M638.111,4883.271a2.032,2.032,0,0,1-.955-3.826,15.969,15.969,0,0,1,13.589,0,2.032,2.032,0,1,1-1.907,3.588,11.853,11.853,0,0,0-9.777,0,2,2,0,0,1-.95.238Zm37.065,0a2.022,2.022,0,0,1-.951-.237,11.846,11.846,0,0,0-9.777,0,2.032,2.032,0,0,1-1.906-3.589,15.967,15.967,0,0,1,13.588,0,2.031,2.031,0,0,1-.954,3.826Zm0,0" transform="translate(-6.294 -5.163)" fill="#855b51"/>
  </g>
</svg>
