<svg xmlns="http://www.w3.org/2000/svg" width="110.619" height="131.26" viewBox="0 0 110.619 131.26">
  <g id="Grupo_9153" data-name="Grupo 9153" transform="translate(-791.876 -4837.755)">
    <path id="Trazado_9261" data-name="Trazado 9261" d="M836.08,4915.959a6.842,6.842,0,1,1-6.843-6.842,6.843,6.843,0,0,1,6.843,6.842Zm0,0" transform="translate(-4.534 -10.603)" fill="#633c3e"/>
    <path id="Trazado_9262" data-name="Trazado 9262" d="M828.775,4986.844H799.166a7.286,7.286,0,0,1-7.157-8.657l1.163-6.076a13.069,13.069,0,0,1,8.368-9.815l12.515-4.541,12.418,4.505a13.051,13.051,0,0,1,6.422,5.057h0a13.016,13.016,0,0,1,1.972,4.913l1.08,6.042a7.286,7.286,0,0,1-7.172,8.571Zm0,0" transform="translate(0 -17.829)" fill="#fee07d"/>
    <path id="Trazado_9263" data-name="Trazado 9263" d="M823.527,4959.057l-7,6.113-7-6.113v-9.383h14Zm0,0" transform="translate(-2.623 -16.629)" fill="#ffcebf"/>
    <path id="Trazado_9264" data-name="Trazado 9264" d="M826.926,4928.6v7.952a11.321,11.321,0,0,1-11.339,11.368,11.119,11.119,0,0,1-10.9-11.118v-8.2c0-6.142,4.978-9.347,11.12-9.347s11.12,3.205,11.12,9.347Zm0,0" transform="translate(-1.903 -12.11)" fill="#ffdfcf"/>
    <path id="Trazado_9265" data-name="Trazado 9265" d="M802.344,4977.775v10.736h-3.177a7.286,7.286,0,0,1-7.157-8.657l1.163-6.076a12.954,12.954,0,0,1,1.971-4.8,8.968,8.968,0,0,1,7.2,8.794Zm0,0" transform="translate(0 -19.497)" fill="#ffc269"/>
    <path id="Trazado_9266" data-name="Trazado 9266" d="M834.681,4988.513h-3.06v-10.736a8.967,8.967,0,0,1,7.181-8.79,13.034,13.034,0,0,1,1.974,4.913l1.079,6.042a7.287,7.287,0,0,1-7.173,8.571Zm0,0" transform="translate(-5.905 -19.498)" fill="#ffc269"/>
    <path id="Trazado_9267" data-name="Trazado 9267" d="M826.926,4928.3a11.12,11.12,0,1,0-22.24,0v2.465a5.858,5.858,0,0,0,6.793-4.517.449.449,0,0,1,.809-.157c1.493,2.185,5.438,6.74,11.6,5.225a3.02,3.02,0,0,0,.392-.148,11.445,11.445,0,0,0,2.641-1.519Zm0,0" transform="translate(-1.903 -11.8)" fill="#6e4848"/>
    <path id="Trazado_9268" data-name="Trazado 9268" d="M821.14,4974.883l-2.049,13.464h-4.281l-2.358-13.373a2.639,2.639,0,0,1,.532-2.1l3.97-5,3.7,5.05a2.641,2.641,0,0,1,.484,1.959Zm0,0" transform="translate(-3.051 -19.333)" fill="#5d5260"/>
    <path id="Trazado_9269" data-name="Trazado 9269" d="M887.867,4837.755H806.592a11.136,11.136,0,0,0-11.137,11.136v22.471a11.136,11.136,0,0,0,11.137,11.136h6.187a1.2,1.2,0,0,1,1.2,1.2v9.841l10.69-10.69a1.2,1.2,0,0,1,.85-.351h43.418a1.208,1.208,0,0,1,.851.351l10.69,10.69V4883.7a1.2,1.2,0,0,1,1.2-1.2h6.189A11.135,11.135,0,0,0,899,4871.361v-22.471a11.133,11.133,0,0,0-11.134-11.136Zm0,0" transform="translate(-0.532)" fill="#dceaff"/>
    <path id="Trazado_9270" data-name="Trazado 9270" d="M887.923,4855.045H821.8a2,2,0,1,1,0-4.009h66.128a2,2,0,1,1,0,4.009Zm0,0" transform="translate(-4.147 -1.973)" fill="#a4ccff"/>
    <path id="Trazado_9271" data-name="Trazado 9271" d="M815.136,4853.042a2,2,0,1,1-2-2.006,2,2,0,0,1,2,2.006Zm0,0" transform="translate(-2.86 -1.973)" fill="#a4ccff"/>
    <path id="Trazado_9272" data-name="Trazado 9272" d="M879.062,4865.819h-66.7a2.006,2.006,0,0,1,0-4.012h66.7a2.006,2.006,0,0,1,0,4.012Zm0,0" transform="translate(-2.746 -3.573)" fill="#a4ccff"/>
    <path id="Trazado_9273" data-name="Trazado 9273" d="M900.855,4863.814a2,2,0,1,1-2.005-2.007,2.005,2.005,0,0,1,2.005,2.007Zm0,0" transform="translate(-15.596 -3.573)" fill="#a4ccff"/>
    <path id="Trazado_9274" data-name="Trazado 9274" d="M887.923,4876.592H821.8a2.005,2.005,0,1,1,0-4.01h66.128a2.005,2.005,0,1,1,0,4.01Zm0,0" transform="translate(-4.147 -5.175)" fill="#a4ccff"/>
    <path id="Trazado_9275" data-name="Trazado 9275" d="M815.136,4874.586a2,2,0,1,1-2-2,2,2,0,0,1,2,2Zm0,0" transform="translate(-2.86 -5.175)" fill="#a4ccff"/>
    <path id="Trazado_9276" data-name="Trazado 9276" d="M906.86,4986.865H877.373a7.257,7.257,0,0,1-7.127-8.622l1.157-6.052a13.026,13.026,0,0,1,8.335-9.775L892.2,4957.9l12.366,4.486a12.98,12.98,0,0,1,6.4,5.034v0a12.952,12.952,0,0,1,1.966,4.892l1.075,6.018a7.256,7.256,0,0,1-7.143,8.537Zm0,0" transform="translate(-11.624 -17.851)" fill="#b8b6ff"/>
    <path id="Trazado_9277" data-name="Trazado 9277" d="M901.633,4959.192l0,0a10.6,10.6,0,0,1-13.94,0v-9.345h13.943Zm0,0" transform="translate(-14.236 -16.655)" fill="#ffcebf"/>
    <path id="Trazado_9278" data-name="Trazado 9278" d="M905.017,4928.863v7.92a11.274,11.274,0,0,1-11.291,11.321,11.075,11.075,0,0,1-10.858-11.073v-8.168c0-6.116,4.958-9.308,11.074-9.308s11.074,3.192,11.074,9.308Zm0,0" transform="translate(-13.519 -12.154)" fill="#ffdfcf"/>
    <path id="Trazado_9279" data-name="Trazado 9279" d="M880.536,4977.833v10.693h-3.163a7.257,7.257,0,0,1-7.127-8.622l1.157-6.052a12.9,12.9,0,0,1,1.963-4.777,8.931,8.931,0,0,1,7.17,8.757Zm0,0" transform="translate(-11.624 -19.511)" fill="#a09eef"/>
    <path id="Trazado_9280" data-name="Trazado 9280" d="M912.741,4988.526h-3.048v-10.693a8.932,8.932,0,0,1,7.151-8.752,12.945,12.945,0,0,1,1.966,4.894l1.075,6.016a7.256,7.256,0,0,1-7.143,8.536Zm0,0" transform="translate(-17.505 -19.512)" fill="#a09eef"/>
    <path id="Trazado_9281" data-name="Trazado 9281" d="M905.017,4928.015c-.414.318-.722.547-.722.547a20.037,20.037,0,0,1-2.549,1.234c-4.154,1.663-8.214,1.722-10.179.347a20.289,20.289,0,0,1-2.818-2.507c-.77-.978-3.212-1.224-5.237.926a1.813,1.813,0,0,1-.644.459v-.459a11.081,11.081,0,0,1,22.149-.547Zm0,0" transform="translate(-13.519 -11.845)" fill="#6e4848"/>
  </g>
</svg>
