<svg xmlns="http://www.w3.org/2000/svg" width="239.376" height="320.169" viewBox="0 0 239.376 320.169">
  <g id="Grupo_9168" data-name="Grupo 9168" transform="translate(-452.161 -267.259)">
    <ellipse id="Elipse_43" data-name="Elipse 43" cx="119.688" cy="8.17" rx="119.688" ry="8.17" transform="translate(452.161 571.088)" fill="#efeae4"/>
    <path id="Trazado_9421" data-name="Trazado 9421" d="M766.53,1608.185l-.276,12.752a29.771,29.771,0,0,0,6.19.156l2.294-.34s5.81.739,12.665.893a75.117,75.117,0,0,0,12.628-.813l.093-4.293s-17.445-4.894-19.488-5.9a15.248,15.248,0,0,1-4.157-3.843Z" transform="translate(-245.472 -1046.885)" fill="#595750"/>
    <path id="Trazado_9422" data-name="Trazado 9422" d="M637.658,1608.185l-.276,12.752a29.77,29.77,0,0,0,6.19.156l2.294-.34s5.81.739,12.665.893a75.12,75.12,0,0,0,12.628-.813l.093-4.293s-17.445-4.894-19.488-5.9a15.248,15.248,0,0,1-4.157-3.843Z" transform="translate(-144.755 -1046.885)" fill="#6d6b64"/>
    <path id="Trazado_9423" data-name="Trazado 9423" d="M790.6,839.072h-5.315s-5.432-18.937-5.5-19.934,13.5-23.522,13.5-23.522l1.8,38.074Z" transform="translate(-256.044 -412.925)" fill="#2f7289"/>
    <path id="Trazado_9424" data-name="Trazado 9424" d="M658.029,885.234s8.866,44.828,10.133,76.4-7.209,76.683-7.209,76.683H647.143s4.667-55.931,3.785-76.683-8.787-54.234-8.787-54.234h-4.5s3.525,30.333,3.923,59.277-8.713,71.64-8.713,71.64h-13.84s5.285-64.842,4.879-78.437-8.238-46.037-9.031-63.151S637.642,876.5,637.642,876.5Z" transform="translate(-127.138 -476.136)" fill="#8acadd"/>
    <path id="Trazado_9425" data-name="Trazado 9425" d="M682.871,521.739l5.422-1.547H708.85s6.317,8.444,6.915,32.764-7.905,54.972-7.905,54.972l-29.545-.54Z" transform="translate(-176.746 -197.674)" fill="#384948"/>
    <path id="Trazado_9426" data-name="Trazado 9426" d="M818.079,520.192s5.924,16.563,4.227,41.557-1.779,62.071-1.779,62.071h7.637s1.975-84.031.963-93.075S818.079,520.192,818.079,520.192Z" transform="translate(-285.975 -197.674)" fill="#5398b7"/>
    <path id="Trazado_9427" data-name="Trazado 9427" d="M625.137,516.008s10.593,5.76,11.594,28.44,0,76.1,0,76.1H606.549s-3.9-84.652,1.813-93.955S625.137,516.008,625.137,516.008Z" transform="translate(-119.643 -194.404)" fill="#5398b7"/>
    <g id="Grupo_9166" data-name="Grupo 9166" transform="translate(504.717 267.259)">
      <path id="Trazado_9428" data-name="Trazado 9428" d="M695.743,344.933a16.556,16.556,0,0,0-2.827,7.364c-.393,4.077-.433,9.892,2.209,14.274a26.547,26.547,0,0,1,3.813,9.668,2.088,2.088,0,0,0,1.049,1.872l2.691.182,4.089-11.8-6.354-15.7Z" transform="translate(-692.72 -327.963)" fill="#874010"/>
      <path id="Trazado_9429" data-name="Trazado 9429" d="M746.864,460.723l.815,11.1s-1.453,3.61-7.418,3.289a11.912,11.912,0,0,1-8.756-4.135l1.621-14.227Z" transform="translate(-723.032 -415.348)" fill="#f4bb82"/>
      <path id="Trazado_9430" data-name="Trazado 9430" d="M733.9,472.256a18.317,18.317,0,0,0,9.477,1.305c5.1-.754,5.719-2.089,5.719-2.089l.052-.763-14.259-6.456Z" transform="translate(-724.9 -421.216)" fill="#e58e63"/>
      <path id="Trazado_9431" data-name="Trazado 9431" d="M733.666,300.338l-.525,7.765s-1.256,15.735-8.978,16.614-16.325-3.493-18.679-6.454-3.246-8.047-3.246-8.047-3.681.822-5.371-4.648.794-6.455.794-6.455a4.42,4.42,0,0,1,3.4.12,5.169,5.169,0,0,1,2.1,1.405s-2.425-11.26-.3-16.719,14.124-9.454,23.721-3.532S733.666,300.338,733.666,300.338Z" transform="translate(-695.5 -275.224)" fill="#f4bb82"/>
      <path id="Trazado_9432" data-name="Trazado 9432" d="M702.288,387.551s-.3-2.465.418-2.938,3.29.5,3.719,3.492-.693,2.947-1.371,2.819-1.264-1.211-.9-2.505.927-1.118.927-1.118-.739-2.146-1.761-1.987-.842,2.3-.842,2.3Z" transform="translate(-700.149 -358.885)" fill="#e58e63"/>
      <path id="Trazado_9433" data-name="Trazado 9433" d="M774.114,380.519c.071-1.05-.5-1.944-1.276-2s-1.462.756-1.533,1.807.5,1.944,1.276,2S774.043,381.569,774.114,380.519Z" transform="translate(-754.132 -354.212)" fill="#4c311e"/>
      <path id="Trazado_9434" data-name="Trazado 9434" d="M841.455,385.071c.071-1.05-.5-1.944-1.276-2s-1.462.757-1.533,1.807.5,1.944,1.276,2S841.384,386.121,841.455,385.071Z" transform="translate(-806.761 -357.77)" fill="#4c311e"/>
      <path id="Trazado_9435" data-name="Trazado 9435" d="M818.028,388.628c-.02-1.321-1.371-2.505-1.975-3.586a8.84,8.84,0,0,1-.915-2.162,10.4,10.4,0,0,1-.1-2.655.069.069,0,0,0-.124-.043c-.983,1.571-.317,4.014.457,5.538a12,12,0,0,0,.685,1.164c.333.5,1.173,1.349.906,2.019-.179.451-1.02.7-1.437.789a2.635,2.635,0,0,1-1.593-.237.217.217,0,0,0-.281.245c.115,1.113,1.535,1.168,2.354.928C817.011,390.337,818.046,389.814,818.028,388.628Z" transform="translate(-787.233 -355.489)" fill="#e58e63"/>
      <path id="Trazado_9436" data-name="Trazado 9436" d="M762.034,354.755c-1-.847-3.051-.771-4.254-.589a3.935,3.935,0,0,0-3,1.935.283.283,0,0,0-.206.285l.005.242a.32.32,0,0,0,.113.236.489.489,0,0,0,.607.459,37.266,37.266,0,0,1,5.788-.441C762.287,356.838,763.108,355.665,762.034,354.755Z" transform="translate(-741.062 -335.087)" fill="#994f1d"/>
      <path id="Trazado_9437" data-name="Trazado 9437" d="M830.384,360.445a37.28,37.28,0,0,1,5.588,1.572.489.489,0,0,0,.685-.33.322.322,0,0,0,.157-.209l.052-.236a.282.282,0,0,0-.145-.32,3.935,3.935,0,0,0-2.559-2.488c-1.143-.416-3.14-.894-4.286-.261C828.643,358.854,829.218,360.166,830.384,360.445Z" transform="translate(-799.372 -338.071)" fill="#994f1d"/>
      <path id="Trazado_9438" data-name="Trazado 9438" d="M720.056,298.735s-6.163.2-7.878,4.052-.349,10.38.168,11.209A17.034,17.034,0,0,0,713.974,316L711.3,317.76l-1.859-2.964a11.161,11.161,0,0,0-2.728-1.642,11.034,11.034,0,0,0-2.063-.084,30.862,30.862,0,0,1,.113-9.77,21.53,21.53,0,0,1,2.752-7.732Z" transform="translate(-701.779 -289.382)" fill="#c99a7b"/>
      <path id="Trazado_9439" data-name="Trazado 9439" d="M849.241,299.875a20.906,20.906,0,0,1,2.772,7.448,22.307,22.307,0,0,1,.131,7.091,28.343,28.343,0,0,0,.773-10.468,15.415,15.415,0,0,0-5-9.136Z" transform="translate(-814.012 -288.79)" fill="#c99a7b"/>
      <path id="Trazado_9440" data-name="Trazado 9440" d="M743.841,268.431c-5.074-1.307-11.028-1.63-15.414-.408,0,0-5.017,2.671-3.9,5.274s2.87,1.017,8.678,2.056a23.8,23.8,0,0,1,8.8,3.129h0a16.557,16.557,0,0,0,3.382.546c2.763.01,7.517-.285,7.88-1.054S751.726,270.463,743.841,268.431Z" transform="translate(-717.451 -267.259)" fill="#994f1d"/>
      <path id="Trazado_9441" data-name="Trazado 9441" d="M720.542,278.088c-5.808-1.039-7.561.547-8.678-2.056s3.9-5.273,3.9-5.274a8.873,8.873,0,0,0-5.43,3.554,16.257,16.257,0,0,0-2.172,7.783,47.275,47.275,0,0,1,7.607-2.1,36.616,36.616,0,0,1,7.3-.653s3.321,1.158,6.277,1.871h0A23.8,23.8,0,0,0,720.542,278.088Z" transform="translate(-704.789 -269.994)" fill="#874010"/>
      <path id="Trazado_9442" data-name="Trazado 9442" d="M778.239,272.523s7.358,2.878,2.91,4.781-11.794,1.877-11.794,1.877l6.936,2.173s12.317.392,9.985-3.807S778.239,272.523,778.239,272.523Z" transform="translate(-752.612 -271.373)" fill="#ffe7d7" opacity="0.24"/>
      <path id="Trazado_9443" data-name="Trazado 9443" d="M727.3,412.627c2.913,4.387,6.56,10.849,16.288,11.507a12.764,12.764,0,0,0,7.8-1.706,16.164,16.164,0,0,0,3.161-10.46s.906-5.385-8.923-6.05-10.212,4.987-10.212,4.987a13.531,13.531,0,0,1-5.573-2.763c-2.9-2.312-2.063-7.369-2.063-7.369l-1.646-.374S724.387,408.24,727.3,412.627Z" transform="translate(-718.427 -371.311)" fill="#994f1d"/>
      <g id="Grupo_9165" data-name="Grupo 9165" transform="translate(20.249 36.845)">
        <path id="Trazado_9444" data-name="Trazado 9444" d="M792.742,439.065l3.028-.015.8-2.387-11.169-.755s.08,5.943,5.564,6.314a5.4,5.4,0,0,0,4.276-1.438l.476-1.34Z" transform="translate(-785.405 -435.907)" fill="#fff"/>
        <path id="Trazado_9445" data-name="Trazado 9445" d="M822.822,439.363l-.8,2.387-3.028.015,2.979.378-.476,1.34a7.882,7.882,0,0,0,2.088-4.07Z" transform="translate(-811.653 -438.608)" fill="#e58e63"/>
      </g>
      <path id="Trazado_9446" data-name="Trazado 9446" d="M731.714,423.4c6.027,5.521,12.584,5.259,16.98-.244.194-.243.376-.487.551-.731a12.765,12.765,0,0,1-7.8,1.706c-9.728-.658-13.375-7.12-16.288-11.507s-1.169-12.228-1.169-12.228-.505.7-1.057,5.246S725.687,417.881,731.714,423.4Z" transform="translate(-716.285 -371.311)" fill="#874010"/>
    </g>
    <path id="Trazado_9447" data-name="Trazado 9447" d="M732.087,362.527l.453,1.959.629-.151s1.173,7.013,2.693,8.249c1.89,1.536,10.167,2.143,11.33.709,1.059-1.306,2.491-6.209,2.491-6.209l.146.009,2.058.129.146.009s.81,5.042,1.7,6.471c.975,1.569,9.263,2,11.33.709,1.662-1.037,3.7-7.849,3.7-7.849l.605.229.693-1.887a15.683,15.683,0,0,0-9.53-2.956c-5.868.062-8.4,3.408-8.4,3.408l-.124-.008-2.058-.129-.124-.008s-2.1-3.635-7.911-4.428A15.683,15.683,0,0,0,732.087,362.527Zm21.415,3.866c.165-.514,2.777-3,6.959-3s7,1.367,7.145,2.163-2.375,7.193-3.284,7.923-8.819.187-9.5-.594-1.268-5.2-1.3-5.731A6.906,6.906,0,0,1,753.5,366.393Zm-19.062-2.909c.248-.771,3.209-1.778,7.359-1.256s6.432,3.31,6.531,3.841a6.937,6.937,0,0,1-.114.756c-.1.518-1.232,4.833-2.005,5.524s-8.69.243-9.5-.594S734.192,364.255,734.439,363.484Z" transform="translate(-218.77 -72.97)" fill="#372006"/>
    <path id="Trazado_9448" data-name="Trazado 9448" d="M681,506.363s8.771,4.608,9.834,21.011a250.391,250.391,0,0,1-.7,34.575l-10.866-37.575,3.478-3.288-2.946-1.148s-3.077-6.738-4.063-8.327a10.773,10.773,0,0,0-2.714-2.763Z" transform="translate(-172.612 -186.866)" fill="#2f7289"/>
    <path id="Trazado_9449" data-name="Trazado 9449" d="M818.557,517.194a121.584,121.584,0,0,1,3.123,21.529c.5,11.163,1.679,20.054,1.679,20.054l4-28.726-4.682-5.781,3.585-5.2-5.414-3.058Z" transform="translate(-286.348 -194.404)" fill="#2f7289"/>
    <path id="Trazado_9450" data-name="Trazado 9450" d="M508.669,540.885s-36.8,20.9-36.742,42.754c.046,17.208,23.206,16.916,36.742,11.982s21.206-10.572,21.206-10.572l-8.933-11.982s-18.707,8.694-25.52,7.166,5.82-9.3,5.82-9.3,9.451-2.141,11.33-14.1S508.669,540.885,508.669,540.885Z" transform="translate(-15.448 -213.846)" fill="#2f7289"/>
    <path id="Trazado_9451" data-name="Trazado 9451" d="M855.249,548.909S895.636,576.988,891,593.992c-3.654,13.39-20.737,8.124-27.547,4.61a43.475,43.475,0,0,1-10.2-6.93l5.788-14.065s13.076,8.95,15.229,9.347c3.922.723-5.3-4.563-8.236-6.678s-9.157-6.108-9.157-6.108S857.118,553.039,855.249,548.909Z" transform="translate(-313.463 -220.117)" fill="#2f7289"/>
    <path id="Trazado_9452" data-name="Trazado 9452" d="M817.8,649.091a9.132,9.132,0,0,1-5.027.18c-2.225-.763-4.881-4.152-5.238-5.224s-.192-3.609.406-3.5,1.192,1.273,1.284,1.935.122,1.369.507,1.65,2.82,1.206,2.83.22a38.821,38.821,0,0,0-.8-6.314,7.091,7.091,0,0,0-3.227-.342c-.206.255-.612,2.3-1.056,2.814s-1.009.051-.958-1.215.479-3.787,1.664-4.05a17.214,17.214,0,0,1,4.326.323s-2.231-1.929-3.69-1.8-2.489,1.227-3.034,1.158-.551-3.971,3.915-3.365a7.718,7.718,0,0,1,5.986,3.9,4.707,4.707,0,0,0-1.817-3.326c-1.666-1.093-3.687-1.208-4.366-1.679s-1.073-2.683,3.056-1.455,4.789,3.12,5.262,4.023a5.522,5.522,0,0,1,.557,1.842s.623-.706-.241-2.7-3.252-3.615-2.411-4.014,3.608.951,4.722,4.635a25.156,25.156,0,0,1,.782,7.965Z" transform="translate(-276.175 -281.993)" fill="#f4bb82"/>
    <path id="Trazado_9453" data-name="Trazado 9453" d="M710.483,654.335a7.414,7.414,0,0,0,4.8.429c2.225-.763,4.881-4.152,5.238-5.224s.192-3.609-.406-3.5-1.192,1.273-1.284,1.935-.122,1.368-.507,1.649-2.82,1.206-2.83.22a38.87,38.87,0,0,1,.8-6.314,7.09,7.09,0,0,1,3.228-.342c.206.255.612,2.3,1.056,2.814s1.008.051.958-1.215-.479-3.787-1.664-4.051a17.222,17.222,0,0,0-4.326.323s2.231-1.929,3.69-1.8,2.488,1.227,3.034,1.158.551-3.971-3.915-3.365a7.719,7.719,0,0,0-5.986,3.9,4.706,4.706,0,0,1,1.817-3.326c1.666-1.093,3.686-1.208,4.366-1.679s1.073-2.683-3.056-1.455-4.789,3.12-5.261,4.023a5.523,5.523,0,0,0-.557,1.842s-.623-.706.241-2.7,3.252-3.616,2.411-4.014-3.608.951-4.722,4.635-.717,10.075-.717,10.075Z" transform="translate(-199.026 -286.286)" fill="#f4bb82"/>
    <path id="Trazado_9454" data-name="Trazado 9454" d="M715.365,993.348l-1.075-2.476,22.675-4.405-14.571,8.017,2.076,21.1-4.606-22.239Z" transform="translate(-204.861 -562.08)" fill="#64acbc"/>
    <g id="Grupo_9167" data-name="Grupo 9167" transform="translate(579.723 287.495)">
      <path id="Trazado_9455" data-name="Trazado 9455" d="M1085.438,628.312s-4.543,32.063-12.175,32.883-13.188-25-13.188-25l-7.514,2.134s4.141,21.8,9.215,29.217,15.879,8.075,21.942-.558,14.054-27.2,13.794-36.915-7.523-11.933-10.076-7.337C1085.223,626.715,1085.438,628.312,1085.438,628.312Z" transform="translate(-1048.951 -563.509)" fill="#f9bb6e"/>
      <path id="Trazado_9456" data-name="Trazado 9456" d="M1177.6,742.4s1.439-2.588,3.784,1.8,1.471,10.925,1.471,10.925l2.266-3.888-.35-10.207-5.161-5.08Z" transform="translate(-1146.677 -653.785)" fill="#ef8e4d"/>
      <path id="Trazado_9457" data-name="Trazado 9457" d="M1047.359,613.469s1.586-7.13,1.506-8.13a2.689,2.689,0,0,0-1.006-1.7,1.013,1.013,0,0,1-.811-.927c0-.753-2.548-12.334-2.9-13.2s-2.085-.811-1.8,1.969,1.062,8.111,1.062,8.111a5.138,5.138,0,0,1-4.652,1.183c-.868.434-.84,2.258-.84,2.258a1.445,1.445,0,0,0-1.737.9c-.637,1.274.9,7.3,1.911,9.063a6.491,6.491,0,0,0,1.882,2.287A9.449,9.449,0,0,0,1047.359,613.469Z" transform="translate(-1036.041 -538.96)" fill="#f9bb6e"/>
      <path id="Trazado_9458" data-name="Trazado 9458" d="M1190.511,474.914s-3.844-3.712,6.271-5.687c11.118-2.17,18.777-.711,19.414,1.422s3.229-1.264,3.229-1.264,2.644-7.188,2.514-8.53-8.916-9.742-9.195-9.965-29.243-8.044-29.243-8.044-1.813,9.388-.6,17.535a27.012,27.012,0,0,0,5.343,12.9Z" transform="translate(-1150.488 -424.721)" fill="#913f03"/>
      <path id="Trazado_9459" data-name="Trazado 9459" d="M1327.749,375.136s9.167,6.183,8.084,25.772-12.788,21.826-12.788,21.826a55.071,55.071,0,0,0,4-11.963c.908-5.44.118-7.646.118-7.646s-5.529-10.589-5.529-11.221S1327.749,375.136,1327.749,375.136Z" transform="translate(-1259.243 -371.804)" fill="#b7650a"/>
      <path id="Trazado_9460" data-name="Trazado 9460" d="M1182.416,383.261s-9.434,4.408-8.351,24,10.593,21.826,10.593,21.826-4.6-8.077-6.043-13.4c-2.364-8.741-.443-18.324-.443-18.324s7.893,1.527,7.893.9S1182.416,383.261,1182.416,383.261Z" transform="translate(-1143.843 -378.154)" fill="#b7650a"/>
      <path id="Trazado_9461" data-name="Trazado 9461" d="M1310.12,700.93c0,.616-10.636,38.213-10.426,38.529a40.025,40.025,0,0,0,4.318,2.106l16.09,1.422-.925-37.63-6.424-4.427Z" transform="translate(-1242.091 -626.421)" fill="#464c35"/>
      <path id="Trazado_9462" data-name="Trazado 9462" d="M1360.548,663.716l4.717,12.557-3.737,3.7-5.828-7.409Z" transform="translate(-1285.863 -597.337)" fill="#61664f"/>
      <path id="Trazado_9463" data-name="Trazado 9463" d="M1190.477,614.3a51.868,51.868,0,0,1,16.628-2.549,50.973,50.973,0,0,1,16.541,2.549s.957,21.406.49,22.716-7.716,27.849-7.716,27.849H1195.9l-5.421-20.35s-6.29-3.2-6.088-8.446,6.088-10.921,6.088-10.921Z" transform="translate(-1151.975 -556.723)" fill="#f9512b"/>
      <path id="Trazado_9464" data-name="Trazado 9464" d="M1299.387,1591.107l-4.8,15.3h-7.713s-.8.29-.8,1.776,1.128,1.2,4.584,1.2h5.384s.837.109,1.71-2.683,2.547-8.628,2.547-8.628l2.292-1.051s1.273-2.973.327-4.278S1299.387,1591.107,1299.387,1591.107Z" transform="translate(-1231.447 -1322.118)" fill="#645013"/>
      <path id="Trazado_9465" data-name="Trazado 9465" d="M1352.172,1618.154l-2.074,12.385h-.582l.364-11.334Z" transform="translate(-1281.031 -1343.256)" fill="#645013"/>
      <path id="Trazado_9466" data-name="Trazado 9466" d="M1300.189,1565.387l-.4,6.272-2.547,12.906-2.692,1.74h6.661l4.8-15.3-.8-5.619Z" transform="translate(-1238.072 -1302.017)" fill="#f9bb6e"/>
      <path id="Trazado_9467" data-name="Trazado 9467" d="M1235.942,1591.107l-4.8,15.3h-7.713s-.8.29-.8,1.776,1.128,1.2,4.584,1.2h5.384s.837.109,1.71-2.683,2.547-8.628,2.547-8.628l2.292-1.051s1.273-2.973.327-4.278S1235.942,1591.107,1235.942,1591.107Z" transform="translate(-1181.863 -1322.118)" fill="#645013"/>
      <path id="Trazado_9468" data-name="Trazado 9468" d="M1288.728,1618.154l-2.074,12.385h-.582l.364-11.334Z" transform="translate(-1231.447 -1343.256)" fill="#645013"/>
      <path id="Trazado_9469" data-name="Trazado 9469" d="M1236.744,1565.387l-.4,6.272-2.547,12.906-2.692,1.74h6.661l4.8-15.3-.8-5.619Z" transform="translate(-1188.489 -1302.017)" fill="#f9bb6e"/>
      <path id="Trazado_9470" data-name="Trazado 9470" d="M1220.365,888.15c-1.742-13.614-14.23-33.289-14.23-33.289h-20.522s-12.488,19.675-14.23,33.289,11.352,61.82,11.352,61.82l.458,5.317,5.905,59.957h6.827s1.5-22.472,1.5-35.34-3.817-31.144-3.817-31.144l1.2-54.083,1.065-.093,1.065.093,4.767,55.267.221,4.888,1.2,60.411,7.364.124s1.985-22.273,2.57-35.128.056-31.48.056-31.48S1222.107,901.764,1220.365,888.15Z" transform="translate(-1141.689 -746.722)" fill="#85c1cb"/>
      <path id="Trazado_9471" data-name="Trazado 9471" d="M1225.773,1017.685l-17.655-5.429,9.948,9.624,4.846,28.684.731-32.879Z" transform="translate(-1170.523 -869.73)" fill="#62a2a1"/>
      <path id="Trazado_9472" data-name="Trazado 9472" d="M1188.778,728.841s10.776,4.7,11.649,4.7,6.773-4.368,9.029-4.7,9.9,5.5,9.61,6.007-17.984-.146-19.076,0-6.216,1.165-6.216,1.165a24.666,24.666,0,0,1-4.4-4.086A3.1,3.1,0,0,1,1188.778,728.841Z" transform="translate(-1155.272 -648.224)" fill="#d13419"/>
      <path id="Trazado_9473" data-name="Trazado 9473" d="M1235.626,846.583l5.033,10.77s-5.351,3.536-16.818,3.318-15.341-1.664-15.341-1.664l5.727-13.062Z" transform="translate(-1170.822 -739.754)" fill="#f9512b"/>
      <path id="Trazado_9474" data-name="Trazado 9474" d="M1254.183,555.826l-1.157,10.838a5.308,5.308,0,0,0,5.32,3.72,8.125,8.125,0,0,0,6.68-3.478l-.487-14.073Z" transform="translate(-1205.621 -510.679)" fill="#f9bb6e"/>
      <path id="Trazado_9475" data-name="Trazado 9475" d="M1254.4,570.216a15,15,0,0,0,11.332-7.617l-.006-1.629-10.921,5.459Z" transform="translate(-1206.692 -517.038)" fill="#ef8e4d"/>
      <path id="Trazado_9476" data-name="Trazado 9476" d="M1195.289,399.774v1.3a44.3,44.3,0,0,0,2.584,14.951c1.442,4.022,5.075,8.165,6.912,8.31a20.516,20.516,0,0,0,16.361-6.027,30.535,30.535,0,0,0,4.337-6.751s3.559,1.051,5.581-4.206-.351-6.389-.351-6.389a4.35,4.35,0,0,0-3.343-.108,5.088,5.088,0,0,0-2.157,1.24s3.127-10.892,1.4-16.391-13.237-10.218-23.05-5.042S1195.289,399.774,1195.289,399.774Z" transform="translate(-1160.43 -374.376)" fill="#f9bb6e"/>
      <path id="Trazado_9477" data-name="Trazado 9477" d="M1341.08,492.1s.458-2.4-.216-2.912-3.262.27-3.882,3.181.485,2.939,1.159,2.858,1.321-1.105,1.051-2.4-.836-1.159-.836-1.159.868-2.057,1.86-1.833.674,2.309.674,2.309Z" transform="translate(-1271.092 -460.827)" fill="#ef8e4d"/>
      <path id="Trazado_9478" data-name="Trazado 9478" d="M1226.256,487.583c.107-1.3,1.512-2.368,2.176-3.389a8.7,8.7,0,0,0,1.041-2.061,10.23,10.23,0,0,0,.27-2.6.068.068,0,0,1,.125-.034c.861,1.608.045,3.962-.816,5.406a11.776,11.776,0,0,1-.749,1.1c-.36.473-1.241,1.246-1.023,1.922.146.454.955.755,1.358.87a2.594,2.594,0,0,0,1.58-.127.214.214,0,0,1,.259.26c-.187,1.085-1.584,1.044-2.372.755C1227.141,489.328,1226.159,488.746,1226.256,487.583Z" transform="translate(-1184.694 -453.341)" fill="#ef8e4d"/>
      <path id="Trazado_9479" data-name="Trazado 9479" d="M1270.376,460.337a4.685,4.685,0,0,0-2.4-.081c-.33.1-1.2.63-.725,1.132.382.4.814.244,1.3.236a8.316,8.316,0,0,1,1.808.188,6.521,6.521,0,0,1,1.456.469c.461.217.844.691,1.333.787a.38.38,0,0,0,.465-.385C1273.573,461.249,1271.407,460.579,1270.376,460.337Z" transform="translate(-1216.63 -438.229)" fill="#b7650a"/>
      <path id="Trazado_9480" data-name="Trazado 9480" d="M1204.89,460.337a3.775,3.775,0,0,1,2.148-.081c.3.1,1.075.63.649,1.132-.342.4-.729.244-1.167.236a6.7,6.7,0,0,0-1.62.188,5.416,5.416,0,0,0-1.3.469c-.413.217-.756.691-1.194.787a.353.353,0,0,1-.417-.385C1202.027,461.249,1203.967,460.579,1204.89,460.337Z" transform="translate(-1165.732 -438.229)" fill="#b7650a"/>
      <path id="Trazado_9481" data-name="Trazado 9481" d="M1208.152,479.916a1.035,1.035,0,0,0-.15.011h0l-2.288-.263,1.328,1.009h0a2.327,2.327,0,0,0-.275,1.118c0,1.036.62,1.875,1.385,1.875s1.385-.839,1.385-1.875S1208.917,479.916,1208.152,479.916Z" transform="translate(-1168.645 -453.496)" fill="#6b3904"/>
      <path id="Trazado_9482" data-name="Trazado 9482" d="M1273.695,479.916a1.036,1.036,0,0,0-.15.011h0l-2.288-.263,1.328,1.009h0a2.329,2.329,0,0,0-.275,1.118c0,1.036.62,1.875,1.385,1.875s1.385-.839,1.385-1.875S1274.46,479.916,1273.695,479.916Z" transform="translate(-1219.869 -453.496)" fill="#6b3904"/>
      <path id="Trazado_9483" data-name="Trazado 9483" d="M1206.92,372.65a11.781,11.781,0,0,0,0,8.616,12.508,12.508,0,0,0,6.231,6.336,9.432,9.432,0,0,1,3.4-1.364,6.649,6.649,0,0,1,1.76.094s1.068-12.3,1.068-16.277a11.325,11.325,0,0,0-2.51-6.837s-1.039-2.423-2.207-2.856a7.366,7.366,0,0,0-1.925-.476s2.055,1.039,2.358,1.688a3.168,3.168,0,0,1,.3,1.212s-7.616-4.241-20.424-1.125-14.366,9.693-15.058,14.193,1.211,5.414,1.211,5.414,9.808.038,16.963-2.962S1206.92,372.65,1206.92,372.65Z" transform="translate(-1148.367 -359.885)" fill="#b7650a"/>
      <path id="Trazado_9484" data-name="Trazado 9484" d="M1206.021,373.641s-5.044,1.746-3.233,4.333,22.31.453,22.31.453a21.149,21.149,0,0,1-3.621,2.393c-1.293.517-13.671,2.457-20.965,1.681s-2.509-5.723-.407-6.758A44.726,44.726,0,0,1,1206.021,373.641Z" transform="translate(-1161.531 -370.636)" fill="#ffefc1" opacity="0.24"/>
      <path id="Trazado_9485" data-name="Trazado 9485" d="M1226.568,544.272s-.219,2.975,3.547,3.051,6.278-3.424,6.278-3.424l-6.164.609Z" transform="translate(-1184.941 -503.696)" fill="#e22003"/>
      <path id="Trazado_9486" data-name="Trazado 9486" d="M1224.329,539.479s1.584,1.636,5.294,1.237,5.022-1.237,5.022-1.237-6.2-1.027-8.18-1.218S1224.329,539.479,1224.329,539.479Z" transform="translate(-1183.193 -499.277)" fill="#f64610"/>
      <path id="Trazado_9487" data-name="Trazado 9487" d="M1313.357,1075.685h7.112a2.09,2.09,0,0,0,2.089-2.09h0a2.09,2.09,0,0,0-2.089-2.089h-7.112a2.09,2.09,0,0,0-2.09,2.089h0A2.09,2.09,0,0,0,1313.357,1075.685Z" transform="translate(-1251.137 -916.036)" fill="#f9bb6e"/>
      <path id="Trazado_9488" data-name="Trazado 9488" d="M1304.5,1167.894h6.175a1.966,1.966,0,0,0,1.814-2.089h0a1.967,1.967,0,0,0-1.814-2.09H1304.5a1.967,1.967,0,0,0-1.815,2.09h0A1.966,1.966,0,0,0,1304.5,1167.894Z" transform="translate(-1244.429 -988.1)" fill="#f9bb6e"/>
      <path id="Trazado_9489" data-name="Trazado 9489" d="M1180.851,1068.818h6.175a1.966,1.966,0,0,0,1.814-2.089h0a1.967,1.967,0,0,0-1.814-2.09h-6.175a1.967,1.967,0,0,0-1.814,2.09h0A1.966,1.966,0,0,0,1180.851,1068.818Z" transform="translate(-1147.796 -910.669)" fill="#f9bb6e"/>
      <path id="Trazado_9490" data-name="Trazado 9490" d="M1216.7,1220.894h5.3c.86,0,1.557-.935,1.557-2.089h0c0-1.154-.7-2.089-1.557-2.089h-5.3c-.86,0-1.557.935-1.557,2.089h0C1215.14,1219.959,1215.837,1220.894,1216.7,1220.894Z" transform="translate(-1176.012 -1029.521)" fill="#f9bb6e"/>
      <path id="Trazado_9491" data-name="Trazado 9491" d="M1232.446,1264.092q-.214-1.734-.5-3.458c-.171-1-.183-2.554-.853-3.383-.6-.747-1.669-.645-2.541-.644a4.8,4.8,0,0,0-3.143.653,3.259,3.259,0,0,0-.948,2.588,13.443,13.443,0,0,0,.095,3.256c.172,1.925.358,5.114,1.858,6.535a2.645,2.645,0,0,0,2.1.467,7.486,7.486,0,0,0,3.087-.42C1233.5,1268.714,1232.649,1265.74,1232.446,1264.092Zm-5.67,1.113c.017.134.032.268.05.4.011.084.023.172.034.263-.055-.206-.108-.419-.16-.636C1226.726,1265.224,1226.75,1265.215,1226.776,1265.2Z" transform="translate(-1183.236 -1060.693)" fill="#a9e2ec"/>
      <path id="Trazado_9492" data-name="Trazado 9492" d="M1320.213,1264.242q-.091-1.745-.26-3.485c-.1-1.011,0-2.561-.613-3.435-.55-.788-1.619-.761-2.489-.822a4.8,4.8,0,0,0-3.181.43,3.258,3.258,0,0,0-1.128,2.514,13.429,13.429,0,0,0-.135,3.255c.036,1.932,0,5.127,1.393,6.65a2.645,2.645,0,0,0,2.065.614,7.48,7.48,0,0,0,3.109-.2C1320.939,1268.928,1320.3,1265.9,1320.213,1264.242Zm-5.735.71c.007.135.014.269.022.4.005.085.01.173.016.265-.041-.209-.079-.426-.115-.646C1314.427,1264.969,1314.453,1264.961,1314.478,1264.953Z" transform="translate(-1252.002 -1060.562)" fill="#a9e2ec"/>
      <path id="Trazado_9493" data-name="Trazado 9493" d="M1296,614.339s-10.237,15.221-10.555,30.862,4.564,21.171,9.626,22.592a9.135,9.135,0,0,0,8.164-1.213v-5.738s-5.208,2.37-7.235-1.264-6.963-15.639-2.994-26.223a78.254,78.254,0,0,1,9.114-17.515s.225-1.6-1.986-1.837A11.785,11.785,0,0,0,1296,614.339Z" transform="translate(-1230.944 -558.442)" fill="#61664f"/>
      <path id="Trazado_9494" data-name="Trazado 9494" d="M1359.415,711.743s-9.478,34.218-7.583,35.482,8.105,5.055,10.213,4.107,5.268-16.9,4.794-18.8a6.939,6.939,0,0,0-1.58-3s2.528-9.4.79-13.545S1359.415,711.743,1359.415,711.743Z" transform="translate(-1282.645 -634.872)" fill="#61664f"/>
      <path id="Trazado_9495" data-name="Trazado 9495" d="M1242.612,607.731s.625,4.426,5.769,3.785,5.963-3.785,5.963-3.785l5.058,1.635L1248.122,620.7l-2.985-6.487-5.687,4.71v-9.312Z" transform="translate(-1195.011 -553.583)" fill="#fff"/>
      <path id="Trazado_9496" data-name="Trazado 9496" d="M1217.262,628.312s-4.543,32.063-12.175,32.883-13.188-25-13.188-25l-7.515,2.134s4.141,21.8,9.216,29.217,15.879,8.075,21.942-.558,14.054-27.2,13.794-36.915-7.523-11.933-10.076-7.337C1217.047,626.715,1217.262,628.312,1217.262,628.312Z" transform="translate(-1151.975 -563.509)" fill="#f9bb6e"/>
      <path id="Trazado_9497" data-name="Trazado 9497" d="M1179.184,613.469s1.586-7.13,1.506-8.13a2.689,2.689,0,0,0-1.006-1.7,1.013,1.013,0,0,1-.811-.927c0-.753-2.548-12.334-2.9-13.2s-2.085-.811-1.8,1.969,1.062,8.111,1.062,8.111a5.138,5.138,0,0,1-4.652,1.183c-.869.434-.84,2.258-.84,2.258a1.446,1.446,0,0,0-1.737.9c-.637,1.274.9,7.3,1.911,9.063a6.492,6.492,0,0,0,1.882,2.287A9.449,9.449,0,0,0,1179.184,613.469Z" transform="translate(-1139.065 -538.96)" fill="#f9bb6e"/>
    </g>
  </g>
</svg>
