<svg xmlns="http://www.w3.org/2000/svg" width="125" height="125" viewBox="0 0 125 125">
  <g id="Grupo_9143" data-name="Grupo 9143" transform="translate(-166.443 -3913.771)">
    <path id="Trazado_8706" data-name="Trazado 8706" d="M291.443,3976.271a62.5,62.5,0,1,1-62.5-62.5,62.5,62.5,0,0,1,62.5,62.5Zm0,0" fill="#8be4c3"/>
    <path id="Trazado_8707" data-name="Trazado 8707" d="M233.434,3913.771h79.492a7.83,7.83,0,0,1,7.83,7.83v74.97a7.83,7.83,0,0,1-7.83,7.83H233.434a7.829,7.829,0,0,1-7.83-7.83V3921.6a7.83,7.83,0,0,1,7.83-7.83Zm0,0" transform="translate(-29.313)" fill="#3d4159"/>
    <path id="Trazado_8708" data-name="Trazado 8708" d="M238.444,4004.309a2.729,2.729,0,0,1-2.728-2.726v-74.971a2.731,2.731,0,0,1,2.728-2.728h79.492a2.73,2.73,0,0,1,2.727,2.728v74.97a2.73,2.73,0,0,1-2.727,2.727Zm0,0" transform="translate(-34.323 -5.011)" fill="#f2f0ec"/>
    <path id="Trazado_8709" data-name="Trazado 8709" d="M363.056,4048.085a1.784,1.784,0,0,1,2.515-.186l2.927,2.523,2.522-2.194a1.784,1.784,0,1,1,2.341,2.692l-2.133,1.855,3.749,3.231a1.783,1.783,0,1,1-2.329,2.7l-4.139-3.567-2.606,2.266a1.784,1.784,0,1,1-2.341-2.692l2.217-1.928-2.536-2.186a1.784,1.784,0,0,1-.186-2.516Zm0,0" transform="translate(-97.202 -66.242)" fill="#854f89"/>
    <path id="Trazado_8710" data-name="Trazado 8710" d="M338.921,3946.013a1.784,1.784,0,0,1-2.583,2.46l-6.486-6.81a1.785,1.785,0,0,1,.3-2.714l7.784-5.189a1.783,1.783,0,0,1,1.979,2.968l-3.421,2.281c10.043.434,15.884,5.3,19.047,9.417a25.5,25.5,0,0,1,4.59,9.488,1.784,1.784,0,0,1-3.5.712,21.961,21.961,0,0,0-3.922-8.025c-4-5.208-9.751-7.908-17.087-8.046Zm0,0" transform="translate(-80.721 -9.755)" fill="#854f89"/>
    <path id="Trazado_8711" data-name="Trazado 8711" d="M374.23,4008.479a6.95,6.95,0,0,0-2.332,5.189,1.784,1.784,0,0,0,1.785,1.783H384.06a1.784,1.784,0,0,0,1.784-1.783,6.94,6.94,0,0,1,0-10.378,6.973,6.973,0,1,0-11.614,5.189Zm4.641,1.784a3.4,3.4,0,0,1,2.9,1.621h-5.8a3.4,3.4,0,0,1,2.9-1.621Zm0-3.567a3.405,3.405,0,1,1,3.406-3.406,3.41,3.41,0,0,1-3.406,3.406Zm0,0" transform="translate(-101.797 -40.9)" fill="#854f89"/>
    <path id="Trazado_8712" data-name="Trazado 8712" d="M278.941,4062.046l6.421-3.892a1.787,1.787,0,0,1,1.85,0l5.5,3.331,5.5-3.331a1.786,1.786,0,0,1,1.849,0l5.5,3.331,5.5-3.331a1.784,1.784,0,1,1,1.849,3.051l-6.421,3.892a1.787,1.787,0,0,1-1.849,0l-5.5-3.332-5.5,3.332a1.785,1.785,0,0,1-1.848,0l-5.5-3.332-5.5,3.332a1.783,1.783,0,1,1-1.848-3.051Zm0,0" transform="translate(-55.313 -71.41)" fill="#854f89"/>
    <path id="Trazado_8713" data-name="Trazado 8713" d="M329.071,3997.344a6.928,6.928,0,0,0,2.043,4.93l3.669,3.669a1.783,1.783,0,0,0,2.523,0l3.668-3.669a6.972,6.972,0,1,0-11.9-4.93Zm3.568,0a3.405,3.405,0,1,1,5.813,2.408l-2.408,2.407-2.407-2.407a3.383,3.383,0,0,1-1-2.408Zm0,0" transform="translate(-80.578 -37.953)" fill="#854f89"/>
    <path id="Trazado_8714" data-name="Trazado 8714" d="M255.6,4108.514v7.141a62.013,62.013,0,0,1-21.615,7.428,62.491,62.491,0,0,1-38.816-21.808,23.242,23.242,0,0,1,20.176-15.909q.941-.075,1.9-.077h15.125a23.194,23.194,0,0,1,23.23,23.225Zm0,0" transform="translate(-14.233 -84.983)" fill="#dd3033"/>
    <path id="Trazado_8715" data-name="Trazado 8715" d="M266.12,4108.514v14a63.1,63.1,0,0,1-18.988.893,62.172,62.172,0,0,1-30.732-12v-2.9a23.228,23.228,0,0,1,23.23-23.225h3.26A23.136,23.136,0,0,1,257.8,4090.7v0a23.175,23.175,0,0,1,8.325,17.812Zm0,0" transform="translate(-24.752 -84.983)" fill="#f74f4f"/>
    <path id="Trazado_8716" data-name="Trazado 8716" d="M193.723,4026.952a7.707,7.707,0,1,1-7.707-7.705,7.552,7.552,0,0,1,1.234.1,7.706,7.706,0,0,1,6.473,7.606Zm0,0" transform="translate(-5.88 -52.261)" fill="#d3a489"/>
    <path id="Trazado_8717" data-name="Trazado 8717" d="M254.028,4101.9l-6.235,10-6.234-10" transform="translate(-37.218 -93.212)" fill="#ffe152"/>
    <path id="Trazado_8718" data-name="Trazado 8718" d="M254.789,4137.917a61.834,61.834,0,0,1-10.179-3.063l4.7-18.291Zm0,0" transform="translate(-38.73 -100.478)" fill="#ffe152"/>
    <path id="Trazado_8719" data-name="Trazado 8719" d="M201.5,4027.049a7.707,7.707,0,0,1-6.473,7.608,28.816,28.816,0,0,1,0-15.214,7.706,7.706,0,0,1,6.473,7.606Zm0,0" transform="translate(-13.656 -52.358)" fill="#bf8e75"/>
    <path id="Trazado_8720" data-name="Trazado 8720" d="M193.634,4031.815a2.754,2.754,0,1,1-2.754-2.754,2.754,2.754,0,0,1,2.754,2.754Zm0,0" transform="translate(-10.743 -57.123)" fill="#bf8e75"/>
    <path id="Trazado_8721" data-name="Trazado 8721" d="M240.521,4091.554l-10.457,5.81-3.181-14.795,6.5-3.827" transform="translate(-29.947 -81.739)" fill="#dd3033"/>
    <path id="Trazado_8722" data-name="Trazado 8722" d="M253.914,4091.554l10.456,5.81,3.18-14.795-6.5-3.827" transform="translate(-43.34 -81.739)" fill="#dd3033"/>
    <path id="Trazado_8723" data-name="Trazado 8723" d="M298.969,4026.952a7.707,7.707,0,1,0,7.707-7.705,7.542,7.542,0,0,0-1.234.1,7.707,7.707,0,0,0-6.473,7.606Zm0,0" transform="translate(-65.663 -52.261)" fill="#d3a489"/>
    <path id="Trazado_8724" data-name="Trazado 8724" d="M298.969,4027.049a7.708,7.708,0,0,0,6.473,7.608,28.816,28.816,0,0,0,0-15.214,7.707,7.707,0,0,0-6.473,7.606Zm0,0" transform="translate(-65.663 -52.358)" fill="#bf8e75"/>
    <path id="Trazado_8725" data-name="Trazado 8725" d="M314.294,4031.815a2.754,2.754,0,1,1-2.754-2.754,2.754,2.754,0,0,1,2.754,2.754Zm0,0" transform="translate(-70.527 -57.123)" fill="#bf8e75"/>
    <path id="Trazado_8726" data-name="Trazado 8726" d="M254.43,3998.2a28.673,28.673,0,1,1-57.346,0c0-7.492,5.474-18.741,10.179-23.848,5.24-5.688,10.15-4.824,18.494-4.824a28.38,28.38,0,0,1,4.6.37,28.675,28.675,0,0,1,24.071,28.3Zm0,0" transform="translate(-15.182 -27.601)" fill="#bf8e75"/>
    <path id="Trazado_8727" data-name="Trazado 8727" d="M254.064,4067.555v10.17a8.287,8.287,0,0,1-16.573,0v-10.17Zm0,0" transform="translate(-35.202 -76.196)" fill="#bf8e75"/>
    <path id="Trazado_8728" data-name="Trazado 8728" d="M258.944,4086.435v.645a8.285,8.285,0,0,1-5.835,7.915,8.283,8.283,0,0,1-5.769-6.836q.831.051,1.67.05a28.641,28.641,0,0,0,9.934-1.774Zm0,0" transform="translate(-40.082 -85.551)" fill="#d3a489"/>
    <path id="Trazado_8729" data-name="Trazado 8729" d="M263.468,3998.606a28.677,28.677,0,0,1-24.071,28.3,28.675,28.675,0,0,1,0-56.606,28.68,28.68,0,0,1,23.93,25.444c.093.94.141,1.895.141,2.858Zm0,0" transform="translate(-24.221 -28.011)" fill="#d3a489"/>
    <path id="Trazado_8730" data-name="Trazado 8730" d="M246.4,4052.8a14.493,14.493,0,0,1-6.991-1.805,1.276,1.276,0,1,1,1.23-2.236,11.9,11.9,0,0,0,11.522,0,1.276,1.276,0,0,1,1.23,2.236,14.49,14.49,0,0,1-6.99,1.805Zm0,0" transform="translate(-35.826 -66.804)" fill="#bf8e75"/>
    <path id="Trazado_8731" data-name="Trazado 8731" d="M235.424,4019.9a3.253,3.253,0,1,1-3.253-3.253,3.253,3.253,0,0,1,3.253,3.253Zm0,0" transform="translate(-30.955 -50.973)" fill="#3d4159"/>
    <path id="Trazado_8732" data-name="Trazado 8732" d="M272.524,4019.9a3.252,3.252,0,1,1-3.253-3.253,3.253,3.253,0,0,1,3.253,3.253Zm0,0" transform="translate(-49.337 -50.973)" fill="#3d4159"/>
    <path id="Trazado_8733" data-name="Trazado 8733" d="M237.76,4020.588a1.393,1.393,0,1,1-1.393-1.394,1.394,1.394,0,0,1,1.393,1.394Zm0,0" transform="translate(-33.955 -52.234)" fill="#fff"/>
    <path id="Trazado_8734" data-name="Trazado 8734" d="M275.177,4020.588a1.394,1.394,0,1,1-1.393-1.394,1.393,1.393,0,0,1,1.393,1.394Zm0,0" transform="translate(-52.493 -52.234)" fill="#fff"/>
    <path id="Trazado_8735" data-name="Trazado 8735" d="M252.595,4036.571h-6.5a1.4,1.4,0,0,1,0-2.807h6.5a1.4,1.4,0,1,1,0,2.807Zm0,0" transform="translate(-38.768 -59.454)" fill="#bf8e75"/>
    <rect id="Rectángulo_5993" data-name="Rectángulo 5993" width="12.5" height="3.826" transform="translate(220.016 4022.769)" fill="#dd3033"/>
    <path id="Trazado_8736" data-name="Trazado 8736" d="M250.591,3953.291a17.382,17.382,0,0,1,16.1,16.47l.082,1.658h5l2.692,17.9,6.518-2.018-.875-17.535a17.38,17.38,0,0,0-17.423-16.516Zm0,0" transform="translate(-41.693 -19.558)" fill="#2a2f4f"/>
    <path id="Trazado_8737" data-name="Trazado 8737" d="M283.4,3939.618a17.711,17.711,0,1,1-25.048,25.048Zm0,0" transform="translate(-45.536 -12.807)" fill="#3d4159"/>
    <path id="Trazado_8738" data-name="Trazado 8738" d="M227.958,3971.417H206.22l-2.692,17.9-6.517-2.018.875-17.536a17.379,17.379,0,0,1,17.422-16.515l31.394.119,4.15,7.471" transform="translate(-15.145 -19.558)" fill="#3d4159"/>
    <path id="Trazado_8739" data-name="Trazado 8739" d="M227.4,3953.291a17.381,17.381,0,0,0-16.1,16.47l-.082,1.658h-5l-2.692,17.9-6.518-2.018.877-17.535a17.378,17.378,0,0,1,17.421-16.516Zm0,0" transform="translate(-15.143 -19.558)" fill="#2a2f4f"/>
    <path id="Trazado_8740" data-name="Trazado 8740" d="M277.313,4128.728c3.722-7.145,12.893-26.291,10.663-32.709a23.27,23.27,0,0,1,5.768,7.209Zm0,0" transform="translate(-54.933 -90.299)" fill="#dd3033"/>
    <path id="Trazado_8741" data-name="Trazado 8741" d="M314.148,4031.792l-31.362,64.339q-2.766-.045-5.472-.332l34.065-65.405a1.551,1.551,0,0,1,2.77,1.4Zm0,0" transform="translate(-54.933 -57.37)" fill="#3d4159"/>
  </g>
</svg>
