<svg xmlns="http://www.w3.org/2000/svg" width="125" height="125" viewBox="0 0 125 125">
  <g id="Grupo_9159" data-name="Grupo 9159" transform="translate(-1293.171 -3741.975)">
    <path id="Trazado_9302" data-name="Trazado 9302" d="M1418.171,3804.475a62.491,62.491,0,0,1-46.214,60.357q-1.405.379-2.832.692a62.194,62.194,0,0,1-10.194,1.365q-1.619.089-3.26.086a62.559,62.559,0,0,1-6.88-.377,61.994,61.994,0,0,1-17.865-4.714,62.506,62.506,0,1,1,87.245-57.408Zm0,0" fill="#8be4c3"/>
    <path id="Trazado_9303" data-name="Trazado 9303" d="M1355.149,3905.214v36.143a62.007,62.007,0,0,1-17.865-4.714,62.712,62.712,0,0,1-31.824-30.8v-.627a18.741,18.741,0,0,1,13.883-18.1c.293-.079.589-.152.888-.214a18.167,18.167,0,0,1,2.438-.363c.506-.038,1.016-.062,1.531-.062h12.207a18.475,18.475,0,0,1,3.973.425c.075.012.146.031.221.048.213.045.431.1.643.158a.137.137,0,0,1,.017.006,18.76,18.76,0,0,1,13.888,18.1Zm0,0" transform="translate(-6.358 -74.759)" fill="#dd3033"/>
    <path id="Trazado_9304" data-name="Trazado 9304" d="M1363.772,3905.214v36.143a62,62,0,0,1-17.865-4.714,62.723,62.723,0,0,1-23.781-18.016v-13.413a18.741,18.741,0,0,1,13.883-18.1c.293-.079.589-.152.887-.214a18.175,18.175,0,0,1,2.439-.363c.505-.038,1.016-.062,1.531-.062h4.164a18.473,18.473,0,0,1,3.973.425c.075.012.146.031.221.048.213.045.431.1.643.158a.135.135,0,0,1,.017.006,18.76,18.76,0,0,1,13.888,18.1Zm0,0" transform="translate(-14.98 -74.759)" fill="#f74f4f"/>
    <path id="Trazado_9305" data-name="Trazado 9305" d="M1356.145,3887.349l-.045.212-5.606,26.076a5.455,5.455,0,0,1-5.305,4.324h-.095a5.455,5.455,0,0,1-5.305-4.324l-5.606-26.074-.045-.214Zm0,0" transform="translate(-21.195 -75.212)" fill="#f2f0ec"/>
    <path id="Trazado_9306" data-name="Trazado 9306" d="M1345.141,3891.29l-8.437,4.689-2.566-11.939,5.242-3.087" transform="translate(-21.195 -71.903)" fill="#d8d5d0"/>
    <path id="Trazado_9307" data-name="Trazado 9307" d="M1356.937,3891.29l8.437,4.689,2.566-11.939-5.242-3.087" transform="translate(-32.991 -71.903)" fill="#d8d5d0"/>
    <path id="Trazado_9308" data-name="Trazado 9308" d="M1304.743,3819.809v-28.262a25.193,25.193,0,1,1,50.385,0v29.538" transform="translate(-5.987 -12.612)" fill="#cc7a3b"/>
    <path id="Trazado_9309" data-name="Trazado 9309" d="M1315.1,3792.651c0,10,5.854,21.563,9.07,27.16h-19.433v-28.262a25.179,25.179,0,0,1,25.009-25.193c-7.746.194-14.646,12.62-14.646,26.295Zm0,0" transform="translate(-5.986 -12.614)" fill="#a35418"/>
    <path id="Trazado_9310" data-name="Trazado 9310" d="M1356.462,3871.516v8.206a6.686,6.686,0,0,1-13.373,0v-8.207h13.373Zm0,0" transform="translate(-25.826 -67.02)" fill="#eab599"/>
    <path id="Trazado_9311" data-name="Trazado 9311" d="M1360.76,3887.442v.52a4.834,4.834,0,1,1-9.363.871c.446.026.9.041,1.346.041a23.121,23.121,0,0,0,8.017-1.432Zm0,0" transform="translate(-30.124 -75.26)" fill="#f6caae"/>
    <path id="Trazado_9312" data-name="Trazado 9312" d="M1305.607,3836.987a6.211,6.211,0,1,1-5.223-6.138,6.219,6.219,0,0,1,5.223,6.138Zm0,0" transform="translate(0 -45.94)" fill="#f6caae"/>
    <path id="Trazado_9313" data-name="Trazado 9313" d="M1312.456,3837.072a6.219,6.219,0,0,1-5.222,6.138,23.253,23.253,0,0,1,0-12.277,6.219,6.219,0,0,1,5.222,6.138Zm0,0" transform="translate(-6.849 -46.025)" fill="#eab599"/>
    <path id="Trazado_9314" data-name="Trazado 9314" d="M1305.894,3841.27a2.223,2.223,0,1,1-2.222-2.222,2.222,2.222,0,0,1,2.222,2.222Zm0,0" transform="translate(-4.283 -50.222)" fill="#eab599"/>
    <path id="Trazado_9315" data-name="Trazado 9315" d="M1348.107,3812.073v21.373a23.034,23.034,0,0,1-12.252,6.1l-.113.019a22.82,22.82,0,0,1-3.6.279,23.134,23.134,0,0,1-23.133-23.133V3807.9a23.3,23.3,0,0,1,.236-3.323,14.661,14.661,0,0,0,18.424-1.185,13.1,13.1,0,0,0,3.477-5.432,15.27,15.27,0,0,0,4.775,9.53,17.071,17.071,0,0,0,12.187,4.584Zm0,0" transform="translate(-8.193 -28.965)" fill="#eab599"/>
    <path id="Trazado_9316" data-name="Trazado 9316" d="M1355.829,3812.073v21.373a23.033,23.033,0,0,1-12.252,6.1l-.113.019a23.138,23.138,0,0,1-19.53-22.854v-8.81c0-.235,0-.468.012-.7a14.5,14.5,0,0,0,11.444-3.808,13.1,13.1,0,0,0,3.477-5.432,15.269,15.269,0,0,0,4.775,9.53,17.071,17.071,0,0,0,12.187,4.584Zm0,0" transform="translate(-15.916 -28.965)" fill="#f6caae"/>
    <path id="Trazado_9317" data-name="Trazado 9317" d="M1374.446,3828.639a3.842,3.842,0,0,0-7.684,0" transform="translate(-38.074 -42.85)" fill="#eab599"/>
    <path id="Trazado_9318" data-name="Trazado 9318" d="M1338.889,3828.639a3.842,3.842,0,1,0-7.683,0" transform="translate(-19.678 -42.85)" fill="#eab599"/>
    <path id="Trazado_9319" data-name="Trazado 9319" d="M1338.976,3833.334a2.625,2.625,0,1,1-2.625-2.624,2.625,2.625,0,0,1,2.625,2.624Zm0,0" transform="translate(-20.983 -45.909)" fill="#3d4159"/>
    <path id="Trazado_9320" data-name="Trazado 9320" d="M1374.534,3833.334a2.625,2.625,0,1,1-2.625-2.624,2.625,2.625,0,0,1,2.625,2.624Zm0,0" transform="translate(-39.379 -45.909)" fill="#3d4159"/>
    <path id="Trazado_9321" data-name="Trazado 9321" d="M1355.541,3847.412h-5.249a1.132,1.132,0,0,1,0-2.264h5.249a1.132,1.132,0,0,1,0,2.264Zm0,0" transform="translate(-28.967 -53.379)" fill="#eab599"/>
    <path id="Trazado_9322" data-name="Trazado 9322" d="M1350.325,3861.047a11.7,11.7,0,0,1-5.64-1.455,1.03,1.03,0,0,1,.992-1.8,9.6,9.6,0,0,0,9.3,0,1.03,1.03,0,1,1,.992,1.8,11.7,11.7,0,0,1-5.641,1.455Zm0,0" transform="translate(-26.376 -59.852)" fill="#eab599"/>
    <path id="Trazado_9323" data-name="Trazado 9323" d="M1341.083,3833.983a1.124,1.124,0,1,1-1.124-1.125,1.124,1.124,0,0,1,1.124,1.125Zm0,0" transform="translate(-23.625 -47.021)" fill="#fff"/>
    <path id="Trazado_9324" data-name="Trazado 9324" d="M1376.907,3833.983a1.125,1.125,0,1,1-1.125-1.125,1.124,1.124,0,0,1,1.125,1.125Zm0,0" transform="translate(-42.159 -47.021)" fill="#fff"/>
    <path id="Trazado_9325" data-name="Trazado 9325" d="M1383.389,3846.3a2.882,2.882,0,1,1-2.881-2.881,2.881,2.881,0,0,1,2.881,2.881Zm0,0" transform="translate(-43.695 -52.486)" fill="#eab599"/>
    <path id="Trazado_9326" data-name="Trazado 9326" d="M1330.08,3846.3a2.882,2.882,0,1,1-2.882-2.881,2.882,2.882,0,0,1,2.882,2.881Zm0,0" transform="translate(-16.114 -52.486)" fill="#eab599"/>
    <path id="Trazado_9327" data-name="Trazado 9327" d="M1482.347,3906.873v.008a62.735,62.735,0,0,1-31.436,29.994,61.812,61.812,0,0,1-8.459,2.947q-1.405.379-2.832.692a62.2,62.2,0,0,1-10.194,1.365v-35.005a19.955,19.955,0,0,1,18.326-19.89c.541-.046,1.084-.064,1.632-.064h13a19.921,19.921,0,0,1,19.964,19.955Zm0,0" transform="translate(-70.495 -74.989)" fill="#bfd5de"/>
    <path id="Trazado_9328" data-name="Trazado 9328" d="M1493.275,3906.873v.008a62.736,62.736,0,0,1-31.436,29.994,61.823,61.823,0,0,1-8.459,2.947q-1.405.379-2.832.692v-33.64a19.959,19.959,0,0,1,19.962-19.955h2.8a19.956,19.956,0,0,1,19.962,19.955Zm0,0" transform="translate(-81.422 -74.989)" fill="#dde8ed"/>
    <path id="Trazado_9329" data-name="Trazado 9329" d="M1429.574,3834.205a6.619,6.619,0,1,1-5.562-6.537,6.623,6.623,0,0,1,5.562,6.537Zm0,0" transform="translate(-63.718 -44.291)" fill="#d3a489"/>
    <path id="Trazado_9330" data-name="Trazado 9330" d="M1483.864,3901.835l-5.358,8.594-5.359-8.594" transform="translate(-93.115 -82.707)" fill="#f74f4f"/>
    <path id="Trazado_9331" data-name="Trazado 9331" d="M1483.73,3936.236l-7.209,9.1-7.211-9.1,7.212-26.515Zm0,0" transform="translate(-91.129 -86.787)" fill="#f74f4f"/>
    <path id="Trazado_9332" data-name="Trazado 9332" d="M1436.868,3834.3a6.623,6.623,0,0,1-5.562,6.538,24.74,24.74,0,0,1,0-13.075,6.623,6.623,0,0,1,5.562,6.537Zm0,0" transform="translate(-71.012 -44.382)" fill="#bf8e75"/>
    <path id="Trazado_9333" data-name="Trazado 9333" d="M1429.88,3838.767a2.367,2.367,0,1,1-2.368-2.367,2.368,2.368,0,0,1,2.368,2.367Zm0,0" transform="translate(-68.28 -48.853)" fill="#bf8e75"/>
    <path id="Trazado_9334" data-name="Trazado 9334" d="M1471.684,3892.042l-8.987,4.993-2.733-12.715,5.584-3.288" transform="translate(-86.294 -71.944)" fill="#bfd5de"/>
    <path id="Trazado_9335" data-name="Trazado 9335" d="M1484.247,3892.042l8.986,4.993,2.733-12.715-5.584-3.288" transform="translate(-98.858 -71.944)" fill="#bfd5de"/>
    <path id="Trazado_9336" data-name="Trazado 9336" d="M1524.725,3834.205a6.619,6.619,0,1,0,5.562-6.537,6.623,6.623,0,0,0-5.562,6.537Zm0,0" transform="translate(-119.8 -44.291)" fill="#d3a489"/>
    <path id="Trazado_9337" data-name="Trazado 9337" d="M1524.725,3834.3a6.623,6.623,0,0,0,5.562,6.538,24.743,24.743,0,0,0,0-13.075,6.623,6.623,0,0,0-5.562,6.537Zm0,0" transform="translate(-119.8 -44.382)" fill="#bf8e75"/>
    <path id="Trazado_9338" data-name="Trazado 9338" d="M1538.278,3838.767a2.367,2.367,0,1,1-2.367-2.367,2.368,2.368,0,0,1,2.367,2.367Zm0,0" transform="translate(-124.362 -48.853)" fill="#bf8e75"/>
    <path id="Trazado_9339" data-name="Trazado 9339" d="M1482.476,3807.553a24.643,24.643,0,0,1-20.686,24.322,24.32,24.32,0,0,1-3.954.319,24.639,24.639,0,0,1-24.641-24.641c0-6.439,2.236-16.106,6.28-20.5,4.5-4.887,11.19-4.145,18.36-4.145a24.323,24.323,0,0,1,3.955.318,24.642,24.642,0,0,1,20.686,24.323Zm0,0" transform="translate(-72.444 -21.159)" fill="#bf8e75"/>
    <path id="Trazado_9340" data-name="Trazado 9340" d="M1483.737,3870.982v8.74a7.122,7.122,0,0,1-14.243,0v-8.74Zm0,0" transform="translate(-91.225 -66.745)" fill="#bf8e75"/>
    <path id="Trazado_9341" data-name="Trazado 9341" d="M1488.316,3887.944v.553a5.149,5.149,0,1,1-9.973.928q.712.042,1.434.043a24.625,24.625,0,0,0,8.538-1.524Zm0,0" transform="translate(-95.803 -75.52)" fill="#d3a489"/>
    <path id="Trazado_9342" data-name="Trazado 9342" d="M1490.954,3807.937a24.623,24.623,0,1,1-.121-2.457c.08.808.121,1.629.121,2.457Zm0,0" transform="translate(-80.923 -21.542)" fill="#d3a489"/>
    <path id="Trazado_9343" data-name="Trazado 9343" d="M1477.2,3855.289a12.453,12.453,0,0,1-6.007-1.552,1.1,1.1,0,1,1,1.056-1.92,10.229,10.229,0,0,0,9.9,0,1.1,1.1,0,1,1,1.057,1.92,12.456,12.456,0,0,1-6.008,1.552Zm0,0" transform="translate(-91.81 -56.759)" fill="#bf8e75"/>
    <path id="Trazado_9344" data-name="Trazado 9344" d="M1467.384,3828.042a2.8,2.8,0,1,1-2.8-2.8,2.8,2.8,0,0,1,2.8,2.8Zm0,0" transform="translate(-87.241 -43.083)" fill="#3d4159"/>
    <path id="Trazado_9345" data-name="Trazado 9345" d="M1500.713,3828.042a2.8,2.8,0,1,1-2.795-2.8,2.795,2.795,0,0,1,2.795,2.8Zm0,0" transform="translate(-104.484 -43.083)" fill="#3d4159"/>
    <path id="Trazado_9346" data-name="Trazado 9346" d="M1469.627,3828.733a1.2,1.2,0,1,1-1.2-1.2,1.2,1.2,0,0,1,1.2,1.2Zm0,0" transform="translate(-90.054 -44.267)" fill="#fff"/>
    <path id="Trazado_9347" data-name="Trazado 9347" d="M1503.242,3828.733a1.2,1.2,0,1,1-1.2-1.2,1.2,1.2,0,0,1,1.2,1.2Zm0,0" transform="translate(-107.446 -44.267)" fill="#fff"/>
    <path id="Trazado_9348" data-name="Trazado 9348" d="M1482.756,3843.037h-5.591a1.206,1.206,0,0,1,0-2.412h5.591a1.206,1.206,0,1,1,0,2.412Zm0,0" transform="translate(-94.57 -51.039)" fill="#bf8e75"/>
    <rect id="Rectángulo_6023" data-name="Rectángulo 6023" width="10.742" height="3.288" transform="translate(1393.503 3831.23)" fill="#bfd5de"/>
    <path id="Trazado_9349" data-name="Trazado 9349" d="M1481.263,3768.328a14.935,14.935,0,0,1,13.837,14.154l.071,1.425h4.293l2.314,15.379,5.6-1.733-.752-15.07a14.935,14.935,0,0,0-14.973-14.193Zm0,0" transform="translate(-97.314 -13.614)" fill="#2a2f4f"/>
    <path id="Trazado_9350" data-name="Trazado 9350" d="M1509.758,3756.045a15.221,15.221,0,0,1-21.526,21.526Zm0,0" transform="translate(-100.919 -7.279)" fill="#3d4159"/>
    <path id="Trazado_9351" data-name="Trazado 9351" d="M1459.723,3783.905h-18.68l-2.314,15.38-5.6-1.733.75-15.07a14.936,14.936,0,0,1,14.974-14.193l26.979.1,3.567,6.42" transform="translate(-72.41 -13.614)" fill="#3d4159"/>
    <path id="Trazado_9352" data-name="Trazado 9352" d="M1459.24,3768.328a14.936,14.936,0,0,0-13.838,14.154l-.071,1.425h-4.293l-2.314,15.379-5.6-1.733.752-15.07a14.935,14.935,0,0,1,14.973-14.193Zm0,0" transform="translate(-72.408 -13.614)" fill="#2a2f4f"/>
    <path id="Trazado_9353" data-name="Trazado 9353" d="M1406.707,3924.626a62.781,62.781,0,0,1-41.036,2.944,61.216,61.216,0,0,1-8.454-2.946c-13.51-21.113-13.23-47.422-13.23-47.422l37.975-13.959,37.971,13.959s.281,26.312-13.226,47.423Zm0,0" transform="translate(-26.291 -62.741)" fill="#3fb777"/>
    <path id="Trazado_9354" data-name="Trazado 9354" d="M1381.962,3863.244v66.472a62.473,62.473,0,0,1-16.291-2.146,61.216,61.216,0,0,1-8.454-2.946c-13.51-21.113-13.23-47.422-13.23-47.422Zm0,0" transform="translate(-26.291 -62.741)" fill="#2da365"/>
    <path id="Trazado_9355" data-name="Trazado 9355" d="M1420.31,3886.545a101.83,101.83,0,0,1-4.268,23.512,69.719,69.719,0,0,1-10.472,21.166c-.558.745-1.132,1.472-1.722,2.176a62.941,62.941,0,0,1-32.577,0q-.884-1.055-1.719-2.173a69.84,69.84,0,0,1-10.473-21.166,101.935,101.935,0,0,1-4.267-23.512l32.75-12.038Zm0,0" transform="translate(-31.892 -68.568)" fill="#ffe152"/>
    <path id="Trazado_9356" data-name="Trazado 9356" d="M1387.563,3874.507v61.036a62.483,62.483,0,0,1-16.291-2.146q-.884-1.055-1.719-2.173a69.84,69.84,0,0,1-10.473-21.166,101.935,101.935,0,0,1-4.267-23.512Zm0,0" transform="translate(-31.892 -68.568)" fill="#e8c934"/>
    <path id="Trazado_9357" data-name="Trazado 9357" d="M1426.97,3907.714l-18.662,32.773-.475-.672-13.842-19.538,6.245-4.424,7.37,10.4.227-.4,12.487-21.929Zm0,0" transform="translate(-52.161 -83.79)" fill="#3fb777"/>
    <path id="Trazado_9358" data-name="Trazado 9358" d="M1407.833,3938.641V3952.6l-13.842-19.538,6.245-4.424,7.37,10.4Zm0,0" transform="translate(-52.161 -96.574)" fill="#2da365"/>
  </g>
</svg>
