<svg id="Grupo_9141" data-name="Grupo 9141" xmlns="http://www.w3.org/2000/svg" width="108" height="108" viewBox="0 0 108 108">
  <path id="Trazado_8660" data-name="Trazado 8660" d="M960.429,3578.447a54,54,0,1,1-54-54,54,54,0,0,1,54,54Zm0,0" transform="translate(-852.429 -3524.447)" fill="#8be4c3"/>
  <path id="Trazado_8661" data-name="Trazado 8661" d="M934.334,3721.738v12.1a54.08,54.08,0,0,1-52.213-18.349,20.1,20.1,0,0,1,13.873-13.134c.313-.084.628-.162.948-.23a20.094,20.094,0,0,1,2.612-.386q.813-.065,1.641-.066h13.068a20.018,20.018,0,0,1,4.256.452c.08.016.159.033.237.051.231.053.462.111.689.172a.07.07,0,0,1,.017,0,20.084,20.084,0,0,1,14.871,19.387Zm0,0" transform="translate(-869.595 -3626.905)" fill="#66baed"/>
  <path id="Trazado_8662" data-name="Trazado 8662" d="M938.456,3702.742l-.049.227-6.761,31.452c-.08-.015-.157-.033-.234-.049q-1.071-.221-2.122-.488a53.314,53.314,0,0,1-5.816-1.826c-.287-.108-.571-.218-.855-.331q-.83-.33-1.644-.683l-6.035-28.073-.049-.23Zm0,0" transform="translate(-888.539 -3627.524)" fill="#dde8ed"/>
  <path id="Trazado_8663" data-name="Trazado 8663" d="M940.83,3718.833l-5.387,8.64-5.386-8.64" transform="translate(-897.307 -3636.827)" fill="#f74f4f"/>
  <path id="Trazado_8664" data-name="Trazado 8664" d="M942,3752.435q-1.071-.22-2.122-.488a53.317,53.317,0,0,1-5.816-1.826c-.287-.108-.571-.218-.855-.331l4.058-15.8Zm0,0" transform="translate(-899.129 -3645.586)" fill="#f74f4f"/>
  <path id="Trazado_8665" data-name="Trazado 8665" d="M926.673,3705.975l-9.034,5.02-2.749-12.783,5.614-3.307" transform="translate(-888.539 -3622.994)" fill="#bfd5de"/>
  <path id="Trazado_8666" data-name="Trazado 8666" d="M942.82,3705.975l9.035,5.02,2.748-12.783-5.614-3.307" transform="translate(-904.686 -3622.994)" fill="#bfd5de"/>
  <path id="Trazado_8667" data-name="Trazado 8667" d="M958.53,3718.484h2.865l-6.083,14.8c-.324.053-.65.1-.976.152a52.842,52.842,0,0,1-5.314-1.059l9.167-32.244,6.182,3.118Zm0,0" transform="translate(-908.271 -3626.014)" fill="#2ba1cf"/>
  <path id="Trazado_8668" data-name="Trazado 8668" d="M914.909,3730.854a53.54,53.54,0,0,1-8.6-4.156l-3.251-7.909h2.866l-5.841-15.235,6.249-2.9Zm0,0" transform="translate(-879.976 -3626.319)" fill="#2ba1cf"/>
  <path id="Trazado_8669" data-name="Trazado 8669" d="M940.171,3683.348v8.787a7.16,7.16,0,0,1-14.32,0v-8.787Zm0,0" transform="translate(-894.876 -3616.312)" fill="#eab599"/>
  <path id="Trazado_8670" data-name="Trazado 8670" d="M946.055,3702.855v.557a5.176,5.176,0,1,1-10.026.932q.717.044,1.442.044a24.505,24.505,0,0,0,3.977-.321,24.229,24.229,0,0,0,4.607-1.213Zm0,0" transform="translate(-900.76 -3627.589)" fill="#f6caae"/>
  <path id="Trazado_8671" data-name="Trazado 8671" d="M878.02,3640.09a6.659,6.659,0,0,1-5.592,6.573,6.546,6.546,0,0,1-1.066.086,6.658,6.658,0,1,1,6.658-6.658Zm0,0" transform="translate(-859.525 -3587.454)" fill="#f6caae"/>
  <path id="Trazado_8672" data-name="Trazado 8672" d="M887.395,3640.207a6.659,6.659,0,0,1-5.592,6.573,24.892,24.892,0,0,1,0-13.145,6.659,6.659,0,0,1,5.592,6.573Zm0,0" transform="translate(-868.9 -3587.571)" fill="#eab599"/>
  <path id="Trazado_8673" data-name="Trazado 8673" d="M879.6,3645.952a2.38,2.38,0,1,1-2.38-2.38,2.38,2.38,0,0,1,2.38,2.38Zm0,0" transform="translate(-865.388 -3593.316)" fill="#eab599"/>
  <path id="Trazado_8674" data-name="Trazado 8674" d="M989.377,3640.09a6.659,6.659,0,0,0,5.591,6.573,6.562,6.562,0,0,0,1.067.086,6.659,6.659,0,1,0-6.658-6.658Zm0,0" transform="translate(-931.602 -3587.454)" fill="#f6caae"/>
  <path id="Trazado_8675" data-name="Trazado 8675" d="M989.377,3640.207a6.659,6.659,0,0,0,5.591,6.573,24.87,24.87,0,0,0,0-13.145,6.659,6.659,0,0,0-5.591,6.573Zm0,0" transform="translate(-931.602 -3587.571)" fill="#eab599"/>
  <path id="Trazado_8676" data-name="Trazado 8676" d="M933.647,3584.518v9.433a24.773,24.773,0,0,1-20.8,24.452l-.122.02a24.384,24.384,0,0,1-3.855.3,24.772,24.772,0,0,1-24.772-24.771v-9.478a24.759,24.759,0,0,1,24.772-24.729h0a24.751,24.751,0,0,1,24.771,24.774Zm0,0" transform="translate(-870.739 -3544.853)" fill="#eab599"/>
  <path id="Trazado_8677" data-name="Trazado 8677" d="M1004.278,3645.952a2.38,2.38,0,1,1-2.379-2.38,2.379,2.379,0,0,1,2.379,2.38Zm0,0" transform="translate(-937.465 -3593.316)" fill="#eab599"/>
  <path id="Trazado_8678" data-name="Trazado 8678" d="M944.22,3584.927v9.434a24.772,24.772,0,0,1-20.8,24.451c-.04.007-.082.013-.121.021a24.776,24.776,0,0,1-20.913-24.472v-9.434a21.175,21.175,0,1,1,41.832,0Zm0,0" transform="translate(-881.312 -3545.263)" fill="#f6caae"/>
  <path id="Trazado_8679" data-name="Trazado 8679" d="M922.616,3630.945a2.81,2.81,0,1,1-2.811-2.81,2.81,2.81,0,0,1,2.811,2.81Zm0,0" transform="translate(-889.757 -3584.392)" fill="#3d4159"/>
  <path id="Trazado_8680" data-name="Trazado 8680" d="M960.95,3630.945a2.81,2.81,0,1,1-2.81-2.81,2.81,2.81,0,0,1,2.81,2.81Zm0,0" transform="translate(-911.919 -3584.392)" fill="#3d4159"/>
  <path id="Trazado_8681" data-name="Trazado 8681" d="M925.66,3631.969a1.2,1.2,0,1,1-1.2-1.2,1.2,1.2,0,0,1,1.2,1.2Zm0,0" transform="translate(-893.374 -3585.912)" fill="#fff"/>
  <path id="Trazado_8682" data-name="Trazado 8682" d="M964.32,3631.969a1.2,1.2,0,1,1-1.2-1.2,1.2,1.2,0,0,1,1.2,1.2Zm0,0" transform="translate(-915.724 -3585.912)" fill="#fff"/>
  <path id="Trazado_8683" data-name="Trazado 8683" d="M940.547,3649.289h-6.142a1.212,1.212,0,0,1,0-2.424h6.142a1.212,1.212,0,0,1,0,2.424Zm0,0" transform="translate(-899.121 -3595.22)" fill="#eab599"/>
  <path id="Trazado_8684" data-name="Trazado 8684" d="M933.764,3664.777a12.519,12.519,0,0,1-6.04-1.56,1.1,1.1,0,0,1,1.061-1.932,10.282,10.282,0,0,0,9.956,0,1.1,1.1,0,0,1,1.061,1.932,12.512,12.512,0,0,1-6.039,1.56Zm0,0" transform="translate(-895.629 -3603.478)" fill="#eab599"/>
  <path id="Trazado_8685" data-name="Trazado 8685" d="M933.649,3570.841v9.663h-4.611v-7.566l-33.282-6.185-7.042-1.31V3580.5H884.1v-9.663a19.943,19.943,0,0,1,19.943-19.945h9.66c.262,0,.525,0,.787.018a19.939,19.939,0,0,1,19.156,19.927Zm0,0" transform="translate(-870.741 -3539.738)" fill="#2a2f4f"/>
  <path id="Trazado_8686" data-name="Trazado 8686" d="M949.617,3570.866v9.663h-4.611v-7.566l-33.282-6.185a19.1,19.1,0,0,1,37.893,4.088Zm0,0" transform="translate(-886.709 -3539.763)" fill="#3d4159"/>
  <path id="Trazado_8687" data-name="Trazado 8687" d="M983.128,3704.875l-2.854.128a2.931,2.931,0,0,1-3.057-2.8l-.411-9.171a2.886,2.886,0,0,1,.186-1.157,2.926,2.926,0,0,1,2.612-1.9l2.852-.127.437,9.746Zm0,0" transform="translate(-924.333 -3620.071)" fill="#2a2f4f"/>
  <path id="Trazado_8688" data-name="Trazado 8688" d="M983.15,3699.6l-2.619.117a2.93,2.93,0,0,1-3.057-2.8l-.225-5.038a2.926,2.926,0,0,1,2.612-1.9l2.852-.127Zm0,0" transform="translate(-924.591 -3620.071)" fill="#3d4159"/>
  <path id="Trazado_8689" data-name="Trazado 8689" d="M1014.6,3725.875a8.93,8.93,0,0,0,6.9-8.062l-11.992-14.152-3.682,17.533Zm0,0" transform="translate(-941.112 -3628.056)" fill="#3f4954"/>
  <path id="Trazado_8690" data-name="Trazado 8690" d="M1011.777,3750.394a53.492,53.492,0,0,1-9.109,2.9l-3.159-12.977-.965-4.175,9.839-.438.965,4.173Zm0,0" transform="translate(-936.902 -3646.577)" fill="#f74f4f"/>
  <path id="Trazado_8691" data-name="Trazado 8691" d="M1009.348,3735.529l-9.84.44-.964-4.175,2.981-3.608,6.859,3.168Zm0,0" transform="translate(-936.902 -3642.234)" fill="#dd3033"/>
  <path id="Trazado_8692" data-name="Trazado 8692" d="M1069.866,3700.352a9.846,9.846,0,0,0-.8-17.856l-7.553,8.044Zm0,0" transform="translate(-973.307 -3615.819)" fill="#ffe152"/>
  <path id="Trazado_8693" data-name="Trazado 8693" d="M1076.574,3703.3a9.841,9.841,0,0,1-5.313,9.079l-7.333-8.616,7.121,3.867c3.28-1.008,5.552-2.152,5.526-4.33Zm0,0" transform="translate(-974.701 -3627.847)" fill="#e8c934"/>
  <path id="Trazado_8694" data-name="Trazado 8694" d="M1062.565,3703.264l-.993-.652.29-.176Zm0,0" transform="translate(-973.34 -3627.347)" fill="#489dcf"/>
  <path id="Trazado_8695" data-name="Trazado 8695" d="M1052.668,3690.423a53.975,53.975,0,0,1-4.768,5.367l-15.223-3.571-1.109-24.773,19.78-6.551Zm0,0" transform="translate(-955.994 -3603.331)" fill="#f74f4f"/>
  <path id="Trazado_8696" data-name="Trazado 8696" d="M1053.583,3719.881a53.983,53.983,0,0,1-4.768,5.367l-15.223-3.571-.441-9.827,20.1.754Zm0,0" transform="translate(-956.909 -3632.789)" fill="#dd3033"/>
  <path id="Trazado_8697" data-name="Trazado 8697" d="M1006.221,3676.424l-15.041.673a3.618,3.618,0,0,0-3.453,3.776l.785,17.544a3.618,3.618,0,0,0,3.776,3.452l15.042-.672" transform="translate(-930.646 -3612.309)" fill="#ffe152"/>
  <path id="Trazado_8698" data-name="Trazado 8698" d="M995.27,3699.256a3.619,3.619,0,0,1-3.776-3.453l-.785-17.544c0-.039,0-.078,0-.116a3.619,3.619,0,0,0-2.98,3.723l.785,17.544a3.618,3.618,0,0,0,3.776,3.453l15.042-.673-.155-3.467Zm0,0" transform="translate(-930.646 -3613.302)" fill="#e8c934"/>
  <path id="Trazado_8699" data-name="Trazado 8699" d="M996.259,3691.922a1.239,1.239,0,0,1,.781-2.152l7.924-.355a1.24,1.24,0,0,1,.111,2.477l-7.924.354a1.234,1.234,0,0,1-.892-.324Zm0,0" transform="translate(-935.348 -3619.818)" fill="#2a2f4f"/>
  <path id="Trazado_8700" data-name="Trazado 8700" d="M996.745,3702.785a1.239,1.239,0,0,1,.781-2.153l7.924-.354a1.239,1.239,0,1,1,.111,2.476l-7.925.354a1.237,1.237,0,0,1-.892-.323Zm0,0" transform="translate(-935.629 -3626.098)" fill="#2a2f4f"/>
  <path id="Trazado_8701" data-name="Trazado 8701" d="M997.232,3713.646a1.24,1.24,0,0,1,.781-2.153l7.924-.354a1.24,1.24,0,1,1,.111,2.477l-7.924.354a1.232,1.232,0,0,1-.891-.323Zm0,0" transform="translate(-935.91 -3632.377)" fill="#2a2f4f"/>
  <rect id="Rectángulo_5983" data-name="Rectángulo 5983" width="43.831" height="32.947" transform="translate(60.644 8.452)" fill="#fff"/>
  <path id="Trazado_8702" data-name="Trazado 8702" d="M1042.507,3616.891l-4.707,11.178,20.592-11.766Zm0,0" transform="translate(-959.596 -3577.551)" fill="#fff"/>
  <path id="Trazado_8703" data-name="Trazado 8703" d="M1028.6,3580.547a2.832,2.832,0,1,1-2.833-2.832,2.832,2.832,0,0,1,2.833,2.832Zm0,0" transform="translate(-951.005 -3555.243)" fill="#3d4159"/>
  <path id="Trazado_8704" data-name="Trazado 8704" d="M1046.421,3580.547a2.832,2.832,0,1,1-2.832-2.832,2.832,2.832,0,0,1,2.832,2.832Zm0,0" transform="translate(-961.306 -3555.243)" fill="#3d4159"/>
  <path id="Trazado_8705" data-name="Trazado 8705" d="M1064.238,3580.547a2.832,2.832,0,1,1-2.832-2.832,2.831,2.831,0,0,1,2.832,2.832Zm0,0" transform="translate(-971.606 -3555.243)" fill="#3d4159"/>
</svg>
