<svg xmlns="http://www.w3.org/2000/svg" width="502.851" height="319.713" viewBox="0 0 502.851 319.713">
  <g id="Grupo_9144" data-name="Grupo 9144" transform="translate(-670.172 -3924.259)">
    <path id="Trazado_8742" data-name="Trazado 8742" d="M712.957,4179.862A3.047,3.047,0,1,0,716,4182.91a3.051,3.051,0,0,0-3.046-3.047Zm0,7.436a4.389,4.389,0,1,1,4.388-4.389,4.395,4.395,0,0,1-4.388,4.389Zm-1.771,5.37h3.541v-2.1l.48-.143a7.847,7.847,0,0,0,3.131-1.809l.364-.343,1.821,1.05,1.77-3.068-1.818-1.048.115-.486a7.825,7.825,0,0,0,0-3.62l-.115-.485,1.818-1.051-1.769-3.066-1.822,1.051-.364-.344a7.879,7.879,0,0,0-3.132-1.811l-.479-.146v-2.094h-3.541v2.094l-.478.146a7.885,7.885,0,0,0-3.133,1.811l-.364.344-1.82-1.051-1.771,3.066,1.819,1.051-.114.485a7.825,7.825,0,0,0,0,3.62l.114.486-1.819,1.048,1.771,3.068,1.82-1.05.364.343a7.873,7.873,0,0,0,3.131,1.809l.48.143v2.1Zm4.882,1.34h-6.224v-2.456a9.222,9.222,0,0,1-2.815-1.628l-2.128,1.23-3.114-5.39,2.129-1.229a9.169,9.169,0,0,1,0-3.25l-2.129-1.23,3.114-5.39,2.128,1.229a9.227,9.227,0,0,1,2.815-1.628v-2.456h6.224v2.454a9.247,9.247,0,0,1,2.815,1.63l2.13-1.229,3.111,5.39-2.127,1.23a9.1,9.1,0,0,1,0,3.25l2.128,1.229-3.111,5.39-2.131-1.23a9.187,9.187,0,0,1-2.815,1.628v2.456Z" transform="translate(0.944 7.391)" fill="#e6fff6"/>
    <path id="Trazado_8743" data-name="Trazado 8743" d="M792.432,4194.906a25.548,25.548,0,0,0-3.432-8.281l4.509-4.5-7.825-7.818-4.5,4.5a25.72,25.72,0,0,0-8.273-3.434v-6.365H761.844v6.365a25.715,25.715,0,0,0-8.274,3.434l-4.5-4.5-7.82,7.818,4.5,4.5a25.5,25.5,0,0,0-3.432,8.281h-6.365v11.057h21.679a11.079,11.079,0,0,1-1.459-5.53,11.2,11.2,0,1,1,22.406,0,11.081,11.081,0,0,1-1.46,5.53H798.8v-11.057Z" transform="translate(1.964 7.308)" fill="#e6fff6"/>
    <path id="Trazado_8744" data-name="Trazado 8744" d="M736.644,4202.869H735.3v-8.763h6.5a26.137,26.137,0,0,1,3.115-7.511l-4.6-4.6,8.768-8.768,4.6,4.6a26.254,26.254,0,0,1,5.29-2.471l.429,1.269a25.091,25.091,0,0,0-5.456,2.619l-.454.29-4.41-4.41-6.87,6.871,4.41,4.41-.29.453a24.834,24.834,0,0,0-3.343,8.063l-.115.528h-6.234v7.419Zm42.311.165-1.307-.306a10.535,10.535,0,1,0-20.571-4.545l-1.315-.27a11.877,11.877,0,1,1,23.193,5.12Z" transform="translate(1.945 7.434)" fill="#c2ffee"/>
    <path id="Trazado_8745" data-name="Trazado 8745" d="M1051.146,4197.87a17.943,17.943,0,0,0-2.412-5.817l3.168-3.163-5.5-5.5-3.165,3.164a18.019,18.019,0,0,0-5.812-2.41v-4.474h-7.773v4.474a18.017,18.017,0,0,0-5.814,2.41l-3.164-3.164-5.493,5.5,3.164,3.163a17.872,17.872,0,0,0-2.411,5.817h-4.473v7.77h15.231a7.786,7.786,0,0,1-1.024-3.884,7.871,7.871,0,1,1,15.742,0,7.786,7.786,0,0,1-1.025,3.884h15.231v-7.77Z" transform="translate(10.19 7.626)" fill="#f0fffa"/>
    <path id="Trazado_8746" data-name="Trazado 8746" d="M1041.741,4204.243l-1.284-.389a7.2,7.2,0,0,0-13.658-4.566l-1.26-.464a8.546,8.546,0,0,1,16.2,5.419Zm-30.932,1.421v-8.444h4.612a18.636,18.636,0,0,1,2.093-5.048l-3.262-3.263,6.444-6.443,3.263,3.264a18.687,18.687,0,0,1,5.044-2.093v-4.612h9.116v4.612a18.7,18.7,0,0,1,5.042,2.093l3.262-3.264,6.449,6.443-3.269,3.263a18.5,18.5,0,0,1,2.094,5.048h4.613v8.44h-1.342v-7.1h-4.342l-.115-.527a17.278,17.278,0,0,0-2.323-5.6l-.29-.455,3.074-3.07-4.547-4.545-3.072,3.072-.455-.292a17.289,17.289,0,0,0-5.6-2.324l-.525-.117v-4.339h-6.431v4.339l-.525.117a17.289,17.289,0,0,0-5.6,2.324l-.455.292-3.071-3.072-4.546,4.545,3.072,3.07-.29.455a17.226,17.226,0,0,0-2.322,5.6l-.115.527h-4.341v7.1Z" transform="translate(10.171 7.606)" fill="#d6fff4"/>
    <path id="Trazado_8747" data-name="Trazado 8747" d="M1054.673,4174.213a4.185,4.185,0,1,1,4.183-4.185,4.186,4.186,0,0,1-4.183,4.185Zm9.584-4.185a9.65,9.65,0,0,0-.26-2.21l2.212-1.278-2.746-4.758-2.218,1.278a9.561,9.561,0,0,0-3.827-2.214v-2.551h-5.494v2.551a9.591,9.591,0,0,0-3.827,2.214l-2.214-1.278-2.75,4.758,2.214,1.278a9.622,9.622,0,0,0,0,4.422l-2.214,1.278,2.75,4.76,2.214-1.28a9.559,9.559,0,0,0,3.827,2.212v2.554h5.494v-2.554a9.53,9.53,0,0,0,3.827-2.212l2.218,1.28,2.746-4.76L1064,4172.24a9.652,9.652,0,0,0,.26-2.211Z" transform="translate(11.136 6.987)" fill="#f0fffa"/>
    <path id="Trazado_8748" data-name="Trazado 8748" d="M1054.7,4166.534a3.513,3.513,0,1,0,3.513,3.515,3.517,3.517,0,0,0-3.513-3.515Zm0,8.37a4.856,4.856,0,1,1,4.854-4.855,4.861,4.861,0,0,1-4.854,4.855Zm-2.077,6.209h4.154v-2.383l.479-.143a8.962,8.962,0,0,0,3.558-2.057l.363-.344,2.069,1.194,2.075-3.6-2.063-1.191.112-.486a8.866,8.866,0,0,0,0-4.114l-.112-.485,2.063-1.192-2.075-3.6-2.069,1.194-.363-.342a8.963,8.963,0,0,0-3.558-2.061l-.479-.144v-2.381h-4.154v2.381l-.479.144a8.945,8.945,0,0,0-3.558,2.061l-.365.342-2.065-1.194-2.077,3.6,2.065,1.192-.114.485a8.862,8.862,0,0,0,0,4.114l.114.486-2.065,1.191,2.077,3.6,2.065-1.194.365.344a8.932,8.932,0,0,0,3.558,2.057l.479.143v2.383Zm5.5,1.342h-6.837v-2.739a10.274,10.274,0,0,1-3.243-1.876l-2.373,1.373-3.42-5.921,2.375-1.371a10.088,10.088,0,0,1,0-3.744l-2.375-1.371,3.42-5.921,2.373,1.373a10.365,10.365,0,0,1,3.243-1.879v-2.737h6.837v2.737a10.3,10.3,0,0,1,3.241,1.879l2.377-1.373,3.416,5.921-2.371,1.371a10.222,10.222,0,0,1,0,3.744l2.371,1.371-3.416,5.921-2.377-1.373a10.235,10.235,0,0,1-3.241,1.876v2.739Z" transform="translate(11.109 6.968)" fill="#d6fff4"/>
    <path id="Trazado_8749" data-name="Trazado 8749" d="M693.907,4080.488a47.621,47.621,0,0,0,37.156,46.453c.336.079.67.146,1.009.214a47.883,47.883,0,0,0,26.735-2.3c.277-.106.554-.219.832-.33a47.613,47.613,0,1,0-65.733-44.035Z" transform="translate(0.709 3.243)" fill="#edfffa"/>
    <path id="Trazado_8750" data-name="Trazado 8750" d="M720.564,4146.845q-1.148-.334-2.279-.708l6.28-19.122q.814.265,1.639.507l-5.641,19.323Z" transform="translate(1.437 6.053)" fill="#c2ffee"/>
    <path id="Trazado_8751" data-name="Trazado 8751" d="M716.908,4145.747a72.527,72.527,0,0,1-26.873-17.4l14.412-14.052a52.284,52.284,0,0,0,19.366,12.546l-6.905,18.906Z" transform="translate(0.593 5.674)" fill="#d6fff4"/>
    <path id="Trazado_8752" data-name="Trazado 8752" d="M688.091,4127.11a72.172,72.172,0,0,1-16.215-63.183l19.653,4.353a52.039,52.039,0,0,0,11.68,45.541l-15.117,13.29Z" transform="translate(0 4.17)" fill="#f0fffa"/>
    <path id="Trazado_8753" data-name="Trazado 8753" d="M695.506,4057.081l-18.013-8.983c1.027-2.058,2.167-4.092,3.388-6.045l17.066,10.673c-.88,1.408-1.7,2.874-2.441,4.355Z" transform="translate(0.219 3.517)" fill="#d6fff4"/>
    <path id="Trazado_8754" data-name="Trazado 8754" d="M812.556,4094.909l-19.764-3.811a51.929,51.929,0,0,0-92.783-40.7l-16.195-11.955a72.071,72.071,0,0,1,128.742,56.464Z" transform="translate(0.407 2.535)" fill="#f0fffa"/>
    <path id="Trazado_8755" data-name="Trazado 8755" d="M807.55,4100.015l-19.234-5.934c.307-.994.588-2.015.834-3.031l19.559,4.751c-.342,1.413-.732,2.83-1.16,4.214Z" transform="translate(3.528 4.98)" fill="#d6fff4"/>
    <path id="Trazado_8756" data-name="Trazado 8756" d="M740.592,4150.549a72.287,72.287,0,0,1-15.813-1.743l4.41-19.64a51.926,51.926,0,0,0,58.964-29.807l18.428,8.1a72.638,72.638,0,0,1-39.817,38.188,71.807,71.807,0,0,1-26.172,4.9Z" transform="translate(1.63 5.229)" fill="#f0fffa"/>
    <path id="Trazado_8757" data-name="Trazado 8757" d="M789.032,4080.528a47.59,47.59,0,0,1-26.383,42.6c-1.005.5-2.027.969-3.072,1.4-.276.112-.552.226-.828.333a47.821,47.821,0,0,1-26.708,2.3c-.34-.067-.676-.138-1.01-.217a47.13,47.13,0,0,1-12.457-4.718,47.55,47.55,0,0,1,22.9-89.252,47.551,47.551,0,0,1,47.558,47.562Z" transform="translate(0.709 3.246)" fill="#edfffa"/>
    <path id="Trazado_8758" data-name="Trazado 8758" d="M786.478,4095.681a47.134,47.134,0,0,1-5.573,11.36,47.762,47.762,0,0,1-18.374,16.18,100.208,100.208,0,0,1-19.523-2.055l-.024-.115.024,1.159a101.123,101.123,0,0,1-24.553.1,47.718,47.718,0,0,1-20.622-22.467c2.322-9.35,11.421-16.564,13.526-20.189,5.794-9.95-2.968-21.515,6.342-32.077a20.224,20.224,0,0,1,7.081-5.277,15.551,15.551,0,0,1,5.843-8.027,24.626,24.626,0,0,1,9.29-4.049c6.736-1.548,18.142-.059,24.967,9.059,3.758,5.015,6.13,12.333,5.578,22.723-.636,11.983,1.76,17.536,4.034,21.925,1.267,2.451,8.111,5.921,11.982,11.747Z" transform="translate(0.826 3.148)" fill="#3d4159"/>
    <path id="Trazado_8759" data-name="Trazado 8759" d="M713.373,4101.133c-2.425-10.108,1.479-16.027,6.328-19.724,16.146-12.315,1.027-28.808,10.52-23.753,7.9,4.207,23.43-10.546,25.508,8.681,1.85,17.1,16.3,16.3,14.146,33.379-1.9,15.033-20.341,20.814-36.285,13.087s-19.734-9.647-20.218-11.67Z" transform="translate(1.268 3.939)" fill="#2e3143"/>
    <path id="Trazado_8760" data-name="Trazado 8760" d="M780.79,4105.313a47.746,47.746,0,0,1-21.446,17.577c-.276.112-.552.226-.828.333a47.829,47.829,0,0,1-26.708,2.3c-.34-.068-.676-.138-1.01-.218a47.626,47.626,0,0,1-29.1-19.966l.552-1.143a29.473,29.473,0,0,1,26.516-16.6h24.967a29.479,29.479,0,0,1,26.5,16.579l.557,1.144Z" transform="translate(0.941 4.877)" fill="#f0ccff"/>
    <path id="Trazado_8761" data-name="Trazado 8761" d="M752.491,4089.885l5.034,16.511a4.125,4.125,0,0,1-1.734,4.5h0a3.9,3.9,0,0,1-4.126-.071c-3.687-2.381-11.078-7.16-11.078-7.16l-11.076,7.162a3.905,3.905,0,0,1-4.125.071h0a3.9,3.9,0,0,1-1.725-4.5l5.1-16.511Z" transform="translate(1.592 4.945)" fill="#eabdff"/>
    <path id="Trazado_8762" data-name="Trazado 8762" d="M752.5,4088.753l5.243,15.092a3.017,3.017,0,0,1-.916,3.3h0a3.012,3.012,0,0,1-3.023.5l-13.209-5.115-13.212,5.118a3.008,3.008,0,0,1-3.016-.5h0a3.009,3.009,0,0,1-.908-3.307l5.311-15.09Z" transform="translate(1.586 4.911)" fill="#f0ccff"/>
    <path id="Trazado_8763" data-name="Trazado 8763" d="M726.314,4108.528a3.679,3.679,0,0,1-3.472-4.9l5.312-15.091,1.266.445-5.311,15.093a2.337,2.337,0,0,0,3.048,2.955l13.455-5.212,13.451,5.212a2.346,2.346,0,0,0,3.062-2.957l-5.242-15.093,1.268-.44,5.242,15.093a3.687,3.687,0,0,1-4.815,4.647l-12.966-5.022-12.97,5.024a3.678,3.678,0,0,1-1.329.247Z" transform="translate(1.566 4.905)" fill="#fff"/>
    <path id="Trazado_8764" data-name="Trazado 8764" d="M740.782,4116.151H739.44v-16.4h1.342v16.4Z" transform="translate(2.068 5.239)" fill="#fff"/>
    <path id="Trazado_8765" data-name="Trazado 8765" d="M747.5,4075.424V4090.9a7.2,7.2,0,1,1-14.394,0v-15.474Z" transform="translate(1.879 4.514)" fill="#f6caae"/>
    <path id="Trazado_8766" data-name="Trazado 8766" d="M747.5,4077.339v7.692A15.065,15.065,0,0,1,733.1,4081.2v-3.856Z" transform="translate(1.879 4.57)" fill="#eab599"/>
    <path id="Trazado_8767" data-name="Trazado 8767" d="M740.62,4037.437h0a15.065,15.065,0,0,0-15.066,15.066v12.247H725.4a2.991,2.991,0,0,0,0,5.983h.417a15.066,15.066,0,0,0,14.806,12.286h0a15.065,15.065,0,0,0,15.066-15.064V4052.5a15.066,15.066,0,0,0-15.066-15.066Z" transform="translate(1.56 3.38)" fill="#f6caae"/>
    <path id="Trazado_8768" data-name="Trazado 8768" d="M723.691,4050.545s31.956,2.727,31.956,18.877a77.576,77.576,0,0,0,9.616,7.839l-5.986-33.606-7.368-7.87-17.983-1.884-10.236,16.643Z" transform="translate(1.598 3.274)" fill="#3d4159"/>
    <path id="Trazado_8769" data-name="Trazado 8769" d="M749.627,4054.537a7.716,7.716,0,1,0,7.716,7.716,7.725,7.725,0,0,0-7.716-7.716Zm0,16.774a9.058,9.058,0,1,1,9.058-9.059,9.069,9.069,0,0,1-9.058,9.059Z" transform="translate(2.102 3.85)" fill="#fff"/>
    <path id="Trazado_8770" data-name="Trazado 8770" d="M731.083,4054.537a7.716,7.716,0,1,0,7.716,7.716,7.725,7.725,0,0,0-7.716-7.716Zm0,16.774a9.058,9.058,0,1,1,9.058-9.059,9.069,9.069,0,0,1-9.058,9.059Z" transform="translate(1.548 3.85)" fill="#fff"/>
    <path id="Trazado_8771" data-name="Trazado 8771" d="M743.348,4072.049a3.165,3.165,0,1,1-6.331,0Z" transform="translate(1.996 4.412)" fill="#fff"/>
    <path id="Trazado_8772" data-name="Trazado 8772" d="M734.177,4064.8a1.664,1.664,0,1,1-1.664-1.665,1.665,1.665,0,0,1,1.664,1.665Z" transform="translate(1.812 4.147)" fill="#333"/>
    <path id="Trazado_8773" data-name="Trazado 8773" d="M729.746,4064.707a1.465,1.465,0,0,1,.045-.355,2.537,2.537,0,0,1,.335-.781,2.823,2.823,0,0,1,.774-.789,2.722,2.722,0,0,1,.529-.3,3.628,3.628,0,0,1,.587-.2,4.608,4.608,0,0,1,.611-.079,3.865,3.865,0,0,1,.6.032,3.007,3.007,0,0,1,1.02.355,2.745,2.745,0,0,1,.649.512,1.986,1.986,0,0,1,.219.269l-.016.146-.24-.007c-.152-.005-.369-.015-.628-.008a8.363,8.363,0,0,0-.884.042l-.493.07-.5.108a6.82,6.82,0,0,0-1.772.638,5.186,5.186,0,0,0-.731.45l-.1-.112Z" transform="translate(1.779 4.119)" fill="#3d4159"/>
    <path id="Trazado_8774" data-name="Trazado 8774" d="M746.1,4064.8a1.664,1.664,0,1,0,1.664-1.665,1.664,1.664,0,0,0-1.664,1.665Z" transform="translate(2.267 4.147)" fill="#333"/>
    <path id="Trazado_8775" data-name="Trazado 8775" d="M750.592,4064.707a1.492,1.492,0,0,0-.044-.355,2.539,2.539,0,0,0-.335-.781,2.835,2.835,0,0,0-.773-.789,2.764,2.764,0,0,0-.529-.3,3.642,3.642,0,0,0-.588-.2,4.56,4.56,0,0,0-.611-.079,3.867,3.867,0,0,0-.6.032,3,3,0,0,0-1.018.355,2.724,2.724,0,0,0-.649.512,1.947,1.947,0,0,0-.22.269l.018.146.239-.007c.152-.005.369-.015.628-.008a8.349,8.349,0,0,1,.884.042l.493.07.5.108a6.829,6.829,0,0,1,1.773.638,5.127,5.127,0,0,1,.73.45l.1-.112Z" transform="translate(2.241 4.119)" fill="#3d4159"/>
    <path id="Trazado_8776" data-name="Trazado 8776" d="M829.849,4060.263h-36.3v-17.957h1.342v16.615h34.961v1.342Z" transform="translate(3.684 3.525)" fill="#fff"/>
    <path id="Trazado_8777" data-name="Trazado 8777" d="M854.53,4026.172H811.466a16.615,16.615,0,0,0-16.616,16.616V4059.4h59.68a16.615,16.615,0,0,0,16.616-16.615h0a16.615,16.615,0,0,0-16.616-16.616Z" transform="translate(3.723 3.043)" fill="#d6fff4"/>
    <path id="Trazado_8778" data-name="Trazado 8778" d="M957.408,4199.047a3.355,3.355,0,1,0-4.31,1.986,3.358,3.358,0,0,0,4.31-1.986Z" transform="translate(8.382 8.07)" fill="#b695ff"/>
    <path id="Trazado_8779" data-name="Trazado 8779" d="M962.321,4194.717v0a4.7,4.7,0,1,1-1.733,9.1l-7.554-2.786,1.24-6.5,8.047.187Z" transform="translate(8.446 8.07)" fill="#b695ff"/>
    <path id="Trazado_8780" data-name="Trazado 8780" d="M696.691,4204.891v6.709H1130.13v-6.709Z" transform="translate(0.792 8.379)" fill="#77e8ca"/>
    <path id="Trazado_8781" data-name="Trazado 8781" d="M939.593,4211.405h0Z" transform="translate(3.6 8.574)" fill="#f7fffc"/>
    <path id="Trazado_8782" data-name="Trazado 8782" d="M939.593,4212.1H790.739v-1.342H939.593v1.342Z" transform="translate(3.6 8.554)" fill="#327a69"/>
    <path id="Trazado_8783" data-name="Trazado 8783" d="M772.1,4211.405h0Z" transform="translate(1.891 8.574)" fill="#f7fffc"/>
    <path id="Trazado_8784" data-name="Trazado 8784" d="M772.1,4212.1H733.511v-1.342H772.1v1.342Z" transform="translate(1.891 8.554)" fill="#327a69"/>
    <path id="Trazado_8785" data-name="Trazado 8785" d="M783.766,4211.405h0Z" transform="translate(3.207 8.574)" fill="#f7fffc"/>
    <path id="Trazado_8786" data-name="Trazado 8786" d="M783.766,4212.1h-6.193v-1.342h6.193v1.342Z" transform="translate(3.207 8.554)" fill="#327a69"/>
    <path id="Trazado_8787" data-name="Trazado 8787" d="M1067.4,4211.405h0Z" transform="translate(9.177 8.574)" fill="#f7fffc"/>
    <path id="Trazado_8788" data-name="Trazado 8788" d="M1067.4,4212.1H977.53v-1.342H1067.4v1.342Z" transform="translate(9.177 8.554)" fill="#327a69"/>
    <path id="Trazado_8789" data-name="Trazado 8789" d="M898.644,4200.121l-1.341-.062.811-17.521,1.341.063-.811,17.521Z" transform="translate(6.782 7.712)" fill="#fff"/>
    <path id="Trazado_8790" data-name="Trazado 8790" d="M1097.84,4225.125h-84.781v-6.711h84.781v6.711Z" transform="translate(10.238 8.783)" fill="#f0fffa"/>
    <path id="Trazado_8791" data-name="Trazado 8791" d="M1006.62,4225.125H986v-6.711h20.622v6.711Z" transform="translate(9.43 8.783)" fill="#e6fff6"/>
    <path id="Trazado_8792" data-name="Trazado 8792" d="M780.465,4234.8H750.6v-3.355h29.867v3.355Z" transform="translate(2.401 9.171)" fill="#f2f0ff"/>
    <path id="Trazado_8793" data-name="Trazado 8793" d="M790.223,4234.8H785.9v-3.355h4.323v3.355Z" transform="translate(3.455 9.171)" fill="#f2f0ff"/>
    <path id="Trazado_8794" data-name="Trazado 8794" d="M897.781,4234.8H798.349v-3.355h99.432v3.355Z" transform="translate(3.827 9.171)" fill="#f2f0ff"/>
    <path id="Trazado_8795" data-name="Trazado 8795" d="M948.318,4234.8H905.661v-3.355h42.656v3.355Z" transform="translate(7.031 9.171)" fill="#f2f0ff"/>
    <path id="Trazado_8796" data-name="Trazado 8796" d="M1027.607,4234.8h-75.14v-3.355h75.14v3.355Z" transform="translate(8.429 9.171)" fill="#f2f0ff"/>
    <path id="Trazado_8797" data-name="Trazado 8797" d="M1040.341,4234.8H1035.5v-3.355h4.843v3.355Z" transform="translate(10.908 9.171)" fill="#f2f0ff"/>
    <path id="Trazado_8798" data-name="Trazado 8798" d="M986.606,4225.125H865.279v-6.711H986.606v6.711Z" transform="translate(5.826 8.783)" fill="#f0fffa"/>
    <path id="Trazado_8799" data-name="Trazado 8799" d="M859.074,4225.125H833.4v-6.711h25.676v6.711Z" transform="translate(4.874 8.783)" fill="#e6fff6"/>
    <path id="Trazado_8800" data-name="Trazado 8800" d="M831.119,4225.125h-5.255v-6.711h5.255v6.711Z" transform="translate(4.649 8.783)" fill="#d6fff4"/>
    <path id="Trazado_8801" data-name="Trazado 8801" d="M824.979,4225.125H765.737v-6.711h59.243v6.711Z" transform="translate(2.853 8.783)" fill="#f0fffa"/>
    <path id="Trazado_8802" data-name="Trazado 8802" d="M758.984,4225.125H714.728v-6.711h44.256v6.711Z" transform="translate(1.33 8.783)" fill="#f0fffa"/>
    <path id="Trazado_8803" data-name="Trazado 8803" d="M926.728,4206.611H795.149a65.862,65.862,0,0,1,131.579,0Z" transform="translate(3.732 6.556)" fill="#ff6959"/>
    <path id="Trazado_8804" data-name="Trazado 8804" d="M833.642,4149.9l-.539-1.231c1.767-.774,3.587-1.479,5.408-2.092l.429,1.27c-1.786.6-3.567,1.293-5.3,2.054Z" transform="translate(4.865 6.638)" fill="#ff4589"/>
    <path id="Trazado_8805" data-name="Trazado 8805" d="M795.839,4206.405l-1.341-.061a66.254,66.254,0,0,1,33.286-54.561l.67,1.161a64.918,64.918,0,0,0-32.616,53.461Z" transform="translate(3.712 6.793)" fill="#ff4589"/>
    <path id="Trazado_8806" data-name="Trazado 8806" d="M904.8,4150.1a11.571,11.571,0,1,1-4.93-15.6,11.573,11.573,0,0,1,4.93,15.6Z" transform="translate(6.353 6.238)" fill="#9af7e0"/>
    <path id="Trazado_8807" data-name="Trazado 8807" d="M935.466,4191.176a8.408,8.408,0,1,1-6.348-10.054,8.406,8.406,0,0,1,6.348,10.054Z" transform="translate(7.425 7.663)" fill="#f6caae"/>
    <path id="Trazado_8808" data-name="Trazado 8808" d="M987.481,4202.49l-.9,3.049H960.757l-35.539-8.025,4.758-16.1,57.505,21.072Z" transform="translate(7.615 7.678)" fill="#f6caae"/>
    <path id="Trazado_8809" data-name="Trazado 8809" d="M826.273,4197.955a8.409,8.409,0,1,0-9.424,7.252,8.409,8.409,0,0,0,9.424-7.252Z" transform="translate(4.161 7.889)" fill="#f6caae"/>
    <path id="Trazado_8810" data-name="Trazado 8810" d="M907.15,4145.294l-2.855,61.685H862l-14.346-57.005a13.49,13.49,0,0,1,13.087-16.779h34.853a11.569,11.569,0,0,1,11.558,12.1Z" transform="translate(5.287 6.238)" fill="#eabdff"/>
    <path id="Trazado_8811" data-name="Trazado 8811" d="M854.739,4155.367a11.572,11.572,0,1,0-5.976-15.234,11.572,11.572,0,0,0,5.976,15.234Z" transform="translate(5.303 6.238)" fill="#eabdff"/>
    <path id="Trazado_8812" data-name="Trazado 8812" d="M817.7,4205.274l61.239.032.572-8.864-60.732-7.912-1.079,16.745Z" transform="translate(4.405 7.891)" fill="#f6caae"/>
    <path id="Trazado_8813" data-name="Trazado 8813" d="M869.479,4132.856a9.791,9.791,0,1,0,11.038-8.359,9.79,9.79,0,0,0-11.038,8.359Z" transform="translate(5.948 5.976)" fill="#f6caae"/>
    <path id="Trazado_8814" data-name="Trazado 8814" d="M847.6,4176.288l-23.355,26.853-13.182-10.422,21.334-29.657,15.2,13.227Z" transform="translate(4.207 7.13)" fill="#f6caae"/>
    <path id="Trazado_8815" data-name="Trazado 8815" d="M934.617,4185.119l-13.53,9.952-12.55-15.229,14.714-12.131,11.367,17.408Z" transform="translate(7.117 7.269)" fill="#f6caae"/>
    <path id="Trazado_8816" data-name="Trazado 8816" d="M923.937,4168.589l-14.714,12.132-13.963-16.938-9.73-11.81,18.613-13.7,9.024,13.822,10.771,16.492Z" transform="translate(6.43 6.39)" fill="#eabdff"/>
    <path id="Trazado_8817" data-name="Trazado 8817" d="M876.85,4155.528l14.968,19.367.157-.122a11.445,11.445,0,1,0,18.11-14l.054-.035-14.965-19.366-18.323,14.152Z" transform="translate(6.171 6.483)" fill="#eabdff"/>
    <path id="Trazado_8818" data-name="Trazado 8818" d="M901.4,4179.783h-6.55v-1.342h6.55a8.171,8.171,0,0,0,2.339-.443,10.786,10.786,0,0,0,7.16-13.451,10.678,10.678,0,0,0-1.874-3.561l-.467-.584.065-.04-8.569-11.091,1.061-.819,9.468,12.25-.064.04a12.118,12.118,0,0,1-6.389,18.542,9.463,9.463,0,0,1-2.729.5Z" transform="translate(6.708 6.694)" fill="#fff"/>
    <path id="Trazado_8819" data-name="Trazado 8819" d="M856.772,4188.439l-2.78-11.045,1.3-.326,2.78,11.042-1.3.328Z" transform="translate(5.489 7.548)" fill="#77e8ca"/>
    <path id="Trazado_8820" data-name="Trazado 8820" d="M868.578,4152.215l-8.42,9.685-13.182,15.141-15.2-13.228,10.592-14.711,8.092-11.25,18.122,14.363Z" transform="translate(4.825 6.377)" fill="#eabdff"/>
    <path id="Trazado_8821" data-name="Trazado 8821" d="M839.083,4186.2l-1.012-.88,20.364-23.4,1.012.879-20.364,23.4Z" transform="translate(5.013 7.096)" fill="#fff"/>
    <path id="Trazado_8822" data-name="Trazado 8822" d="M943.7,4199.649h-61.67v5.34H943.7v-5.34Z" transform="translate(6.326 8.223)" fill="#327a69"/>
    <path id="Trazado_8823" data-name="Trazado 8823" d="M1028.9,4145.637l-9.728,47.209-.07.347-2.76,13.413H930.9l12.558-60.969Z" transform="translate(7.785 6.61)" fill="#fff"/>
    <path id="Trazado_8824" data-name="Trazado 8824" d="M1031.847,4145.637l-9.728,47.209-.07.347-2.76,13.413H933.843l12.558-60.969Z" transform="translate(7.873 6.61)" fill="#b8ffeb"/>
    <path id="Trazado_8825" data-name="Trazado 8825" d="M1022.118,4191.478l-.07.346-2.76,13.413H933.843l88.276-13.759Z" transform="translate(7.873 7.978)" fill="#d6fff4"/>
    <path id="Trazado_8826" data-name="Trazado 8826" d="M987.837,4175.414a8.055,8.055,0,0,1-7.514,6.231,4.925,4.925,0,0,1-4.947-6.231,8.054,8.054,0,0,1,7.514-6.231,4.925,4.925,0,0,1,4.947,6.231Z" transform="translate(9.109 7.312)" fill="#fff"/>
    <path id="Trazado_8827" data-name="Trazado 8827" d="M888.7,4204.8a6.168,6.168,0,0,1-2.022.341v0l-10.68.041-1.476-8.656,10.091-3.5a6.23,6.23,0,1,1,4.086,11.77Z" transform="translate(6.102 8.014)" fill="#f6caae"/>
    <path id="Trazado_8828" data-name="Trazado 8828" d="M903.751,4197.285l-1.339-.078,1.147-19.65,1.339.079-1.147,19.649Z" transform="translate(6.934 7.563)" fill="#fff"/>
    <path id="Trazado_8829" data-name="Trazado 8829" d="M815.016,4187.587l-1.089-.783,1.21-1.68,1.089.782-1.21,1.681Z" transform="translate(4.292 7.788)" fill="#77e8ca"/>
    <path id="Trazado_8830" data-name="Trazado 8830" d="M819.562,4182.391l-1.089-.786,29.08-40.416,1.089.785-29.08,40.417Z" transform="translate(4.428 6.477)" fill="#77e8ca"/>
    <path id="Trazado_8831" data-name="Trazado 8831" d="M1023.121,4178.979l-1.314-.268,6.757-33.2,1.314.269-6.757,33.2Z" transform="translate(10.499 6.607)" fill="#77e8ca"/>
    <path id="Trazado_8832" data-name="Trazado 8832" d="M1068.472,4110.335l5.642,19.322c.952-.278,1.9-.573,2.828-.877l-6.284-19.122c-.725.238-1.451.462-2.186.677Z" transform="translate(11.892 5.536)" fill="#c2ffee"/>
    <path id="Trazado_8833" data-name="Trazado 8833" d="M1072.663,4109.426l6.9,18.906a89.917,89.917,0,0,0,33.324-21.577L1098.48,4092.7a69.654,69.654,0,0,1-25.817,16.723Z" transform="translate(12.018 5.03)" fill="#d6fff4"/>
    <path id="Trazado_8834" data-name="Trazado 8834" d="M1135.329,4026.965l-19.654,4.352a69.374,69.374,0,0,1-15.571,60.712l15.116,13.288a89.509,89.509,0,0,0,20.109-78.352Z" transform="translate(12.837 3.066)" fill="#f0fffa"/>
    <path id="Trazado_8835" data-name="Trazado 8835" d="M1109.884,4016.321l18.013-8.981c-1.274-2.554-2.689-5.077-4.2-7.5l-17.065,10.675c1.173,1.875,2.269,3.828,3.254,5.8Z" transform="translate(13.032 2.256)" fill="#d6fff4"/>
    <path id="Trazado_8836" data-name="Trazado 8836" d="M982.974,4048.383a69.32,69.32,0,0,1,60.035-68.61,16.8,16.8,0,0,1,6.88-.568c.765-.025,1.529-.042,2.3-.042a69.554,69.554,0,0,1,55.732,28.16l16.193-11.954a89.374,89.374,0,0,0-159.652,70.02l19.764-3.811a69.955,69.955,0,0,1-1.253-13.2Z" transform="translate(8.739 1.039)" fill="#f0fffa"/>
    <path id="Trazado_8837" data-name="Trazado 8837" d="M984.852,4061.711l-19.561,4.748c.424,1.749.909,3.508,1.439,5.228l19.235-5.934c-.41-1.33-.785-2.689-1.112-4.042Z" transform="translate(8.812 4.104)" fill="#d6fff4"/>
    <path id="Trazado_8838" data-name="Trazado 8838" d="M1051.972,4114.2a68.883,68.883,0,0,1-25.141-4.705,69.788,69.788,0,0,1-38.264-36.7l-18.429,8.1a90.08,90.08,0,0,0,49.38,47.359,89.78,89.78,0,0,0,52.065,3.918l-4.41-19.639a69.437,69.437,0,0,1-15.2,1.672Z" transform="translate(8.956 4.435)" fill="#f0fffa"/>
    <path id="Trazado_8839" data-name="Trazado 8839" d="M1072,3993.071a18.149,18.149,0,0,0,9.591,2.907,60.536,60.536,0,0,0-14.838-6.787c1.817,1.416,3.568,2.76,5.247,3.879Z" transform="translate(11.841 1.938)" fill="#edfffa"/>
    <path id="Trazado_8840" data-name="Trazado 8840" d="M1024.459,4018.49c0,.065.008.127.01.193a4.157,4.157,0,0,1,1.514-.289h1.025v-4q-.195-.395-.391-.818a5.107,5.107,0,0,0-2.157,4.163v.748Z" transform="translate(10.578 2.667)" fill="#edfffa"/>
    <path id="Trazado_8841" data-name="Trazado 8841" d="M1019.158,4067.252a11.412,11.412,0,0,1,10.607-15.662h.983a19.276,19.276,0,0,1-2.725-9.906v-14.217H1027a4.162,4.162,0,0,1-2.782-7.26,6.252,6.252,0,0,1-.083-.978v-.748a6.447,6.447,0,0,1,2.945-5.408,33.293,33.293,0,0,1-2.906-12.756c0-8.246,6.962-10.527,10.816-11.16-.012-.106-.02-.213-.03-.319a60.941,60.941,0,0,0-44.243,53.278l-.012.139q-.1,1.224-.161,2.462c0,.122-.008.243-.015.366-.03.774-.048,1.551-.05,2.333,0,.043,0,.086,0,.131,0,.871.025,1.737.061,2.6,0,.029,0,.059,0,.089a60.355,60.355,0,0,0,10.2,31.132c.021.034.044.064.065.1a34.976,34.976,0,0,1,18.351-14.215Z" transform="translate(9.564 1.928)" fill="#edfffa"/>
    <path id="Trazado_8842" data-name="Trazado 8842" d="M1089.128,4001.681a.3.3,0,0,1-.01.059c-.7,6.41-3.261,15.209-11.837,17.372a6.64,6.64,0,0,1-.116,1.041,3.971,3.971,0,0,1,.977,2.612,4.341,4.341,0,0,1-4.341,4.342h-.848v14.218a19.274,19.274,0,0,1-2.726,9.906h.983a11.416,11.416,0,0,1,10.608,15.663,34.979,34.979,0,0,1,18.293,14.126,61.083,61.083,0,0,1-23.472,20.648c-1.286.644-2.591,1.238-3.932,1.79-.35.144-.7.29-1.059.428a60.827,60.827,0,0,1-22.048,4.138h.008a60.691,60.691,0,0,0,22.117-4.144q.531-.208,1.062-.424a60.9,60.9,0,0,0,16.417-102.578c-.021.263-.048.531-.076.8Z" transform="translate(11.329 2.287)" fill="#edfffa"/>
    <path id="Trazado_8843" data-name="Trazado 8843" d="M1074.173,4101.544c1.341-.552,2.646-1.147,3.932-1.79a61.088,61.088,0,0,0,23.472-20.649,34.977,34.977,0,0,0-18.293-14.125,11.427,11.427,0,0,1-10.608,7.191h-9.085v22.22h-1.341v-22.22h-22.357v22.22h-1.342v-22.22h-9.084a11.421,11.421,0,0,1-10.607-7.192,34.974,34.974,0,0,0-18.351,14.215,61.155,61.155,0,0,0,21.219,19.4,60.257,60.257,0,0,0,15.936,6.036c.428.1.857.193,1.29.28a61.532,61.532,0,0,0,12.069,1.2h.044a60.8,60.8,0,0,0,22.048-4.137c.354-.139.708-.285,1.059-.428Z" transform="translate(9.863 4.202)" fill="#f0ccff"/>
    <path id="Trazado_8844" data-name="Trazado 8844" d="M1072.194,4052.957c5.8,0,6.869,8.268,1.255,9.74l-10.545,2.763h0l-12.327,3.233v0h0l-.009,0-10.826-2.843-12.048-3.157c-5.614-1.473-4.549-9.74,1.255-9.74h3.315a.023.023,0,0,0,.019-.039,19.4,19.4,0,0,1-2.333-3.136.023.023,0,0,0-.021-.011h-.648a11.651,11.651,0,0,0-11.679,10.163,11.444,11.444,0,0,0,11.358,12.691h9.06a.025.025,0,0,0,.025-.023v-3.1a.024.024,0,0,1,.024-.024h1.292a.025.025,0,0,1,.026.024v3.1a.024.024,0,0,0,.025.023h22.308a.025.025,0,0,0,.024-.023v-3.1a.024.024,0,0,1,.024-.024h1.292a.024.024,0,0,1,.025.024v3.1a.024.024,0,0,0,.024.023h9.062a11.443,11.443,0,0,0,11.359-12.691,11.651,11.651,0,0,0-11.679-10.163h-.65a.022.022,0,0,0-.02.011,19.5,19.5,0,0,1-2.332,3.136.023.023,0,0,0,.019.039Z" transform="translate(10.371 3.747)" fill="#a4f5e1"/>
    <path id="Trazado_8845" data-name="Trazado 8845" d="M1061.589,4065.368l10.728-2.812c5.586-1.464,4.527-9.691-1.25-9.691h-3.573a19.429,19.429,0,0,1-5.905,4.378v8.125Z" transform="translate(11.687 3.84)" fill="#4ac9aa"/>
    <path id="Trazado_8846" data-name="Trazado 8846" d="M1027.326,4062.556l12.23,3.206-1.517-.4v-8.12a19.409,19.409,0,0,1-5.906-4.378h-3.558c-5.775,0-6.836,8.227-1.248,9.691Z" transform="translate(10.554 3.84)" fill="#4ac9aa"/>
    <rect id="Rectángulo_6002" data-name="Rectángulo 6002" width="0.002" height="0.003" transform="translate(1060.947 4072.44)" fill="#4ac9aa"/>
    <path id="Trazado_8847" data-name="Trazado 8847" d="M1037.621,4065.236l1.517.4,10.826,2.842.009,0h0l12.328-3.234h0v-2.34c-.32.016-.641.025-.966.025h-10.354a18.1,18.1,0,0,1-13.275-5.77l-.089-.04v8.12Z" transform="translate(10.971 3.967)" fill="#f6caae"/>
    <path id="Trazado_8848" data-name="Trazado 8848" d="M1023.278,4019.3a4.162,4.162,0,0,0,2.782,7.26h1.025v-2.32a6.458,6.458,0,0,1-3.806-4.939Z" transform="translate(10.502 2.837)" fill="#f6caae"/>
    <path id="Trazado_8849" data-name="Trazado 8849" d="M1025.983,4018.255a4.155,4.155,0,0,0-1.514.288,5.11,5.11,0,0,0,2.538,4.221v-4.509Z" transform="translate(10.579 2.807)" fill="#f6caae"/>
    <path id="Trazado_8850" data-name="Trazado 8850" d="M1072.276,4024.4v2.149h.847a4.342,4.342,0,0,0,4.341-4.342,3.972,3.972,0,0,0-.977-2.613,6.47,6.47,0,0,1-4.211,4.805Z" transform="translate(12.006 2.847)" fill="#f6caae"/>
    <path id="Trazado_8851" data-name="Trazado 8851" d="M1075.11,4018.878a14.692,14.692,0,0,1-2.834.147v3.955a5.122,5.122,0,0,0,2.971-4.127c-.046.008-.088.018-.137.025Z" transform="translate(12.006 2.824)" fill="#f6caae"/>
    <path id="Trazado_8852" data-name="Trazado 8852" d="M1050.982,4062.926h10.354c.325,0,.646-.01.966-.025v-5.784a19.282,19.282,0,0,1-8.357,1.893h-7.969a19.28,19.28,0,0,1-8.269-1.853,18.1,18.1,0,0,0,13.275,5.77Z" transform="translate(10.974 3.967)" fill="#eab599"/>
    <path id="Trazado_8853" data-name="Trazado 8853" d="M1026.945,4018.421v4.509a5.06,5.06,0,0,0,2.36.686v-4.983a51.381,51.381,0,0,1,.339-5.974h-.137a5.077,5.077,0,0,0-2.954.948c.131.283.261.555.391.818v4Z" transform="translate(10.641 2.64)" fill="#3d4159"/>
    <path id="Trazado_8854" data-name="Trazado 8854" d="M1069.983,4018.715v4.73h.248a5.072,5.072,0,0,0,2.113-.462v-3.955a13.4,13.4,0,0,1-2.361-.313Z" transform="translate(11.938 2.82)" fill="#3d4159"/>
    <path id="Trazado_8855" data-name="Trazado 8855" d="M1054.691,4030.376a4.409,4.409,0,1,1-8.819,0Zm16.826-5.693h-.248v.248a5.445,5.445,0,0,1-5.445,5.445h-2.836a14,14,0,0,0-1.557-2.588,14.144,14.144,0,0,0-3.258-3.111,6.418,6.418,0,0,1-4.565-2.023,14,14,0,0,0-3.324-.413h0a14.009,14.009,0,0,0-2.745.273,6.436,6.436,0,0,1-4.813,2.169h-.343a14.082,14.082,0,0,0-3.246,3.1,13.942,13.942,0,0,0-1.56,2.588h-2.834a5.445,5.445,0,0,1-5.445-5.445v-.258a6.389,6.389,0,0,1-2.36-.523v16.538a19.39,19.39,0,0,0,11.006,17.47l.089.041a19.287,19.287,0,0,0,8.269,1.853h7.969a19.364,19.364,0,0,0,19.364-19.363V4024.32a6.418,6.418,0,0,1-2.114.363Z" transform="translate(10.652 2.925)" fill="#3d4159"/>
    <path id="Trazado_8856" data-name="Trazado 8856" d="M1066.43,4025.112a2.6,2.6,0,0,1-2.6,2.6h-3.4a14.033,14.033,0,0,1,1.557,2.588h2.836a5.445,5.445,0,0,0,5.445-5.444v-.248h-3.855c0,.055.017.107.017.164v.336Z" transform="translate(11.652 2.996)" fill="#f6caae"/>
    <path id="Trazado_8857" data-name="Trazado 8857" d="M1049.09,4018.285v.747a6.42,6.42,0,0,1-1.407,4.01h5.479a6.421,6.421,0,0,1-1.406-4.01v-.747a6.46,6.46,0,0,1,6.452-6.452h2.474c-3.672-4.653-6.318-10.075-8.867-12.447-6.572-6.117-15.629-3.359-15.629-3.359h0c-.014.014-4.854,4.809-6.461,15.808h12.914a6.459,6.459,0,0,1,6.451,6.452Z" transform="translate(10.736 2.125)" fill="#f6caae"/>
    <path id="Trazado_8858" data-name="Trazado 8858" d="M1035.9,4018.74a3.273,3.273,0,0,1,.429-1,3.63,3.63,0,0,1,.99-1.009,3.516,3.516,0,0,1,.677-.378,4.848,4.848,0,0,1,.751-.253,6,6,0,0,1,.781-.1,4.847,4.847,0,0,1,.763.042,3.829,3.829,0,0,1,1.3.453,3.48,3.48,0,0,1,.83.656,2.475,2.475,0,0,1,.281.343l-.021.188-.306-.009c-.2-.006-.474-.019-.805-.009-.247-.006-.531.01-.827.032a2.124,2.124,0,1,1-3.263.79c-.209.091-.408.184-.579.277a6.632,6.632,0,0,0-.934.574l-.125-.142a1.827,1.827,0,0,1,.056-.455Zm-6.677-.106v4.983c.067,0,.133.01.2.01h4.12a2.6,2.6,0,0,1,2.122-1.1h10.141a5.1,5.1,0,0,0,1.953-4.009v-.748a5.115,5.115,0,0,0-5.108-5.11h-13.09a51.327,51.327,0,0,0-.339,5.974Z" transform="translate(10.721 2.64)" fill="#f6caae"/>
    <path id="Trazado_8859" data-name="Trazado 8859" d="M1034.671,4030.306h2.834a13.942,13.942,0,0,1,1.56-2.588h-3.4a2.606,2.606,0,0,1-2.607-2.6v-.336c0-.057.014-.108.019-.164h-3.653c-.069,0-.135-.008-.2-.01v.258a5.445,5.445,0,0,0,5.445,5.445Z" transform="translate(10.721 2.996)" fill="#f6caae"/>
    <path id="Trazado_8860" data-name="Trazado 8860" d="M1063.761,4019.336a6.484,6.484,0,0,0-.934-.574c-.171-.094-.369-.187-.578-.277a2.13,2.13,0,1,1-3.263-.79c-.3-.021-.582-.038-.83-.032-.332-.01-.61,0-.8.009l-.306.009-.022-.187a2.512,2.512,0,0,1,.28-.343,3.482,3.482,0,0,1,.831-.656,3.851,3.851,0,0,1,1.3-.453,4.861,4.861,0,0,1,.763-.042,6.085,6.085,0,0,1,.783.1,4.934,4.934,0,0,1,.752.253,3.538,3.538,0,0,1,.676.378,3.66,3.66,0,0,1,.991,1.009,3.242,3.242,0,0,1,.427,1,1.888,1.888,0,0,1,.058.455l-.127.142Zm-2.645-6.677h-3.585a5.116,5.116,0,0,0-5.111,5.11v.748a5.1,5.1,0,0,0,1.952,4.009h9.692a2.594,2.594,0,0,1,2.119,1.1h4.323V4018.9c-3.792-.857-6.835-3.294-9.391-6.236Z" transform="translate(11.413 2.64)" fill="#f6caae"/>
    <path id="Trazado_8861" data-name="Trazado 8861" d="M1041.207,3979.192c-.279.083-.559.163-.841.262-5.616,1.972-6.728,6.029-6.384,9.694.01.105.017.213.03.319-3.855.632-10.817,2.914-10.817,11.16a33.3,33.3,0,0,0,2.906,12.756,6.406,6.406,0,0,1,3.507-1.044h.312c1.608-11,6.447-15.794,6.461-15.808v0a15.666,15.666,0,0,1,17.221-1.467c8.506,4.354,13.6,15.679,23.254,16.6,6.573.637,12.295-5.191,13.05-9.26a.3.3,0,0,0,.01-.059c.028-.272.055-.541.076-.8a38.576,38.576,0,0,0,.075-6.152,22.863,22.863,0,0,1-7.18.9,18.144,18.144,0,0,1-9.591-2.907c-1.679-1.119-3.43-2.464-5.247-3.88-5.928-4.614-12.6-9.989-19.962-10.886a16.8,16.8,0,0,0-6.88.568Z" transform="translate(10.541 1.62)" fill="#3d4159"/>
    <path id="Trazado_8862" data-name="Trazado 8862" d="M1060.524,4027.718h3.4a2.6,2.6,0,0,0,2.6-2.6v-.337c0-.056-.012-.108-.017-.163h-9.121c-.04,0-.079-.006-.12-.006a14.128,14.128,0,0,1,3.257,3.111Z" transform="translate(11.558 2.996)" fill="#eab599"/>
    <path id="Trazado_8863" data-name="Trazado 8863" d="M1052.569,4022.241h-2.963a14,14,0,0,1,3.324.413q-.19-.2-.361-.413Z" transform="translate(11.329 2.925)" fill="#eab599"/>
    <path id="Trazado_8864" data-name="Trazado 8864" d="M1032.951,4025.112a2.606,2.606,0,0,0,2.606,2.6h3.4a14.084,14.084,0,0,1,3.246-3.1h-9.23c0,.055-.018.107-.018.164v.336Z" transform="translate(10.832 2.996)" fill="#eab599"/>
    <path id="Trazado_8865" data-name="Trazado 8865" d="M1047.17,4022.241c-.075.094-.153.183-.232.273a14.008,14.008,0,0,1,2.746-.273Z" transform="translate(11.25 2.925)" fill="#eab599"/>
    <path id="Trazado_8866" data-name="Trazado 8866" d="M1033.422,4023.341h9.107a5.071,5.071,0,0,0,3.156-1.1h-10.141a2.6,2.6,0,0,0-2.122,1.1Z" transform="translate(10.846 2.925)" fill="#eab599"/>
    <path id="Trazado_8867" data-name="Trazado 8867" d="M1064.008,4022.241h-9.692a5.079,5.079,0,0,0,3.158,1.1h8.653a2.6,2.6,0,0,0-2.12-1.1Z" transform="translate(11.47 2.925)" fill="#eab599"/>
    <path id="Trazado_8868" data-name="Trazado 8868" d="M1049.732,4034.55a4.41,4.41,0,0,0,4.41-4.411h-8.819a4.409,4.409,0,0,0,4.409,4.411Z" transform="translate(11.201 3.162)" fill="#fff"/>
    <path id="Trazado_8869" data-name="Trazado 8869" d="M1026.655,4013.646a5.074,5.074,0,0,1,2.954-.948h13.226a5.116,5.116,0,0,1,5.108,5.11v.748a5.126,5.126,0,0,1-5.108,5.109h-13.226c-.069,0-.135-.007-.2-.01a5.106,5.106,0,0,1-4.9-4.907c0-.065-.01-.127-.01-.192v-.748a5.106,5.106,0,0,1,2.157-4.162Zm-3.5,4.162v.748a6.242,6.242,0,0,0,.083.978,6.424,6.424,0,0,0,6.167,5.463c.067,0,.133.01.2.01h13.226a6.434,6.434,0,0,0,4.813-2.169c.078-.09.156-.179.232-.273a6.418,6.418,0,0,0,1.407-4.009v-.748a6.459,6.459,0,0,0-6.451-6.452h-13.226a6.47,6.47,0,0,0-6.452,6.452Z" transform="translate(10.539 2.601)" fill="#ff7e59"/>
    <path id="Trazado_8870" data-name="Trazado 8870" d="M1039.582,4017.662c-.211.044-.427.09-.643.137a9.069,9.069,0,0,0-1.689.54,2.13,2.13,0,1,0,3.263-.79c-.1.008-.2.013-.3.021l-.63.091Z" transform="translate(10.955 2.786)" fill="#333"/>
    <path id="Trazado_8871" data-name="Trazado 8871" d="M1036.714,4018.666c.171-.094.37-.187.579-.277a9.139,9.139,0,0,1,1.689-.541l.643-.137.63-.09c.1-.008.2-.013.3-.021.3-.021.58-.038.827-.032.332-.01.61,0,.805.009l.306.009.022-.188a2.5,2.5,0,0,0-.281-.343,3.473,3.473,0,0,0-.83-.656,3.832,3.832,0,0,0-1.3-.453,4.846,4.846,0,0,0-.763-.042,6.018,6.018,0,0,0-.781.1,4.848,4.848,0,0,0-.751.253,3.514,3.514,0,0,0-.677.378,3.636,3.636,0,0,0-.99,1.009,3.289,3.289,0,0,0-.429,1,1.824,1.824,0,0,0-.056.454l.125.143a6.639,6.639,0,0,1,.934-.574Z" transform="translate(10.913 2.736)" fill="#3d4159"/>
    <path id="Trazado_8872" data-name="Trazado 8872" d="M1059.751,4017.662l-.63-.091c-.1-.008-.2-.013-.3-.021a2.126,2.126,0,1,0,3.263.79,9.17,9.17,0,0,0-1.689-.54c-.215-.047-.43-.093-.642-.137Z" transform="translate(11.58 2.786)" fill="#333"/>
    <path id="Trazado_8873" data-name="Trazado 8873" d="M1063.269,4017.644a3.668,3.668,0,0,0-.991-1.009,3.533,3.533,0,0,0-.675-.378,4.938,4.938,0,0,0-.752-.253,6.09,6.09,0,0,0-.783-.1,4.86,4.86,0,0,0-.763.042,3.851,3.851,0,0,0-1.3.453,3.467,3.467,0,0,0-.831.656,2.529,2.529,0,0,0-.28.343l.022.188.306-.009c.192-.006.47-.019.8-.009.248-.006.534.01.83.032.1.008.2.013.3.021l.63.09.641.137a9.237,9.237,0,0,1,1.689.541c.209.091.407.184.578.277a6.476,6.476,0,0,1,.934.574l.127-.143a1.9,1.9,0,0,0-.059-.454,3.245,3.245,0,0,0-.427-1Z" transform="translate(11.547 2.736)" fill="#3d4159"/>
    <path id="Trazado_8874" data-name="Trazado 8874" d="M1037.447,4068.907v25.366h1.342v-25.366Z" transform="translate(10.966 4.319)" fill="#fff"/>
    <path id="Trazado_8875" data-name="Trazado 8875" d="M1060.459,4068.907v25.366h1.34v-25.366Z" transform="translate(11.653 4.319)" fill="#fff"/>
    <path id="Trazado_8876" data-name="Trazado 8876" d="M1051.628,3999.466c2.549,2.372,5.2,7.794,8.867,12.447h10.751a6.46,6.46,0,0,1,6.453,6.452v.748c0,.082-.01.161-.012.242,8.577-2.162,11.137-10.962,11.837-17.372-.755,4.069-6.477,9.9-13.049,9.26-9.655-.926-14.748-12.25-23.254-16.6a15.666,15.666,0,0,0-17.221,1.468s9.057-2.758,15.629,3.359Z" transform="translate(10.923 2.044)" fill="#2e3143"/>
    <path id="Trazado_8877" data-name="Trazado 8877" d="M1070.255,4018.9a13.447,13.447,0,0,0,2.361.314,14.7,14.7,0,0,0,2.834-.147c.048-.007.09-.017.137-.025a5.122,5.122,0,0,0,.026-.52v-.748a5.116,5.116,0,0,0-5.11-5.11h-9.639c2.556,2.941,5.6,5.379,9.391,6.236Z" transform="translate(11.665 2.64)" fill="#3d4159"/>
    <path id="Trazado_8878" data-name="Trazado 8878" d="M1072.908,4023.2a5.072,5.072,0,0,1-2.113.462H1057.57a5.126,5.126,0,0,1-5.111-5.109v-.748a5.116,5.116,0,0,1,5.111-5.11h13.224a5.116,5.116,0,0,1,5.11,5.11v.748a5.088,5.088,0,0,1-3,4.647Zm4.34-5.4a6.46,6.46,0,0,0-6.453-6.452H1057.57a6.459,6.459,0,0,0-6.452,6.452v.748a6.417,6.417,0,0,0,1.406,4.009c.114.143.235.28.361.413a6.422,6.422,0,0,0,4.565,2.022c.04,0,.079.006.12.006h13.224a6.485,6.485,0,0,0,6.324-5.168,6.654,6.654,0,0,0,.116-1.041c0-.082.012-.161.012-.242v-.748Z" transform="translate(11.374 2.601)" fill="#ff7e59"/>
    <path id="Trazado_8879" data-name="Trazado 8879" d="M780.4,3942.123a6.484,6.484,0,1,1,6.428,6.539,6.482,6.482,0,0,1-6.428-6.539Zm-7.773,4.187a14.815,14.815,0,0,0,3.374,5.959L774,3955.682l7.336,4.32,2.007-3.413a14.739,14.739,0,0,0,6.853.06l1.949,3.448,7.41-4.2-1.954-3.448a14.753,14.753,0,0,0,3.478-5.9l3.957.035.075-8.512-3.957-.035a14.826,14.826,0,0,0-3.379-5.959l2.008-3.413-7.335-4.32-2.008,3.413a14.717,14.717,0,0,0-6.848-.06l-1.953-3.443-7.4,4.191,1.948,3.448a14.908,14.908,0,0,0-3.478,5.9l-3.957-.03-.075,8.512,3.962.03Z" transform="translate(2.941 0)" fill="#edfffa"/>
    <path id="Trazado_8880" data-name="Trazado 8880" d="M824.129,3973.879a11.507,11.507,0,1,1,11.409,11.605,11.5,11.5,0,0,1-11.409-11.605Zm-10.824,14.083-4.665,4.585,7.963,8.1,4.665-4.592a26.256,26.256,0,0,0,8.469,3.6l-.055,6.539,11.352.093.055-6.54a26.09,26.09,0,0,0,8.53-3.451l4.586,4.665,8.1-7.957-4.585-4.665a26.289,26.289,0,0,0,3.6-8.469l6.537.056.093-11.358-6.538-.056a26.218,26.218,0,0,0-3.452-8.53l4.665-4.585-7.957-8.1L850,3951.888a26.06,26.06,0,0,0-8.462-3.592l.055-6.54-11.358-.1-.055,6.539a26.147,26.147,0,0,0-8.53,3.451l-4.586-4.665-8.1,7.963,4.585,4.665a26.048,26.048,0,0,0-3.593,8.468l-6.54-.056-.1,11.352,6.54.062a26.135,26.135,0,0,0,3.45,8.524Z" transform="translate(3.975 0.52)" fill="#edfffa"/>
    <path id="Trazado_8881" data-name="Trazado 8881" d="M879.519,4112.587a13.941,13.941,0,1,1-13.553-14.32,13.941,13.941,0,0,1,13.553,14.32Z" transform="translate(5.418 5.196)" fill="#3d4159"/>
    <path id="Trazado_8882" data-name="Trazado 8882" d="M913.078,4107.72l-.922-.974a15.023,15.023,0,0,0,4.724-10.573,30.9,30.9,0,0,0-9.406-23.059l.93-.966a32.241,32.241,0,0,1,9.817,24.064,16.343,16.343,0,0,1-5.143,11.508Z" transform="translate(7.085 4.416)" fill="#fff"/>
    <path id="Trazado_8883" data-name="Trazado 8883" d="M918.339,4096.39a30.756,30.756,0,1,0-31.59,29.9l16.1-15.241a15.078,15.078,0,0,0,15.486-14.658Z" transform="translate(5.574 4.196)" fill="#3d4159"/>
    <path id="Trazado_8884" data-name="Trazado 8884" d="M872.121,4109.254l4.448.123.246-8.9-4.45-.121a4.448,4.448,0,0,0-4.57,4.326h0a4.449,4.449,0,0,0,4.326,4.571Z" transform="translate(5.901 5.258)" fill="#f6caae"/>
    <path id="Trazado_8885" data-name="Trazado 8885" d="M907.019,4084.875l-33.435-.919-1.187,43.161,20.766.571a14.423,14.423,0,0,0,14.812-14.913l-.956-27.9Z" transform="translate(6.038 4.768)" fill="#f6caae"/>
    <path id="Trazado_8886" data-name="Trazado 8886" d="M873.123,4101.126l-.891-.024.708-25.7,26.483.728a12.67,12.67,0,0,1,12.316,13.014l-.013.5-.89-.025a34.819,34.819,0,0,0-21.183,6.462h0a27.186,27.186,0,0,1-16.53,5.042Z" transform="translate(6.033 4.513)" fill="#3d4159"/>
    <path id="Trazado_8887" data-name="Trazado 8887" d="M901.335,4114.5a5.39,5.39,0,0,1-10.336-.3l10.336.3Z" transform="translate(6.593 5.671)" fill="#fff"/>
    <path id="Trazado_8888" data-name="Trazado 8888" d="M891.079,4103.963a1.972,1.972,0,1,1-1.953-1.988,1.972,1.972,0,0,1,1.953,1.988Z" transform="translate(6.478 5.306)" fill="#333"/>
    <path id="Trazado_8889" data-name="Trazado 8889" d="M885.831,4103.8a1.779,1.779,0,0,1,.057-.42,3.038,3.038,0,0,1,.4-.922,3.354,3.354,0,0,1,.927-.928,3.24,3.24,0,0,1,.629-.344,4.539,4.539,0,0,1,.7-.228,5.151,5.151,0,0,1,.724-.086,4.586,4.586,0,0,1,.706.044,3.547,3.547,0,0,1,1.2.43,3.245,3.245,0,0,1,.765.616,2.238,2.238,0,0,1,.258.32l-.023.173-.283-.013c-.181-.005-.437-.019-.745-.013a9.819,9.819,0,0,0-1.047.04l-.585.079-.6.121a8.059,8.059,0,0,0-2.107.74,6.137,6.137,0,0,0-.872.523l-.114-.133Z" transform="translate(6.439 5.273)" fill="#3d4159"/>
    <path id="Trazado_8890" data-name="Trazado 8890" d="M901.971,4104.225a1.973,1.973,0,1,0,1.991-1.955,1.974,1.974,0,0,0-1.991,1.955Z" transform="translate(6.921 5.315)" fill="#333"/>
    <path id="Trazado_8891" data-name="Trazado 8891" d="M907.292,4104.159a1.811,1.811,0,0,0-.048-.422,3,3,0,0,0-.389-.931,3.4,3.4,0,0,0-.907-.941,3.33,3.33,0,0,0-.626-.357,4.556,4.556,0,0,0-.692-.238,5.606,5.606,0,0,0-.725-.1,4.9,4.9,0,0,0-.706.032,3.524,3.524,0,0,0-1.212.411,3.173,3.173,0,0,0-.772.6,2.31,2.31,0,0,0-.264.315l.019.173.283-.006c.181,0,.437-.012.745,0s.664.027,1.047.061l.583.088.594.132a8.107,8.107,0,0,1,2.094.777,6.2,6.2,0,0,1,.861.537l.117-.128Z" transform="translate(6.891 5.282)" fill="#3d4159"/>
    <path id="Trazado_8892" data-name="Trazado 8892" d="M934.167,4009.206a5.494,5.494,0,1,1-5.489-5.29,5.392,5.392,0,0,1,5.489,5.29Z" transform="translate(7.555 2.379)" fill="#a4f5e1"/>
    <path id="Trazado_8893" data-name="Trazado 8893" d="M953.516,4009.206a5.493,5.493,0,1,1-5.489-5.29,5.391,5.391,0,0,1,5.489,5.29Z" transform="translate(8.132 2.379)" fill="#a4f5e1"/>
    <path id="Trazado_8894" data-name="Trazado 8894" d="M972.868,4009.206a5.495,5.495,0,1,1-5.491-5.29,5.392,5.392,0,0,1,5.491,5.29Z" transform="translate(8.71 2.379)" fill="#a4f5e1"/>
    <path id="Trazado_8895" data-name="Trazado 8895" d="M911.662,3982.977a26.894,26.894,0,1,0,0,53.788h103.156v-26.894a26.925,26.925,0,0,0-26.894-26.895Zm104.5,55.13h-104.5a28.236,28.236,0,1,1,0-56.472h76.262a28.269,28.269,0,0,1,28.237,28.237v28.235Z" transform="translate(6.367 1.713)" fill="#a4f5e1"/>
    <path id="Trazado_8896" data-name="Trazado 8896" d="M869.476,4133.367l19.4,2.678,3.6-26.069-19.4-2.676-3.6,26.067Z" transform="translate(5.951 5.465)" fill="#f6caae"/>
    <path id="Trazado_8897" data-name="Trazado 8897" d="M1161.244,4123.848a48.285,48.285,0,1,1-48.287-48.284,48.287,48.287,0,0,1,48.287,48.284Z" transform="translate(11.779 4.518)" fill="#fff"/>
    <path id="Trazado_8898" data-name="Trazado 8898" d="M1125.528,4122.209a14.4,14.4,0,1,1-14.4-14.4,14.4,14.4,0,0,1,14.4,14.4Z" transform="translate(12.736 5.481)" fill="#fff"/>
    <path id="Trazado_8899" data-name="Trazado 8899" d="M1111.469,4119.768a2.777,2.777,0,1,0,2.778,2.778,2.78,2.78,0,0,0-2.778-2.778Zm0,28.793a26.015,26.015,0,1,1,26.014-26.015,26.045,26.045,0,0,1-26.014,26.015Z" transform="translate(12.4 5.143)" fill="#fff"/>
    <path id="Trazado_8900" data-name="Trazado 8900" d="M1143,4142.281l-1.141-.7c6.546-10.6,6.828-23.586.773-35.619a28.772,28.772,0,0,0-12.878-12.743c-9.458-4.682-19.3-5.5-28.454-2.355a34.748,34.748,0,0,0-19.872,17.632l-1.208-.583a36.083,36.083,0,0,1,20.646-18.319c9.5-3.26,19.7-2.422,29.484,2.423a30.106,30.106,0,0,1,13.481,13.343c6.27,12.458,5.968,25.915-.83,36.926Z" transform="translate(12.243 4.878)" fill="#60dbbd"/>
    <path id="Trazado_8901" data-name="Trazado 8901" d="M1143.392,4123.345a30.936,30.936,0,1,1-30.938-30.936,30.939,30.939,0,0,1,30.938,30.936Z" transform="translate(12.282 5.021)" fill="#dcccff"/>
    <path id="Trazado_8902" data-name="Trazado 8902" d="M1147.735,4123.468a35.157,35.157,0,1,1-35.158-35.157,35.157,35.157,0,0,1,35.158,35.157Z" transform="translate(12.16 4.899)" fill="#dcccff"/>
    <path id="Trazado_8903" data-name="Trazado 8903" d="M1143,4142.281l-1.141-.7c6.546-10.6,6.828-23.586.773-35.619a28.772,28.772,0,0,0-12.878-12.743c-9.458-4.682-19.3-5.5-28.454-2.355a34.748,34.748,0,0,0-19.872,17.632l-1.208-.583a36.083,36.083,0,0,1,20.646-18.319c9.5-3.26,19.7-2.422,29.484,2.423a30.106,30.106,0,0,1,13.481,13.343c6.27,12.458,5.968,25.915-.83,36.926Z" transform="translate(12.243 4.878)" fill="#60dbbd"/>
    <path id="Trazado_8904" data-name="Trazado 8904" d="M1112.6,4158.276a35.867,35.867,0,0,1-35.827-35.828h1.341a34.519,34.519,0,0,0,44.711,32.947l.4,1.279a35.8,35.8,0,0,1-10.622,1.6Z" transform="translate(12.14 5.918)" fill="#60dbbd"/>
    <path id="Trazado_8905" data-name="Trazado 8905" d="M1136.158,4147.286l-.948-.95a34.509,34.509,0,0,0,5.008-6.322l1.141.7a35.908,35.908,0,0,1-5.2,6.569Z" transform="translate(13.885 6.442)" fill="#60dbbd"/>
    <path id="Trazado_8906" data-name="Trazado 8906" d="M1134.809,4134.211a27.482,27.482,0,0,0-33.935-33.962,25.448,25.448,0,0,1,33.935,33.962Z" transform="translate(12.86 5.18)" fill="#b695ff"/>
    <path id="Trazado_8907" data-name="Trazado 8907" d="M1136.276,4126.626a27.465,27.465,0,0,1-1.049,7.543l0,0a25.442,25.442,0,1,1-33.955-33.958l.025-.009a27.481,27.481,0,0,1,34.983,26.419Z" transform="translate(12.441 5.222)" fill="#c9b0ff"/>
    <path id="Trazado_8908" data-name="Trazado 8908" d="M1109.645,4140.555h-7.95l-8.545-18.848,8.341-3.782,4.974,10.972c5.193-6.875,16.694-20.238,35.646-32.88l5.08,7.616c-24.844,16.575-36.094,34.563-36.2,34.743l-1.341,2.179Z" transform="translate(12.629 5.128)" fill="#fff"/>
    <path id="Trazado_8909" data-name="Trazado 8909" d="M840.033,4042.4a3.187,3.187,0,1,0,3.186-3.188,3.188,3.188,0,0,0-3.186,3.188Z" transform="translate(5.072 3.432)" fill="#fff"/>
    <path id="Trazado_8910" data-name="Trazado 8910" d="M828.8,4042.4a3.187,3.187,0,1,0,3.188-3.188,3.188,3.188,0,0,0-3.188,3.188Z" transform="translate(4.736 3.432)" fill="#fff"/>
    <path id="Trazado_8911" data-name="Trazado 8911" d="M817.56,4042.4a3.188,3.188,0,1,0,3.188-3.188,3.188,3.188,0,0,0-3.188,3.188Z" transform="translate(4.401 3.432)" fill="#fff"/>
    <path id="Trazado_8912" data-name="Trazado 8912" d="M684.648,4014.46a10.735,10.735,0,1,0,14.424-4.735,10.734,10.734,0,0,0-14.424,4.735Z" transform="translate(0.398 2.518)" fill="#dcccff"/>
  </g>
</svg>
